<svg version="1.1" xmlns="http://www.w3.org/2000/svg" viewBox="0 0 462.349609375 383.451904296875" width="924.69921875" height="766.90380859375">
  <!-- svg-source:excalidraw -->
  
  <defs>
    <style class="style-fonts">
      @font-face {
        font-family: "Virgil";
        src: url("https://excalidraw.com/Virgil.woff2");
      }
      @font-face {
        font-family: "Cascadia";
        src: url("https://excalidraw.com/Cascadia.woff2");
      }
      @font-face {
        font-family: "Assistant";
        src: url("https://excalidraw.com/Assistant-Regular.woff2");
      }
    </style>
    
  </defs>
  <rect x="0" y="0" width="462.349609375" height="383.451904296875" fill="#ffffff"></rect><g stroke-linecap="round" transform="translate(10 12.53125) rotate(0 26.861328125 27.6015625)"><path d="M38.52 3.46 C43.63 5.56, 50.13 10.88, 52.43 16.45 C54.73 22.03, 54.09 31.13, 52.3 36.9 C50.5 42.67, 46.4 48.16, 41.67 51.08 C36.93 54, 29.66 55.21, 23.89 54.43 C18.13 53.66, 11.12 50.67, 7.08 46.43 C3.03 42.18, -0.22 35.03, -0.4 28.96 C-0.57 22.88, 2.46 14.6, 6.01 9.99 C9.56 5.37, 15.01 2.1, 20.9 1.27 C26.79 0.44, 37.85 4.1, 41.35 5 C44.84 5.9, 42.31 6.36, 41.9 6.7 M37.66 2.99 C42.47 4.38, 47.06 8.67, 49.42 13.6 C51.78 18.52, 52.72 26.41, 51.82 32.53 C50.91 38.66, 48.07 46.39, 43.97 50.37 C39.87 54.35, 33.17 56.91, 27.22 56.41 C21.28 55.91, 12.7 51.64, 8.32 47.39 C3.94 43.14, 1.77 36.46, 0.95 30.89 C0.12 25.31, 0.22 18.82, 3.36 13.93 C6.51 9.03, 14.25 3.71, 19.81 1.5 C25.37 -0.71, 34.13 0.58, 36.74 0.67 C39.34 0.77, 35.65 1.34, 35.44 2.07" stroke="#1e1e1e" stroke-width="2" fill="none"></path></g><g transform="translate(30.307503297541814 27.6155604849057) rotate(0 6.55999755859375 12.5)"><text x="6.55999755859375" y="17.52" font-family="Virgil, Segoe UI Emoji" font-size="20px" fill="#1e1e1e" text-anchor="middle" style="white-space: pre;" direction="ltr" dominant-baseline="alphabetic">A</text></g><g stroke-linecap="round" transform="translate(200.123046875 12.9609375) rotate(0 26.861328125 27.6015625)"><path d="M27.61 0.05 C32.89 -0.4, 39.73 2.06, 43.99 6.03 C48.26 10, 52.07 17.88, 53.21 23.88 C54.34 29.89, 53.67 37.18, 50.78 42.06 C47.89 46.93, 41.31 51.26, 35.87 53.15 C30.42 55.04, 23.41 55.47, 18.1 53.41 C12.79 51.35, 6.93 45.96, 4 40.79 C1.08 35.62, -0.39 27.99, 0.56 22.37 C1.51 16.75, 4.76 10.93, 9.71 7.09 C14.66 3.25, 26.36 0.44, 30.25 -0.67 C34.14 -1.79, 33.14 -0.25, 33.06 0.41 M27.79 0.71 C33.21 0.84, 42.43 2.46, 46.83 6.62 C51.23 10.78, 54 19.58, 54.17 25.66 C54.34 31.74, 51.13 38.17, 47.85 43.11 C44.58 48.04, 39.9 53.82, 34.52 55.26 C29.13 56.71, 20.64 54.59, 15.52 51.78 C10.41 48.97, 6.23 43.54, 3.83 38.4 C1.42 33.25, -0.27 26.54, 1.1 20.9 C2.47 15.26, 7.54 7.82, 12.07 4.57 C16.6 1.31, 25.65 2.05, 28.3 1.39 C30.95 0.73, 27.89 0.38, 27.96 0.6" stroke="#1e1e1e" stroke-width="2" fill="none"></path></g><g transform="translate(220.5505529191239 28.0452479849057) rotate(0 6.439994812011719 12.5)"><text x="6.439994812011719" y="17.52" font-family="Virgil, Segoe UI Emoji" font-size="20px" fill="#1e1e1e" text-anchor="middle" style="white-space: pre;" direction="ltr" dominant-baseline="alphabetic">C</text></g><g stroke-linecap="round" transform="translate(106.552734375 10.3828125) rotate(0 26.861328125 27.6015625)"><path d="M23.43 1.12 C28.94 -0.08, 36.36 0.94, 41.08 3.96 C45.8 6.97, 49.96 13.54, 51.76 19.21 C53.57 24.88, 53.95 32.52, 51.91 37.96 C49.88 43.4, 44.59 49.04, 39.54 51.82 C34.49 54.6, 27.06 55.74, 21.6 54.64 C16.15 53.53, 10.57 49.72, 6.82 45.16 C3.07 40.61, -0.68 33.24, -0.87 27.3 C-1.06 21.36, 0.94 14.04, 5.67 9.52 C10.4 5, 23.04 1.75, 27.53 0.18 C32.02 -1.4, 32.81 -0.43, 32.6 0.07 M36.05 0.47 C41.52 1.97, 46.5 8.8, 49.56 14.03 C52.61 19.27, 55.39 25.93, 54.4 31.87 C53.42 37.82, 48.33 45.79, 43.67 49.7 C39.02 53.62, 32.03 55.39, 26.48 55.39 C20.94 55.39, 14.81 53.6, 10.41 49.71 C6.01 45.82, 1.03 38.13, 0.06 32.03 C-0.9 25.92, 1.78 18.15, 4.63 13.08 C7.48 8.01, 12.01 3.38, 17.15 1.6 C22.28 -0.17, 32.46 2.44, 35.45 2.42 C38.44 2.41, 35.1 1.42, 35.09 1.53" stroke="#1e1e1e" stroke-width="2" fill="none"></path></g><g transform="translate(126.15023858806921 25.4671229849057) rotate(0 7.269996643066406 12.5)"><text x="7.269996643066406" y="17.52" font-family="Virgil, Segoe UI Emoji" font-size="20px" fill="#1e1e1e" text-anchor="middle" style="white-space: pre;" direction="ltr" dominant-baseline="alphabetic">B</text></g><g stroke-linecap="round" transform="translate(300.521484375 10) rotate(0 26.861328125 27.6015625)"><path d="M17.01 2.21 C22.03 -0.18, 30.42 -1.09, 35.74 0.62 C41.06 2.33, 45.88 7.32, 48.95 12.46 C52.03 17.6, 55.06 25.62, 54.18 31.45 C53.3 37.29, 48.25 43.37, 43.69 47.45 C39.13 51.53, 32.5 55.66, 26.82 55.95 C21.13 56.24, 13.97 53.01, 9.59 49.17 C5.21 45.33, 1.73 38.67, 0.53 32.94 C-0.67 27.21, -0.65 20.04, 2.4 14.8 C5.46 9.56, 16.08 3.55, 18.84 1.5 C21.6 -0.55, 19.04 1.95, 18.95 2.49 M19.88 0.84 C25.31 -0.51, 35.03 1.69, 40.23 4.6 C45.43 7.51, 49.03 13.12, 51.07 18.31 C53.11 23.49, 54.17 30.32, 52.47 35.71 C50.77 41.1, 45.72 47.51, 40.89 50.66 C36.05 53.81, 29.33 55.52, 23.47 54.6 C17.6 53.69, 9.83 49.38, 5.68 45.18 C1.53 40.98, -1.37 35.42, -1.42 29.4 C-1.48 23.38, 1.44 13.92, 5.36 9.05 C9.28 4.19, 19.15 1.3, 22.09 0.19 C25.03 -0.92, 23.24 1.65, 22.98 2.39" stroke="#1e1e1e" stroke-width="2" fill="none"></path></g><g transform="translate(319.58898980877234 25.0843104849057) rotate(0 7.799995422363281 12.5)"><text x="7.799995422363281" y="17.52" font-family="Virgil, Segoe UI Emoji" font-size="20px" fill="#1e1e1e" text-anchor="middle" style="white-space: pre;" direction="ltr" dominant-baseline="alphabetic">D</text></g><g stroke-linecap="round" transform="translate(398.626953125 10.1875) rotate(0 26.861328125 27.6015625)"><path d="M13.79 2.5 C18.48 -0.41, 26.9 -1, 32.75 0.25 C38.59 1.49, 45.25 5.17, 48.89 9.99 C52.52 14.8, 54.8 23.09, 54.57 29.11 C54.33 35.13, 51.35 41.94, 47.47 46.09 C43.59 50.24, 36.92 53.04, 31.29 54.01 C25.66 54.97, 18.54 54.85, 13.69 51.89 C8.83 48.94, 4.19 41.95, 2.18 36.29 C0.17 30.63, -0.52 23.46, 1.64 17.95 C3.79 12.44, 12.4 5.94, 15.09 3.22 C17.77 0.49, 17.26 1.16, 17.76 1.6 M37.91 3.8 C42.62 5.75, 47.51 11.2, 49.97 16.42 C52.43 21.64, 53.8 29.75, 52.65 35.12 C51.51 40.48, 47.57 45.4, 43.11 48.61 C38.65 51.82, 31.91 54.77, 25.9 54.36 C19.89 53.94, 11.12 50.31, 7.06 46.14 C3.01 41.96, 1.91 34.95, 1.58 29.31 C1.24 23.67, 2.26 16.84, 5.05 12.27 C7.84 7.7, 12.69 3.65, 18.31 1.87 C23.93 0.08, 35.54 1.13, 38.77 1.56 C42 2, 37.77 3.75, 37.67 4.47" stroke="#1e1e1e" stroke-width="2" fill="none"></path></g><g transform="translate(418.7544561173661 25.2718104849057) rotate(0 6.739997863769531 12.5)"><text x="6.739997863769531" y="17.52" font-family="Virgil, Segoe UI Emoji" font-size="20px" fill="#1e1e1e" text-anchor="middle" style="white-space: pre;" direction="ltr" dominant-baseline="alphabetic">E</text></g><g stroke-linecap="round"><g transform="translate(73.265625 38.25) rotate(0 13.19921875 0.396484375)"><path d="M0.22 0.24 C4.59 0.34, 22.18 0.32, 26.49 0.49 M-0.33 -0.12 C3.95 0.06, 21.79 0.95, 26.11 1.04" stroke="#1e1e1e" stroke-width="2" fill="none"></path></g><g transform="translate(73.265625 38.25) rotate(0 13.19921875 0.396484375)"><path d="M13.54 5.09 C18.21 3.77, 21.94 1.9, 26.11 1.04 M13.54 5.09 C18.37 3.71, 23.02 1.83, 26.11 1.04" stroke="#1e1e1e" stroke-width="2" fill="none"></path></g><g transform="translate(73.265625 38.25) rotate(0 13.19921875 0.396484375)"><path d="M13.88 -3.94 C18.42 -2.12, 22.03 -0.84, 26.11 1.04 M13.88 -3.94 C18.57 -1.86, 23.09 -0.27, 26.11 1.04" stroke="#1e1e1e" stroke-width="2" fill="none"></path></g></g><mask></mask><g stroke-linecap="round"><g transform="translate(165.9765625 41.265625) rotate(0 15.083984375 -0.22265625)"><path d="M-0.35 -0.15 C4.61 -0.33, 24.62 -0.84, 29.7 -0.8 M0.47 -0.7 C5.61 -0.85, 25.81 -0.28, 30.69 -0.29" stroke="#1e1e1e" stroke-width="2" fill="none"></path></g><g transform="translate(165.9765625 41.265625) rotate(0 15.083984375 -0.22265625)"><path d="M16.44 4.66 C20.27 2.66, 24.04 1.86, 30.69 -0.29 M16.44 4.66 C22.21 2.51, 27.81 0.44, 30.69 -0.29" stroke="#1e1e1e" stroke-width="2" fill="none"></path></g><g transform="translate(165.9765625 41.265625) rotate(0 15.083984375 -0.22265625)"><path d="M16.6 -5.66 C20.42 -4.73, 24.13 -2.59, 30.69 -0.29 M16.6 -5.66 C22.28 -3.72, 27.82 -1.7, 30.69 -0.29" stroke="#1e1e1e" stroke-width="2" fill="none"></path></g></g><mask></mask><g stroke-linecap="round"><g transform="translate(260.45703125 40.7734375) rotate(0 17.923828125 -0.017578125)"><path d="M-0.32 0.32 C5.57 0.29, 29.34 -0.24, 35.32 -0.33 M0.52 0.01 C6.56 0.06, 30.53 0.17, 36.29 0.22" stroke="#1e1e1e" stroke-width="2" fill="none"></path></g><g transform="translate(260.45703125 40.7734375) rotate(0 17.923828125 -0.017578125)"><path d="M19.41 6.24 C25.08 3.6, 29.21 2.18, 36.29 0.22 M19.41 6.24 C23.53 5.05, 28.3 2.57, 36.29 0.22" stroke="#1e1e1e" stroke-width="2" fill="none"></path></g><g transform="translate(260.45703125 40.7734375) rotate(0 17.923828125 -0.017578125)"><path d="M19.48 -6.02 C25.12 -4.92, 29.23 -2.62, 36.29 0.22 M19.48 -6.02 C23.6 -3.93, 28.36 -3.13, 36.29 0.22" stroke="#1e1e1e" stroke-width="2" fill="none"></path></g></g><mask></mask><g stroke-linecap="round"><g transform="translate(358.515625 39.45703125) rotate(0 17.703125 1.140625)"><path d="M-0.18 0.16 C5.67 0.67, 29.22 2.36, 35.21 2.73 M0.73 -0.23 C6.49 0.16, 28.87 1.45, 34.68 2" stroke="#1e1e1e" stroke-width="2" fill="none"></path></g><g transform="translate(358.515625 39.45703125) rotate(0 17.703125 1.140625)"><path d="M17.6 6.82 C23.34 4.99, 29.26 4.29, 34.68 2 M17.6 6.82 C23.38 5.77, 28.7 3.78, 34.68 2" stroke="#1e1e1e" stroke-width="2" fill="none"></path></g><g transform="translate(358.515625 39.45703125) rotate(0 17.703125 1.140625)"><path d="M18.5 -5.28 C23.91 -3.25, 29.55 -0.07, 34.68 2 M18.5 -5.28 C24 -2.45, 29.03 -0.57, 34.68 2" stroke="#1e1e1e" stroke-width="2" fill="none"></path></g></g><mask></mask><g stroke-linecap="round"><g transform="translate(218.65234375 93.7008056640625) rotate(0 0.892578125 37.40625)"><path d="M-0.88 1.15 C-0.53 13.33, 2.3 61.77, 2.67 74.11 M0.86 0.7 C1.08 13.55, 2.27 62.62, 2.19 75.27" stroke="#2f9e44" stroke-width="4" fill="none"></path></g><g transform="translate(218.65234375 93.7008056640625) rotate(0 0.892578125 37.40625)"><path d="M-6.62 51.88 C-1.45 61.55, -1.48 67.48, 2.19 75.27 M-6.62 51.88 C-3.09 59.79, -1.6 67.66, 2.19 75.27" stroke="#2f9e44" stroke-width="4" fill="none"></path></g><g transform="translate(218.65234375 93.7008056640625) rotate(0 0.892578125 37.40625)"><path d="M10.48 51.69 C9.71 61.3, 3.74 67.29, 2.19 75.27 M10.48 51.69 C8.42 59.51, 4.31 67.43, 2.19 75.27" stroke="#2f9e44" stroke-width="4" fill="none"></path></g></g><mask></mask><g stroke-linecap="round" transform="translate(27.158203125 149.6031494140625) rotate(0 26.861328125 27.6015625)"><path d="M14.59 3.2 C19.2 0.14, 26.52 -0.74, 31.96 0.32 C37.39 1.39, 43.58 4.86, 47.23 9.6 C50.87 14.34, 53.98 22.65, 53.81 28.77 C53.63 34.89, 50.02 41.98, 46.16 46.33 C42.3 50.68, 36.06 54.2, 30.63 54.87 C25.2 55.55, 18.45 53.59, 13.56 50.38 C8.68 47.18, 3.26 41.23, 1.31 35.65 C-0.64 30.07, -0.43 22.27, 1.86 16.89 C4.14 11.5, 12.55 5.86, 15.04 3.34 C17.53 0.82, 16.72 1.54, 16.81 1.78 M27.24 0.93 C32.31 0.28, 38.09 1.83, 42.16 5.09 C46.22 8.35, 50.35 14.41, 51.65 20.47 C52.94 26.54, 52.57 36.11, 49.92 41.49 C47.26 46.87, 40.71 50.74, 35.71 52.74 C30.72 54.75, 25.26 55.33, 19.97 53.49 C14.67 51.66, 7.04 46.86, 3.96 41.75 C0.87 36.63, 0.84 28.75, 1.46 22.8 C2.09 16.85, 3.84 9.8, 7.72 6.04 C11.6 2.28, 21.56 1.07, 24.74 0.26 C27.92 -0.55, 26.49 0.87, 26.8 1.18" stroke="#1e1e1e" stroke-width="2" fill="none"></path></g><g transform="translate(47.465706422541814 164.6874598989682) rotate(0 6.559997558593778 12.5)"><text x="6.55999755859375" y="17.52" font-family="Virgil, Segoe UI Emoji" font-size="20px" fill="#1e1e1e" text-anchor="middle" style="white-space: pre;" direction="ltr" dominant-baseline="alphabetic">A</text></g><g stroke-linecap="round" transform="translate(29.001953125 237.076904296875) rotate(0 26.861328125 27.6015625)"><path d="M19.74 0.91 C24.88 -1.18, 33.2 -1.1, 38.27 1.44 C43.34 3.99, 47.55 10.59, 50.15 16.17 C52.76 21.74, 55.32 29.35, 53.9 34.9 C52.49 40.44, 46.45 46.06, 41.66 49.45 C36.87 52.84, 30.6 55.46, 25.16 55.21 C19.72 54.96, 13.13 52.09, 9.02 47.97 C4.9 43.85, 1.1 36.45, 0.45 30.51 C-0.19 24.57, 0.84 17.36, 5.16 12.33 C9.48 7.3, 21.7 2.29, 26.36 0.34 C31.03 -1.61, 32.99 0.25, 33.17 0.63 M23.72 -0.73 C29.14 -2.19, 36.55 0.07, 41.1 3.47 C45.65 6.87, 49.26 14.05, 51.02 19.69 C52.77 25.33, 53.53 31.77, 51.64 37.31 C49.74 42.86, 44.69 49.85, 39.65 52.97 C34.61 56.09, 26.93 57.17, 21.41 56.02 C15.89 54.87, 10.09 50.9, 6.52 46.06 C2.95 41.21, -0.07 32.94, 0 26.95 C0.08 20.96, 3.4 14.45, 6.98 10.12 C10.55 5.79, 19.14 2.57, 21.47 0.99 C23.8 -0.58, 20.6 0.5, 20.94 0.68" stroke="#1e1e1e" stroke-width="2" fill="none"></path></g><g transform="translate(48.59945733806916 252.1612147817807) rotate(0 7.269996643066435 12.5)"><text x="7.269996643066406" y="17.52" font-family="Virgil, Segoe UI Emoji" font-size="20px" fill="#1e1e1e" text-anchor="middle" style="white-space: pre;" direction="ltr" dominant-baseline="alphabetic">B</text></g><g stroke-linecap="round" transform="translate(31.919921875 318.248779296875) rotate(0 26.861328125 27.6015625)"><path d="M15.33 3.73 C20 0.61, 26.11 -1.07, 31.61 0.1 C37.11 1.27, 44.5 5.91, 48.33 10.77 C52.15 15.62, 54.78 23.32, 54.57 29.23 C54.36 35.14, 50.99 41.91, 47.07 46.24 C43.15 50.56, 36.86 54.33, 31.03 55.17 C25.21 56.01, 17.22 54.64, 12.15 51.3 C7.07 47.96, 2.17 40.85, 0.6 35.14 C-0.98 29.42, -0.25 22.64, 2.7 17.03 C5.65 11.42, 14.79 3.99, 18.29 1.45 C21.78 -1.09, 23.6 1.28, 23.67 1.78 M24.05 0.31 C29.56 -0.55, 36.99 2.84, 41.67 6.4 C46.34 9.96, 50.45 16.08, 52.09 21.68 C53.73 27.28, 53.81 34.95, 51.5 40.01 C49.2 45.07, 43.39 49.6, 38.24 52.03 C33.09 54.46, 26.28 55.92, 20.58 54.59 C14.89 53.26, 7.72 48.98, 4.07 44.04 C0.42 39.11, -2.08 31.12, -1.32 24.95 C-0.56 18.78, 4.33 11.1, 8.65 7.04 C12.96 2.98, 21.92 1.48, 24.59 0.58 C27.27 -0.32, 24.47 1.29, 24.68 1.65" stroke="#1e1e1e" stroke-width="2" fill="none"></path></g><g transform="translate(52.347427919123845 333.3330897817807) rotate(0 6.439994812011747 12.5)"><text x="6.439994812011719" y="17.52" font-family="Virgil, Segoe UI Emoji" font-size="20px" fill="#1e1e1e" text-anchor="middle" style="white-space: pre;" direction="ltr" dominant-baseline="alphabetic">C</text></g><g stroke-linecap="round" transform="translate(194.345703125 231.248779296875) rotate(0 26.861328125 27.6015625)"><path d="M21.2 0.9 C26.27 -0.58, 33.72 0.59, 38.93 3.27 C44.14 5.96, 50.24 11.39, 52.47 17 C54.7 22.6, 54.27 31.08, 52.33 36.9 C50.38 42.72, 45.61 48.94, 40.8 51.92 C35.98 54.9, 29.23 55.97, 23.42 54.78 C17.61 53.59, 9.88 49.23, 5.92 44.78 C1.97 40.34, -0.27 34.01, -0.31 28.14 C-0.36 22.26, 1.14 14.33, 5.67 9.54 C10.2 4.74, 22.57 0.75, 26.87 -0.64 C31.17 -2.03, 31.43 0.66, 31.48 1.18 M14.56 3.68 C19.39 0.54, 27.3 -0.48, 32.65 0.53 C37.99 1.55, 43.17 5.23, 46.63 9.77 C50.1 14.3, 53.47 21.92, 53.45 27.75 C53.44 33.59, 50.21 40.38, 46.55 44.76 C42.88 49.14, 37.27 52.87, 31.44 54.04 C25.62 55.21, 16.48 54.91, 11.59 51.78 C6.7 48.65, 3.83 41.2, 2.1 35.24 C0.38 29.27, -0.78 21.23, 1.23 15.99 C3.25 10.76, 12.11 5.69, 14.2 3.83 C16.29 1.97, 13.71 4.45, 13.75 4.85" stroke="#1e1e1e" stroke-width="2" fill="none"></path></g><g transform="translate(213.41320855877234 246.3330897817807) rotate(0 7.799995422363281 12.5)"><text x="7.799995422363281" y="17.52" font-family="Virgil, Segoe UI Emoji" font-size="20px" fill="#1e1e1e" text-anchor="middle" style="white-space: pre;" direction="ltr" dominant-baseline="alphabetic">D</text></g><g stroke-linecap="round" transform="translate(342.958984375 228.416748046875) rotate(0 26.861328125 27.6015625)"><path d="M24.86 0.77 C30.14 0.02, 37.58 2.3, 42.42 5.83 C47.26 9.36, 52.36 16.14, 53.91 21.95 C55.46 27.76, 54.38 35.39, 51.7 40.71 C49.01 46.04, 43.27 51.5, 37.81 53.89 C32.34 56.28, 24.41 57.03, 18.93 55.06 C13.45 53.09, 8.04 47.1, 4.94 42.05 C1.84 37, -0.25 30.4, 0.32 24.76 C0.88 19.12, 2.93 12.23, 8.34 8.23 C13.75 4.23, 27.63 1.6, 32.79 0.77 C37.95 -0.05, 39.31 2.77, 39.3 3.29 M32.33 1.34 C37.88 2.17, 46.28 6.45, 49.59 10.99 C52.9 15.53, 52.85 22.48, 52.22 28.58 C51.58 34.67, 49.55 43.01, 45.77 47.56 C41.98 52.12, 35.1 55.34, 29.49 55.92 C23.88 56.49, 16.76 54.56, 12.09 51.04 C7.41 47.52, 2.95 40.35, 1.44 34.77 C-0.07 29.2, 0.95 22.98, 3.04 17.59 C5.13 12.19, 8.73 5.23, 13.96 2.41 C19.2 -0.41, 31.18 0.97, 34.43 0.66 C37.69 0.34, 33.83 -0.08, 33.5 0.51" stroke="#1e1e1e" stroke-width="2" fill="none"></path></g><g transform="translate(363.0864873673661 243.5010585317807) rotate(0 6.739997863769531 12.5)"><text x="6.739997863769531" y="17.52" font-family="Virgil, Segoe UI Emoji" font-size="20px" fill="#1e1e1e" text-anchor="middle" style="white-space: pre;" direction="ltr" dominant-baseline="alphabetic">E</text></g><g stroke-linecap="round"><g transform="translate(89.98077396188023 180.9303978909834) rotate(0 50.70438257300998 28.78355526416385)"><path d="M0.19 0.48 C16.86 10.05, 83.74 48.54, 100.77 58.02 M-1.17 -0.32 C15.84 8.84, 85.94 46.31, 103.14 56.14" stroke="#1e1e1e" stroke-width="2" fill="none"></path></g><g transform="translate(89.98077396188023 180.9303978909834) rotate(0 50.70438257300998 28.78355526416385)"><path d="M78.44 52.31 C88.12 52.58, 96.96 56.53, 103.14 56.14 M78.44 52.31 C85.11 54.17, 92.31 55.22, 103.14 56.14" stroke="#1e1e1e" stroke-width="2" fill="none"></path></g><g transform="translate(89.98077396188023 180.9303978909834) rotate(0 50.70438257300998 28.78355526416385)"><path d="M86.68 37.33 C93.47 42.99, 99.35 52.32, 103.14 56.14 M86.68 37.33 C90.84 43.45, 95.68 48.8, 103.14 56.14" stroke="#1e1e1e" stroke-width="2" fill="none"></path></g></g><mask></mask><g stroke-linecap="round"><g transform="translate(91.78452958298237 267.1778161870725) rotate(0 49.71226000556919 -0.3147546916569013)"><path d="M-0.19 -0.02 C16.41 0.16, 82.38 0.54, 98.86 0.51 M-1.75 -1.08 C14.71 -1.15, 80.46 -0.81, 97.62 -1.01" stroke="#1e1e1e" stroke-width="2" fill="none"></path></g><g transform="translate(91.78452958298237 267.1778161870725) rotate(0 49.71226000556919 -0.3147546916569013)"><path d="M74.14 7.59 C79.67 4.67, 87.12 2.34, 97.62 -1.01 M74.14 7.59 C82.09 4.37, 90.11 2.57, 97.62 -1.01" stroke="#1e1e1e" stroke-width="2" fill="none"></path></g><g transform="translate(91.78452958298237 267.1778161870725) rotate(0 49.71226000556919 -0.3147546916569013)"><path d="M74.1 -9.51 C79.55 -8.41, 87.01 -6.72, 97.62 -1.01 M74.1 -9.51 C82.09 -6.97, 90.13 -3.02, 97.62 -1.01" stroke="#1e1e1e" stroke-width="2" fill="none"></path></g></g><mask></mask><g stroke-linecap="round"><g transform="translate(96.72988393723301 347.24695416933343) rotate(0 47.213927601915884 -31.442301718664226)"><path d="M-0.59 -0.64 C15.04 -11.25, 77.96 -52.86, 93.75 -63.31 M1.3 1.64 C17.32 -8.83, 80.78 -51.35, 96.1 -62" stroke="#1e1e1e" stroke-width="2" fill="none"></path></g><g transform="translate(96.72988393723301 347.24695416933343) rotate(0 47.213927601915884 -31.442301718664226)"><path d="M81.48 -41.71 C84.7 -48.8, 89.4 -54.2, 96.1 -62 M81.48 -41.71 C84.8 -47.97, 89.07 -53.23, 96.1 -62" stroke="#1e1e1e" stroke-width="2" fill="none"></path></g><g transform="translate(96.72988393723301 347.24695416933343) rotate(0 47.213927601915884 -31.442301718664226)"><path d="M71.87 -55.86 C77.98 -58.7, 85.54 -59.89, 96.1 -62 M71.87 -55.86 C77.86 -58.35, 84.66 -59.88, 96.1 -62" stroke="#1e1e1e" stroke-width="2" fill="none"></path></g></g><mask></mask><g stroke-linecap="round"><g transform="translate(259.4286945748154 260.21078999615224) rotate(0 39.79160588491334 -0.5537803683950528)"><path d="M0.57 -0.12 C13.73 -0.5, 65.3 -1.07, 78.48 -1.1 M-0.59 -1.23 C12.96 -0.9, 67.37 0.6, 80.61 0.44" stroke="#1e1e1e" stroke-width="2" fill="none"></path></g><g transform="translate(259.4286945748154 260.21078999615224) rotate(0 39.79160588491334 -0.5537803683950528)"><path d="M57.02 8.74 C62.9 4.61, 69.29 4.33, 80.61 0.44 M57.02 8.74 C66.41 6.61, 73.89 1.84, 80.61 0.44" stroke="#1e1e1e" stroke-width="2" fill="none"></path></g><g transform="translate(259.4286945748154 260.21078999615224) rotate(0 39.79160588491334 -0.5537803683950528)"><path d="M57.21 -8.36 C63.21 -8.02, 69.55 -3.83, 80.61 0.44 M57.21 -8.36 C66.36 -4.18, 73.78 -2.63, 80.61 0.44" stroke="#1e1e1e" stroke-width="2" fill="none"></path></g></g><mask></mask></svg>