<svg version="1.1" xmlns="http://www.w3.org/2000/svg" viewBox="0 0 954.25 80.52734375" width="1908.5" height="161.0546875">
  <!-- svg-source:excalidraw -->
  
  <defs>
    <style class="style-fonts">
      @font-face {
        font-family: "Virgil";
        src: url("https://excalidraw.com/Virgil.woff2");
      }
      @font-face {
        font-family: "Cascadia";
        src: url("https://excalidraw.com/Cascadia.woff2");
      }
      @font-face {
        font-family: "Assistant";
        src: url("https://excalidraw.com/Assistant-Regular.woff2");
      }
    </style>
    
  </defs>
  <rect x="0" y="0" width="954.25" height="80.52734375" fill="#ffffff"></rect><g stroke-linecap="round" transform="translate(136.0390625 18.41015625) rotate(0 62.712890625 26.05859375)"><path d="M13.03 0 C37.14 0.78, 64.68 -2.2, 112.4 0 M13.03 0 C35.48 0.17, 58.18 0.18, 112.4 0 M112.4 0 C119.36 1.98, 124.3 5.45, 125.43 13.03 M112.4 0 C122.06 -1.98, 123.27 3.63, 125.43 13.03 M125.43 13.03 C127.17 17.41, 124.8 24.82, 125.43 39.09 M125.43 13.03 C124.78 23.03, 125.86 31.57, 125.43 39.09 M125.43 39.09 C125.1 49.18, 119.7 51.17, 112.4 52.12 M125.43 39.09 C127.14 45.54, 119.76 52.64, 112.4 52.12 M112.4 52.12 C93.85 53.2, 70.2 54.18, 13.03 52.12 M112.4 52.12 C75.29 50.62, 37.09 50.98, 13.03 52.12 M13.03 52.12 C3.59 52.19, 0.91 46.68, 0 39.09 M13.03 52.12 C6.39 52.82, -2.11 48.1, 0 39.09 M0 39.09 C1.16 32.38, -0.79 27.74, 0 13.03 M0 39.09 C-0.12 30.8, 0.62 20.76, 0 13.03 M0 13.03 C-1.92 6.17, 4.93 1.08, 13.03 0 M0 13.03 C-1.56 5, 3.74 1.52, 13.03 0" stroke="#1e1e1e" stroke-width="2" fill="none"></path></g><g transform="translate(189.26195526123047 31.96875) rotate(0 9.489997863769531 12.5)"><text x="9.489997863769531" y="17.52" font-family="Virgil, Segoe UI Emoji" font-size="20px" fill="#1e1e1e" text-anchor="middle" style="white-space: pre;" direction="ltr" dominant-baseline="alphabetic">R1</text></g><g stroke-linecap="round" transform="translate(329.865234375 15.5078125) rotate(0 62.712890625 26.05859375)"><path d="M13.03 0 C52.08 -0.12, 87.57 -1.24, 112.4 0 M13.03 0 C40.09 -1.57, 67 -0.99, 112.4 0 M112.4 0 C120.74 -0.37, 123.53 5.86, 125.43 13.03 M112.4 0 C122.68 1.23, 123.71 2.25, 125.43 13.03 M125.43 13.03 C125.73 19.48, 124.89 27.53, 125.43 39.09 M125.43 13.03 C125.72 21.27, 125.54 29.51, 125.43 39.09 M125.43 39.09 C127.31 46.93, 121.05 50.25, 112.4 52.12 M125.43 39.09 C125.49 46.22, 120.17 50.68, 112.4 52.12 M112.4 52.12 C72.49 53.4, 36.86 50.63, 13.03 52.12 M112.4 52.12 C91.05 52.59, 69.58 52.65, 13.03 52.12 M13.03 52.12 C2.57 51.67, 0.39 48.88, 0 39.09 M13.03 52.12 C2.73 53.6, -1.38 49.4, 0 39.09 M0 39.09 C0.38 28.83, 1.7 19.62, 0 13.03 M0 39.09 C-0.93 31.24, 0.96 21.98, 0 13.03 M0 13.03 C0.63 5.95, 5.13 -1.55, 13.03 0 M0 13.03 C1.68 5.05, 2.55 2.07, 13.03 0" stroke="#1e1e1e" stroke-width="2" fill="none"></path></g><g transform="translate(378.6781311035156 29.06640625) rotate(0 13.899993896484375 12.5)"><text x="13.899993896484375" y="17.52" font-family="Virgil, Segoe UI Emoji" font-size="20px" fill="#1e1e1e" text-anchor="middle" style="white-space: pre;" direction="ltr" dominant-baseline="alphabetic">R2</text></g><g stroke-linecap="round" transform="translate(663.998046875 10) rotate(0 62.712890625 26.05859375)"><path d="M13.03 0 C36.45 1.24, 62.88 -0.86, 112.4 0 M13.03 0 C41.68 -0.22, 68.21 -1.67, 112.4 0 M112.4 0 C120.2 -1.32, 126.79 4.82, 125.43 13.03 M112.4 0 C120.84 -0.42, 126.78 4.97, 125.43 13.03 M125.43 13.03 C124.6 21.52, 124.03 31.66, 125.43 39.09 M125.43 13.03 C125.45 19.08, 125.03 25.85, 125.43 39.09 M125.43 39.09 C127.17 49.56, 120.18 50.67, 112.4 52.12 M125.43 39.09 C127.41 49.36, 119.88 50.18, 112.4 52.12 M112.4 52.12 C89.95 52.31, 65.85 50.43, 13.03 52.12 M112.4 52.12 C84.08 53.31, 56.57 53.38, 13.03 52.12 M13.03 52.12 C5.21 51.61, -1.58 48.09, 0 39.09 M13.03 52.12 C2.84 53.99, -1.8 48.05, 0 39.09 M0 39.09 C0.81 33.43, -1.46 24.69, 0 13.03 M0 39.09 C0.63 29.49, -0.88 20.17, 0 13.03 M0 13.03 C0 4.12, 3.13 -1.51, 13.03 0 M0 13.03 C-0.33 2.29, 4.14 1.88, 13.03 0" stroke="#1e1e1e" stroke-width="2" fill="none"></path></g><g transform="translate(715.2609405517578 23.55859375) rotate(0 11.449996948242188 12.5)"><text x="11.449996948242188" y="17.52" font-family="Virgil, Segoe UI Emoji" font-size="20px" fill="#1e1e1e" text-anchor="middle" style="white-space: pre;" direction="ltr" dominant-baseline="alphabetic">Rn</text></g><g stroke-linecap="round"><g transform="translate(65.05859375 48.12890625) rotate(0 30.84086188060698 -0.8143869735300484)"><path d="M0.22 0.25 C10.59 -0.1, 52.5 -1.52, 62.8 -1.88 M-1.12 -0.66 C9.03 -0.83, 50.88 -0.35, 61.8 -0.34" stroke="#1e1e1e" stroke-width="2" fill="none"></path></g><g transform="translate(65.05859375 48.12890625) rotate(0 30.84086188060698 -0.8143869735300484)"><path d="M38.25 8.06 C46.87 4.93, 54.67 0.67, 61.8 -0.34 M38.25 8.06 C45.02 4.78, 52.42 3.25, 61.8 -0.34" stroke="#1e1e1e" stroke-width="2" fill="none"></path></g><g transform="translate(65.05859375 48.12890625) rotate(0 30.84086188060698 -0.8143869735300484)"><path d="M38.36 -9.04 C46.98 -6.21, 54.74 -4.5, 61.8 -0.34 M38.36 -9.04 C45.25 -7.24, 52.63 -3.7, 61.8 -0.34" stroke="#1e1e1e" stroke-width="2" fill="none"></path></g></g><mask></mask><g stroke-linecap="round"><g transform="translate(275.09765625 43.92028435375414) rotate(0 23.06831182437017 -0.41071195112832015)"><path d="M-0.48 0.02 C7.31 -0.19, 38.84 -0.87, 46.62 -0.84 M0.27 -0.44 C8.04 -0.64, 38.83 -0.37, 46.43 -0.4" stroke="#1e1e1e" stroke-width="2" fill="none"></path></g><g transform="translate(275.09765625 43.92028435375414) rotate(0 23.06831182437017 -0.41071195112832015)"><path d="M24.73 7.43 C30.69 6.24, 35.71 3.32, 46.43 -0.4 M24.73 7.43 C33.05 4.42, 42.28 1.56, 46.43 -0.4" stroke="#1e1e1e" stroke-width="2" fill="none"></path></g><g transform="translate(275.09765625 43.92028435375414) rotate(0 23.06831182437017 -0.41071195112832015)"><path d="M24.77 -8.35 C30.79 -5.22, 35.79 -3.8, 46.43 -0.4 M24.77 -8.35 C33.02 -5.08, 42.23 -1.66, 46.43 -0.4" stroke="#1e1e1e" stroke-width="2" fill="none"></path></g></g><mask></mask><g stroke-linecap="round"><g transform="translate(466.15234375 44.32598248349467) rotate(0 35.72747304183895 -0.08092705164085601)"><path d="M0.96 -0.23 C12.81 -0.06, 59.63 -0.14, 71.46 -0.05 M0 -1.4 C11.64 -0.97, 58.49 0.73, 70.35 1.24" stroke="#1e1e1e" stroke-width="2" fill="none"></path></g><g transform="translate(466.15234375 44.32598248349467) rotate(0 35.72747304183895 -0.08092705164085601)"><path d="M46.55 8.87 C54.01 5.69, 61.35 3.91, 70.35 1.24 M46.55 8.87 C54.34 6.83, 60.56 3.61, 70.35 1.24" stroke="#1e1e1e" stroke-width="2" fill="none"></path></g><g transform="translate(466.15234375 44.32598248349467) rotate(0 35.72747304183895 -0.08092705164085601)"><path d="M47.21 -8.22 C54.3 -5.81, 61.43 -2, 70.35 1.24 M47.21 -8.22 C54.64 -5.27, 60.67 -3.5, 70.35 1.24" stroke="#1e1e1e" stroke-width="2" fill="none"></path></g></g><mask></mask><g stroke-linecap="round"><g transform="translate(603.28515625 43.50390625) rotate(0 25.221931575662495 0.11074125546775804)"><path d="M0.6 0.68 C9.14 0.56, 42.54 -0.27, 50.99 -0.46 M-0.55 0 C7.85 -0.04, 41.47 0.47, 50.01 0.51" stroke="#1e1e1e" stroke-width="2" fill="none"></path></g><g transform="translate(603.28515625 43.50390625) rotate(0 25.221931575662495 0.11074125546775804)"><path d="M26.43 8.82 C34.13 6.27, 37.77 4.49, 50.01 0.51 M26.43 8.82 C32.09 7.25, 35.91 4.82, 50.01 0.51" stroke="#1e1e1e" stroke-width="2" fill="none"></path></g><g transform="translate(603.28515625 43.50390625) rotate(0 25.221931575662495 0.11074125546775804)"><path d="M26.61 -8.28 C34.29 -6.06, 37.89 -3.07, 50.01 0.51 M26.61 -8.28 C32.27 -6.31, 36.05 -5.2, 50.01 0.51" stroke="#1e1e1e" stroke-width="2" fill="none"></path></g></g><mask></mask><g stroke-linecap="round"><g transform="translate(800.7265625 41.13671875) rotate(0 41.58584183271506 -2.0213422039907556)"><path d="M1.13 -0.42 C14.97 -0.69, 69.17 -1.27, 82.9 -1.64 M0.27 -1.68 C13.92 -2.34, 67.95 -3.63, 81.71 -3.62" stroke="#1e1e1e" stroke-width="2" fill="none"></path></g><g transform="translate(800.7265625 41.13671875) rotate(0 41.58584183271506 -2.0213422039907556)"><path d="M58.34 5.25 C64.38 1.69, 72.26 0.14, 81.71 -3.62 M58.34 5.25 C64.03 2.42, 69.89 0.73, 81.71 -3.62" stroke="#1e1e1e" stroke-width="2" fill="none"></path></g><g transform="translate(800.7265625 41.13671875) rotate(0 41.58584183271506 -2.0213422039907556)"><path d="M58.1 -11.85 C64.21 -10.48, 72.15 -7.1, 81.71 -3.62 M58.1 -11.85 C63.85 -10.56, 69.77 -8.11, 81.71 -3.62" stroke="#1e1e1e" stroke-width="2" fill="none"></path></g></g><mask></mask><g transform="translate(554.5390625 46.16796875) rotate(0 0.931640625 0.396484375)" stroke="none"><path fill="#1e1e1e" d="M 4.24,-1.32 Q 4.24,-1.32 4.30,-0.26 4.36,0.80 3.93,1.76 3.49,2.73 2.65,3.39 1.82,4.05 0.77,4.24 -0.26,4.43 -1.28,4.11 -2.29,3.80 -3.04,3.04 -3.80,2.29 -4.11,1.28 -4.43,0.26 -4.24,-0.77 -4.04,-1.82 -3.39,-2.65 -2.73,-3.49 -1.76,-3.93 -0.79,-4.36 0.26,-4.30 1.32,-4.23 2.23,-3.68 3.14,-3.13 3.69,-2.23 L 4.24,-1.32 Z"></path></g><g transform="translate(571.6171875 46.0703125) rotate(0 1.314453125 0.109375)" stroke="none"><path fill="#1e1e1e" d="M 0.38,-4.61 Q 0.38,-4.61 0.39,-4.70 0.39,-4.79 0.96,-4.67 1.53,-4.55 2.05,-4.30 2.57,-4.05 3.02,-3.68 3.47,-3.32 3.82,-2.85 4.16,-2.39 4.39,-1.85 4.62,-1.32 4.71,-0.75 4.80,-0.18 4.75,0.39 4.70,0.97 4.52,1.52 4.33,2.07 4.02,2.56 3.71,3.04 3.29,3.44 2.87,3.85 2.37,4.13 1.87,4.42 1.31,4.58 0.75,4.74 0.17,4.76 -0.39,4.79 -1.15,4.60 -1.90,4.41 -2.56,3.99 -3.21,3.57 -3.70,2.96 -4.18,2.35 -4.45,1.62 -4.72,0.89 -4.74,0.11 -4.76,-0.65 -4.53,-1.40 -4.30,-2.14 -3.84,-2.77 -3.39,-3.40 -2.76,-3.85 -2.12,-4.31 -1.38,-4.53 -0.64,-4.76 0.13,-4.74 0.91,-4.71 1.64,-4.44 2.37,-4.17 2.97,-3.69 3.58,-3.20 4.00,-2.54 4.41,-1.89 4.60,-1.13 4.79,-0.38 4.72,0.39 4.66,1.16 4.35,1.88 4.04,2.59 3.52,3.17 3.00,3.75 2.32,4.13 1.64,4.51 0.88,4.66 0.12,4.80 -0.64,4.69 -1.41,4.59 -2.11,4.24 -2.81,3.89 -3.36,3.34 -3.90,2.79 -4.25,2.09 -4.59,1.40 -4.70,0.63 -4.80,-0.13 -4.65,-0.90 -4.50,-1.66 -4.12,-2.34 -3.74,-3.01 -3.16,-3.53 -2.58,-4.05 -1.86,-4.36 -1.15,-4.66 -0.37,-4.72 0.40,-4.79 0.39,-4.79 0.39,-4.79 0.96,-4.67 1.53,-4.55 2.05,-4.30 2.57,-4.05 3.02,-3.68 3.47,-3.32 3.82,-2.85 4.16,-2.39 4.39,-1.85 4.62,-1.32 4.71,-0.75 4.80,-0.18 4.75,0.39 4.70,0.97 4.52,1.52 4.33,2.07 4.02,2.56 3.71,3.04 3.29,3.44 2.87,3.84 2.37,4.13 1.87,4.42 1.31,4.58 0.75,4.74 0.18,4.76 -0.39,4.79 -0.39,4.70 -0.38,4.61 -0.93,4.50 -1.47,4.38 -1.98,4.14 -2.48,3.90 -2.91,3.55 -3.34,3.19 -3.68,2.75 -4.01,2.30 -4.23,1.79 -4.44,1.27 -4.53,0.72 -4.62,0.17 -4.57,-0.38 -4.53,-0.93 -4.35,-1.46 -4.17,-1.99 -3.87,-2.46 -3.57,-2.93 -3.17,-3.32 -2.77,-3.70 -2.28,-3.98 -1.80,-4.26 -1.26,-4.41 -0.73,-4.57 -0.17,-4.59 0.38,-4.61 0.38,-4.61 L 0.38,-4.61 Z"></path></g><g transform="translate(590.47265625 44.96875) rotate(0 0.00004999999998744897 0.00004999999998744897)" stroke="none"><path fill="#1e1e1e" d="M 3.14,-3.14 Q 3.14,-3.14 3.55,-2.55 3.97,-1.97 4.18,-1.28 4.40,-0.59 4.38,0.11 4.36,0.83 4.11,1.51 3.86,2.18 3.41,2.74 2.96,3.30 2.36,3.69 1.75,4.08 1.05,4.25 0.36,4.42 -0.35,4.36 -1.07,4.31 -1.73,4.02 -2.39,3.74 -2.92,3.26 -3.46,2.78 -3.81,2.15 -4.16,1.53 -4.30,0.82 -4.43,0.11 -4.34,-0.59 -4.24,-1.30 -3.92,-1.94 -3.60,-2.59 -3.09,-3.09 -2.59,-3.60 -1.94,-3.92 -1.30,-4.24 -0.59,-4.34 0.12,-4.43 0.82,-4.30 1.53,-4.16 2.15,-3.81 2.78,-3.46 3.26,-2.92 3.74,-2.39 4.02,-1.73 4.31,-1.07 4.36,-0.35 4.42,0.36 4.25,1.05 4.07,1.75 3.69,2.36 3.30,2.96 2.74,3.41 2.18,3.86 1.51,4.11 0.83,4.36 0.11,4.38 -0.60,4.40 -1.28,4.18 -1.97,3.97 -2.55,3.55 -3.14,3.13 -3.14,3.14 -3.14,3.14 -3.47,2.71 -3.80,2.29 -4.02,1.80 -4.24,1.32 -4.33,0.79 -4.43,0.26 -4.40,-0.26 -4.36,-0.80 -4.20,-1.31 -4.04,-1.82 -3.77,-2.28 -3.49,-2.73 -3.11,-3.11 -2.73,-3.49 -2.28,-3.77 -1.82,-4.05 -1.31,-4.20 -0.80,-4.36 -0.26,-4.40 0.26,-4.43 0.79,-4.33 1.32,-4.24 1.80,-4.02 2.29,-3.80 2.71,-3.47 3.14,-3.14 3.14,-3.14 L 3.14,-3.14 Z"></path></g><g transform="translate(10 32.69140625) rotate(0 20 12.5)"><text x="0" y="17.52" font-family="Virgil, Segoe UI Emoji" font-size="20px" fill="#1e1e1e" text-anchor="start" style="white-space: pre;" direction="ltr" dominant-baseline="alphabetic">输入</text></g><g transform="translate(904.25 24.26171875) rotate(0 20 12.5)"><text x="0" y="17.52" font-family="Virgil, Segoe UI Emoji" font-size="20px" fill="#1e1e1e" text-anchor="start" style="white-space: pre;" direction="ltr" dominant-baseline="alphabetic">输出</text></g></svg>