<svg version="1.1" xmlns="http://www.w3.org/2000/svg" viewBox="0 0 752.62109375 367.937255859375" width="1505.2421875" height="735.87451171875">
  <!-- svg-source:excalidraw -->
  
  <defs>
    <style class="style-fonts">
      @font-face {
        font-family: "Virgil";
        src: url("https://excalidraw.com/Virgil.woff2");
      }
      @font-face {
        font-family: "Cascadia";
        src: url("https://excalidraw.com/Cascadia.woff2");
      }
      @font-face {
        font-family: "Assistant";
        src: url("https://excalidraw.com/Assistant-Regular.woff2");
      }
    </style>
    
  </defs>
  <rect x="0" y="0" width="752.62109375" height="367.937255859375" fill="#ffffff"></rect><g transform="translate(149.20703125 10) rotate(0 -40.068359375 117.25390625)" stroke="none"><path fill="#1e1e1e" d="M 1.28,1.92 Q 1.28,1.92 -0.27,2.89 -1.83,3.86 -3.08,4.78 -4.32,5.69 -6.01,7.08 -7.70,8.47 -9.36,10.00 -11.02,11.54 -11.92,12.47 -12.82,13.40 -13.74,14.70 -14.65,16.00 -15.54,17.47 -16.43,18.93 -16.94,19.87 -17.44,20.81 -17.90,22.07 -18.36,23.34 -18.59,24.42 -18.82,25.50 -19.25,26.99 -19.68,28.49 -20.16,30.06 -20.65,31.62 -21.19,33.37 -21.74,35.12 -22.14,36.90 -22.54,38.68 -22.89,40.56 -23.24,42.44 -23.73,44.96 -24.21,47.48 -24.56,49.70 -24.92,51.92 -24.97,53.43 -25.03,54.94 -25.02,56.33 -25.00,57.71 -24.97,59.07 -24.93,60.42 -24.88,61.58 -24.82,62.75 -24.78,64.01 -24.74,65.27 -24.71,66.57 -24.68,67.87 -24.66,69.19 -24.63,70.52 -24.59,71.67 -24.56,72.81 -24.71,75.43 -24.86,78.04 -24.87,79.74 -24.89,81.43 -24.84,82.74 -24.80,84.05 -24.75,85.20 -24.70,86.34 -24.65,87.42 -24.60,88.50 -24.51,90.32 -24.42,92.14 -24.39,94.30 -24.35,96.47 -24.34,97.63 -24.33,98.79 -24.26,100.43 -24.20,102.08 -24.05,103.31 -23.91,104.54 -23.34,106.10 -22.76,107.66 -22.05,109.78 -21.34,111.89 -20.65,113.80 -19.96,115.71 -19.28,117.25 -18.59,118.79 -17.91,120.20 -17.23,121.61 -16.64,123.05 -16.04,124.49 -15.52,125.87 -15.00,127.25 -14.52,128.61 -14.04,129.96 -13.61,131.61 -13.19,133.27 -12.78,135.78 -12.37,138.29 -12.02,139.92 -11.67,141.54 -11.35,142.82 -11.04,144.09 -10.76,145.21 -10.47,146.34 -10.21,147.40 -9.94,148.46 -9.69,149.49 -9.44,150.53 -8.97,152.30 -8.50,154.08 -8.23,156.29 -7.96,158.51 -7.66,160.02 -7.36,161.53 -7.08,162.75 -6.80,163.98 -6.63,165.21 -6.47,166.43 -6.06,168.42 -5.66,170.41 -5.31,172.12 -4.97,173.84 -4.70,175.18 -4.44,176.53 -4.33,177.81 -4.23,179.08 -4.16,180.62 -4.08,182.15 -4.16,183.31 -4.24,184.47 -4.63,185.98 -5.02,187.49 -5.43,189.11 -5.83,190.73 -6.64,192.34 -7.45,193.96 -8.25,195.53 -9.05,197.11 -9.96,199.39 -10.87,201.67 -11.57,203.03 -12.27,204.39 -13.11,205.83 -13.96,207.28 -14.92,208.38 -15.88,209.48 -16.79,210.48 -17.71,211.48 -18.63,212.48 -19.56,213.48 -20.37,214.36 -21.18,215.25 -22.18,216.16 -23.17,217.08 -24.01,217.75 -24.84,218.42 -26.06,218.99 -27.28,219.56 -28.38,220.12 -29.48,220.68 -31.14,221.40 -32.81,222.12 -33.90,222.58 -34.98,223.05 -36.73,223.62 -38.47,224.19 -42.00,225.43 -45.54,226.68 -48.62,227.60 -51.69,228.53 -54.50,229.31 -57.31,230.09 -60.00,230.82 -62.69,231.56 -65.32,232.29 -67.95,233.01 -71.36,233.87 -74.76,234.72 -77.25,235.34 -79.74,235.97 -79.99,235.99 -80.23,236.02 -80.47,235.96 -80.71,235.91 -80.92,235.78 -81.13,235.65 -81.28,235.46 -81.44,235.27 -81.53,235.04 -81.62,234.81 -81.63,234.57 -81.64,234.32 -81.57,234.09 -81.50,233.85 -81.36,233.65 -81.22,233.45 -81.03,233.30 -80.83,233.15 -80.60,233.08 -80.36,233.00 -80.12,233.00 -79.87,233.01 -79.64,233.09 -79.41,233.17 -79.21,233.32 -79.02,233.47 -78.88,233.68 -78.75,233.88 -78.68,234.12 -78.62,234.35 -78.64,234.60 -78.65,234.84 -78.75,235.07 -78.84,235.30 -79.00,235.48 -79.16,235.67 -79.37,235.79 -79.58,235.92 -79.83,235.97 -80.07,236.02 -80.31,235.99 -80.55,235.96 -80.78,235.86 -81.00,235.75 -81.17,235.58 -81.35,235.41 -81.46,235.19 -81.58,234.97 -81.61,234.73 -81.65,234.49 -81.61,234.24 -81.57,234.00 -81.45,233.79 -81.33,233.57 -81.15,233.40 -80.97,233.24 -80.75,233.14 -80.52,233.04 -80.52,233.04 -80.52,233.04 -78.05,232.34 -75.58,231.64 -72.26,230.70 -68.94,229.76 -66.36,228.90 -63.78,228.04 -61.18,227.13 -58.57,226.22 -55.90,225.22 -53.24,224.21 -50.40,223.02 -47.56,221.83 -44.16,220.18 -40.75,218.53 -39.28,217.80 -37.81,217.07 -35.82,216.11 -33.84,215.15 -32.44,214.41 -31.05,213.67 -30.03,213.08 -29.01,212.48 -27.99,211.93 -26.97,211.37 -26.02,210.58 -25.07,209.79 -24.09,208.86 -23.11,207.93 -22.19,207.03 -21.27,206.13 -20.17,205.00 -19.07,203.88 -18.32,202.85 -17.57,201.83 -17.05,200.68 -16.54,199.53 -16.09,198.02 -15.63,196.52 -15.26,195.35 -14.88,194.19 -14.08,192.60 -13.29,191.00 -12.57,189.49 -11.86,187.98 -11.64,186.92 -11.41,185.85 -11.00,184.00 -10.59,182.15 -10.51,180.62 -10.44,179.09 -10.37,178.00 -10.29,176.92 -10.38,175.65 -10.46,174.39 -10.63,172.85 -10.80,171.32 -10.96,170.25 -11.11,169.17 -11.29,167.04 -11.46,164.90 -11.67,163.67 -11.88,162.43 -12.18,160.92 -12.49,159.41 -13.08,157.29 -13.68,155.16 -13.99,153.33 -14.30,151.50 -14.46,150.44 -14.62,149.39 -14.79,148.32 -14.95,147.24 -15.12,146.10 -15.29,144.96 -15.50,143.68 -15.71,142.39 -16.04,140.78 -16.38,139.16 -17.02,136.81 -17.66,134.45 -18.07,132.97 -18.48,131.49 -18.92,130.16 -19.36,128.83 -19.82,127.51 -20.27,126.18 -20.78,124.88 -21.28,123.57 -21.98,122.13 -22.68,120.69 -23.44,119.13 -24.21,117.56 -25.13,115.77 -26.05,113.98 -27.22,111.85 -28.38,109.71 -28.75,108.68 -29.12,107.64 -29.44,106.51 -29.76,105.39 -29.82,103.73 -29.88,102.08 -29.81,100.43 -29.75,98.79 -29.74,97.63 -29.72,96.47 -29.69,94.30 -29.66,92.14 -29.57,90.32 -29.48,88.50 -29.43,87.42 -29.38,86.34 -29.33,85.20 -29.28,84.05 -29.23,82.74 -29.19,81.43 -29.20,79.74 -29.22,78.04 -29.37,75.43 -29.52,72.81 -29.48,71.66 -29.44,70.51 -29.42,69.19 -29.39,67.87 -29.36,66.56 -29.32,65.25 -29.27,63.98 -29.22,62.71 -29.15,61.54 -29.08,60.36 -29.00,58.96 -28.92,57.57 -28.81,56.11 -28.69,54.65 -28.51,53.07 -28.33,51.49 -28.12,49.20 -27.90,46.92 -27.62,44.38 -27.33,41.83 -27.11,39.86 -26.89,37.90 -26.61,35.91 -26.34,33.92 -25.95,32.09 -25.56,30.26 -25.17,28.70 -24.79,27.14 -24.45,25.72 -24.10,24.31 -23.79,22.98 -23.48,21.66 -22.67,19.95 -21.86,18.24 -21.25,17.27 -20.65,16.30 -19.41,14.72 -18.16,13.15 -16.81,11.83 -15.46,10.51 -14.50,9.75 -13.55,9.00 -11.95,7.28 -10.35,5.57 -8.64,3.85 -6.93,2.14 -5.60,1.17 -4.27,0.20 -2.77,-0.85 -1.28,-1.92 -1.03,-2.04 -0.78,-2.17 -0.51,-2.23 -0.24,-2.29 0.03,-2.29 0.31,-2.28 0.58,-2.21 0.85,-2.14 1.09,-2.01 1.34,-1.87 1.54,-1.69 1.75,-1.50 1.90,-1.27 2.06,-1.04 2.15,-0.77 2.25,-0.51 2.28,-0.23 2.30,0.03 2.27,0.31 2.23,0.58 2.13,0.84 2.02,1.10 1.86,1.33 1.70,1.55 1.49,1.74 1.28,1.92 1.28,1.92 L 1.28,1.92 Z"></path></g><g transform="translate(238.30078125 14.453125) rotate(0 -18.14453125 141.693359375)" stroke="none"><path fill="#1e1e1e" d="M 1.08,2.22 Q 1.08,2.22 -0.73,2.99 -2.55,3.75 -3.54,4.44 -4.52,5.13 -5.50,5.91 -6.48,6.70 -7.30,7.50 -8.12,8.31 -8.84,9.20 -9.56,10.09 -10.46,10.91 -11.37,11.73 -12.26,12.73 -13.16,13.73 -13.89,14.55 -14.63,15.37 -15.63,16.53 -16.62,17.69 -17.13,18.63 -17.63,19.56 -18.26,20.65 -18.90,21.73 -19.57,22.79 -20.24,23.85 -21.09,25.54 -21.93,27.23 -22.51,29.49 -23.08,31.74 -23.40,33.74 -23.71,35.73 -23.95,36.94 -24.19,38.15 -24.44,39.43 -24.69,40.70 -24.81,41.86 -24.92,43.03 -25.16,44.59 -25.40,46.16 -25.68,47.76 -25.96,49.36 -26.51,52.08 -27.06,54.80 -27.35,57.00 -27.64,59.20 -27.76,61.08 -27.88,62.97 -28.00,66.00 -28.12,69.04 -28.21,71.46 -28.29,73.89 -28.34,76.04 -28.40,78.19 -28.38,80.05 -28.36,81.91 -28.32,83.65 -28.28,85.39 -28.33,88.01 -28.39,90.64 -28.37,92.53 -28.36,94.41 -28.29,95.98 -28.23,97.55 -28.18,99.16 -28.14,100.77 -28.10,102.40 -28.07,104.03 -28.05,105.67 -28.02,107.31 -28.11,109.90 -28.20,112.49 -28.08,114.29 -27.96,116.10 -27.72,119.35 -27.47,122.61 -27.24,124.57 -27.01,126.52 -26.72,127.92 -26.42,129.31 -26.13,130.47 -25.83,131.63 -25.05,133.58 -24.26,135.54 -23.91,136.64 -23.55,137.75 -22.79,139.64 -22.03,141.54 -21.45,143.27 -20.87,145.00 -20.26,146.24 -19.64,147.48 -19.20,148.65 -18.76,149.82 -18.25,151.19 -17.74,152.57 -16.52,155.81 -15.30,159.06 -14.22,162.16 -13.13,165.27 -12.10,168.46 -11.07,171.65 -10.05,174.85 -9.03,178.05 -7.84,182.97 -6.65,187.90 -5.87,191.65 -5.08,195.40 -4.46,198.66 -3.84,201.91 -3.43,204.81 -3.02,207.71 -2.56,211.73 -2.11,215.75 -1.91,218.79 -1.72,221.83 -1.64,224.43 -1.57,227.03 -1.54,229.44 -1.51,231.85 -1.50,234.36 -1.49,236.87 -1.63,239.45 -1.78,242.04 -2.13,244.31 -2.48,246.58 -2.91,248.67 -3.34,250.77 -3.79,252.79 -4.25,254.81 -5.15,257.77 -6.05,260.73 -6.85,262.95 -7.65,265.16 -8.33,266.92 -9.00,268.67 -9.63,270.21 -10.26,271.75 -10.85,273.06 -11.44,274.36 -12.00,275.34 -12.57,276.31 -13.42,277.34 -14.28,278.37 -15.88,279.71 -17.47,281.04 -18.87,281.73 -20.27,282.42 -21.73,282.87 -23.20,283.32 -24.80,283.62 -26.40,283.92 -27.93,284.28 -29.46,284.63 -32.67,285.20 -35.88,285.77 -36.27,285.77 -36.66,285.78 -37.03,285.65 -37.40,285.53 -37.72,285.30 -38.03,285.06 -38.25,284.74 -38.48,284.42 -38.58,284.04 -38.69,283.66 -38.67,283.27 -38.66,282.88 -38.51,282.51 -38.37,282.15 -38.12,281.85 -37.87,281.54 -37.53,281.34 -37.20,281.14 -36.81,281.05 -36.43,280.96 -36.04,281.00 -35.65,281.04 -35.29,281.20 -34.94,281.37 -34.65,281.63 -34.36,281.90 -34.18,282.25 -33.99,282.59 -33.93,282.98 -33.86,283.37 -33.92,283.75 -33.98,284.14 -34.16,284.49 -34.34,284.84 -34.63,285.11 -34.91,285.38 -35.26,285.55 -35.62,285.71 -36.01,285.76 -36.40,285.80 -36.78,285.72 -37.17,285.64 -37.50,285.44 -37.84,285.24 -38.10,284.94 -38.35,284.65 -38.50,284.28 -38.65,283.92 -38.67,283.53 -38.70,283.14 -38.59,282.76 -38.49,282.38 -38.27,282.05 -38.06,281.73 -37.74,281.49 -37.43,281.25 -37.06,281.12 -36.69,280.99 -36.69,280.99 -36.69,280.99 -33.65,280.49 -30.61,280.00 -28.97,279.56 -27.34,279.12 -25.95,278.84 -24.56,278.56 -23.44,278.27 -22.32,277.98 -21.26,277.52 -20.20,277.07 -19.24,276.45 -18.28,275.84 -17.39,275.21 -16.49,274.58 -15.54,273.63 -14.59,272.69 -13.88,271.55 -13.18,270.41 -12.43,268.97 -11.68,267.54 -10.92,265.90 -10.17,264.26 -9.40,262.10 -8.63,259.95 -7.76,257.07 -6.90,254.19 -6.42,252.21 -5.95,250.23 -5.52,248.20 -5.10,246.17 -4.77,244.03 -4.43,241.89 -4.30,239.39 -4.16,236.88 -4.18,234.39 -4.20,231.90 -4.24,229.51 -4.28,227.12 -4.38,224.57 -4.47,222.01 -4.68,219.05 -4.89,216.08 -5.37,212.10 -5.85,208.13 -6.29,205.31 -6.73,202.49 -7.41,199.28 -8.09,196.06 -8.94,192.38 -9.80,188.69 -11.06,183.94 -12.31,179.18 -13.47,176.05 -14.63,172.93 -15.84,169.88 -17.04,166.82 -18.35,163.89 -19.67,160.96 -21.24,157.80 -22.81,154.64 -23.80,152.23 -24.78,149.81 -25.42,148.11 -26.06,146.41 -26.43,144.77 -26.81,143.13 -27.14,142.03 -27.48,140.92 -27.98,138.97 -28.48,137.02 -28.81,135.90 -29.14,134.77 -29.42,133.54 -29.69,132.32 -29.83,131.09 -29.96,129.86 -30.10,128.39 -30.25,126.93 -30.51,124.92 -30.78,122.92 -31.15,119.63 -31.52,116.34 -31.66,114.41 -31.79,112.49 -31.88,109.90 -31.97,107.31 -31.94,105.67 -31.92,104.03 -31.89,102.40 -31.85,100.77 -31.81,99.16 -31.76,97.55 -31.70,95.98 -31.63,94.41 -31.62,92.53 -31.60,90.64 -31.65,88.01 -31.71,85.38 -31.67,83.65 -31.62,81.91 -31.60,80.05 -31.57,78.18 -31.62,76.03 -31.67,73.87 -31.72,71.44 -31.78,69.01 -31.85,65.92 -31.91,62.83 -31.90,60.87 -31.89,58.91 -31.86,56.54 -31.84,54.16 -31.66,51.39 -31.48,48.63 -31.34,47.06 -31.20,45.49 -31.09,44.05 -30.99,42.61 -30.91,41.14 -30.84,39.68 -30.67,38.39 -30.50,37.10 -30.19,34.91 -29.89,32.72 -29.75,31.41 -29.61,30.11 -29.36,28.78 -29.10,27.45 -28.50,25.75 -27.91,24.06 -27.19,22.52 -26.47,20.99 -25.66,19.83 -24.85,18.67 -24.20,17.63 -23.55,16.59 -22.65,15.07 -21.74,13.55 -20.69,12.35 -19.65,11.15 -18.60,10.07 -17.55,8.99 -16.54,8.05 -15.52,7.11 -14.63,6.45 -13.75,5.79 -12.54,4.81 -11.34,3.82 -10.38,3.20 -9.41,2.58 -8.24,1.91 -7.06,1.24 -5.80,0.46 -4.53,-0.31 -2.80,-1.27 -1.08,-2.22 -0.79,-2.32 -0.51,-2.42 -0.21,-2.44 0.07,-2.47 0.37,-2.42 0.66,-2.38 0.94,-2.26 1.22,-2.15 1.46,-1.97 1.70,-1.80 1.89,-1.57 2.08,-1.34 2.21,-1.07 2.34,-0.80 2.40,-0.51 2.46,-0.21 2.45,0.07 2.44,0.37 2.36,0.66 2.28,0.95 2.13,1.21 1.99,1.47 1.78,1.68 1.58,1.90 1.33,2.06 1.08,2.22 1.08,2.22 L 1.08,2.22 Z"></path></g><g stroke-linecap="round"><g transform="translate(124.49609375 113.328125) rotate(0 43.115234375 -0.310546875)"><path d="M0.23 0.77 C14.58 0.74, 72.46 -0.55, 86.97 -0.82 M-1.1 0.13 C13.07 0.34, 71.71 0.58, 86.41 0.61" stroke="#1e1e1e" stroke-width="1" fill="none"></path></g></g><mask></mask><g stroke-linecap="round"><g transform="translate(130.703125 138.35546875) rotate(0 39.927734375 -1.142578125)"><path d="M-0.09 -0.19 C13.12 -0.45, 67.12 -1.85, 80.38 -2.16 M-1.59 -1.33 C11.4 -1.33, 66.35 -0.68, 79.71 -0.56" stroke="#1e1e1e" stroke-width="1" fill="none"></path></g></g><mask></mask><g transform="translate(59.8828125 78.04296875) rotate(0 0.00004999999998744897 0.00004999999998744897)" stroke="none"><path fill="#f08c00" d="M 3.14,-3.14 Q 3.14,-3.14 3.55,-2.55 3.97,-1.97 4.18,-1.28 4.40,-0.59 4.38,0.11 4.36,0.83 4.11,1.51 3.86,2.18 3.41,2.74 2.96,3.30 2.36,3.69 1.75,4.08 1.05,4.25 0.36,4.42 -0.35,4.36 -1.07,4.31 -1.73,4.02 -2.39,3.74 -2.92,3.26 -3.46,2.78 -3.81,2.15 -4.16,1.53 -4.30,0.82 -4.43,0.11 -4.34,-0.59 -4.24,-1.30 -3.92,-1.94 -3.60,-2.59 -3.09,-3.09 -2.59,-3.60 -1.94,-3.92 -1.30,-4.24 -0.59,-4.34 0.12,-4.43 0.82,-4.30 1.53,-4.16 2.15,-3.81 2.78,-3.46 3.26,-2.92 3.74,-2.39 4.02,-1.73 4.31,-1.07 4.36,-0.35 4.42,0.36 4.25,1.05 4.07,1.75 3.69,2.36 3.30,2.96 2.74,3.41 2.18,3.86 1.51,4.11 0.83,4.36 0.11,4.38 -0.60,4.40 -1.28,4.18 -1.97,3.97 -2.55,3.55 -3.14,3.13 -3.14,3.14 -3.14,3.14 -3.47,2.71 -3.80,2.29 -4.02,1.80 -4.24,1.32 -4.33,0.79 -4.43,0.26 -4.40,-0.26 -4.36,-0.80 -4.20,-1.31 -4.04,-1.82 -3.77,-2.28 -3.49,-2.73 -3.11,-3.11 -2.73,-3.49 -2.28,-3.77 -1.82,-4.05 -1.31,-4.20 -0.80,-4.36 -0.26,-4.40 0.26,-4.43 0.79,-4.33 1.32,-4.24 1.80,-4.02 2.29,-3.80 2.71,-3.47 3.14,-3.14 3.14,-3.14 L 3.14,-3.14 Z"></path></g><g transform="translate(60.6796875 100.35546875) rotate(0 0.00004999999998744897 0.00004999999998744897)" stroke="none"><path fill="#f08c00" d="M 3.14,-3.14 Q 3.14,-3.14 3.55,-2.55 3.97,-1.97 4.18,-1.28 4.40,-0.59 4.38,0.11 4.36,0.83 4.11,1.51 3.86,2.18 3.41,2.74 2.96,3.30 2.36,3.69 1.75,4.08 1.05,4.25 0.36,4.42 -0.35,4.36 -1.07,4.31 -1.73,4.02 -2.39,3.74 -2.92,3.26 -3.46,2.78 -3.81,2.15 -4.16,1.53 -4.30,0.82 -4.43,0.11 -4.34,-0.59 -4.24,-1.30 -3.92,-1.94 -3.60,-2.59 -3.09,-3.09 -2.59,-3.60 -1.94,-3.92 -1.30,-4.24 -0.59,-4.34 0.12,-4.43 0.82,-4.30 1.53,-4.16 2.15,-3.81 2.78,-3.46 3.26,-2.92 3.74,-2.39 4.02,-1.73 4.31,-1.07 4.36,-0.35 4.42,0.36 4.25,1.05 4.07,1.75 3.69,2.36 3.30,2.96 2.74,3.41 2.18,3.86 1.51,4.11 0.83,4.36 0.11,4.38 -0.60,4.40 -1.28,4.18 -1.97,3.97 -2.55,3.55 -3.14,3.13 -3.14,3.14 -3.14,3.14 -3.47,2.71 -3.80,2.29 -4.02,1.80 -4.24,1.32 -4.33,0.79 -4.43,0.26 -4.40,-0.26 -4.36,-0.80 -4.20,-1.31 -4.04,-1.82 -3.77,-2.28 -3.49,-2.73 -3.11,-3.11 -2.73,-3.49 -2.28,-3.77 -1.82,-4.05 -1.31,-4.20 -0.80,-4.36 -0.26,-4.40 0.26,-4.43 0.79,-4.33 1.32,-4.24 1.80,-4.02 2.29,-3.80 2.71,-3.47 3.14,-3.14 3.14,-3.14 L 3.14,-3.14 Z"></path></g><g transform="translate(79.52734375 89.5703125) rotate(0 0.00004999999998744897 0.00004999999998744897)" stroke="none"><path fill="#f08c00" d="M 3.14,-3.14 Q 3.14,-3.14 3.55,-2.55 3.97,-1.97 4.18,-1.28 4.40,-0.59 4.38,0.11 4.36,0.83 4.11,1.51 3.86,2.18 3.41,2.74 2.96,3.30 2.36,3.69 1.75,4.08 1.05,4.25 0.36,4.42 -0.35,4.36 -1.07,4.31 -1.73,4.02 -2.39,3.74 -2.92,3.26 -3.46,2.78 -3.81,2.15 -4.16,1.53 -4.30,0.82 -4.43,0.11 -4.34,-0.59 -4.24,-1.30 -3.92,-1.94 -3.60,-2.59 -3.09,-3.09 -2.59,-3.60 -1.94,-3.92 -1.30,-4.24 -0.59,-4.34 0.12,-4.43 0.82,-4.30 1.53,-4.16 2.15,-3.81 2.78,-3.46 3.26,-2.92 3.74,-2.39 4.02,-1.73 4.31,-1.07 4.36,-0.35 4.42,0.36 4.25,1.05 4.07,1.75 3.69,2.36 3.30,2.96 2.74,3.41 2.18,3.86 1.51,4.11 0.83,4.36 0.11,4.38 -0.60,4.40 -1.28,4.18 -1.97,3.97 -2.55,3.55 -3.14,3.13 -3.14,3.14 -3.14,3.14 -3.47,2.71 -3.80,2.29 -4.02,1.80 -4.24,1.32 -4.33,0.79 -4.43,0.26 -4.40,-0.26 -4.36,-0.80 -4.20,-1.31 -4.04,-1.82 -3.77,-2.28 -3.49,-2.73 -3.11,-3.11 -2.73,-3.49 -2.28,-3.77 -1.82,-4.05 -1.31,-4.20 -0.80,-4.36 -0.26,-4.40 0.26,-4.43 0.79,-4.33 1.32,-4.24 1.80,-4.02 2.29,-3.80 2.71,-3.47 3.14,-3.14 3.14,-3.14 L 3.14,-3.14 Z"></path></g><g transform="translate(88.2109375 105.90234375) rotate(0 0.00004999999998744897 0.00004999999998744897)" stroke="none"><path fill="#f08c00" d="M 3.14,-3.14 Q 3.14,-3.14 3.55,-2.55 3.97,-1.97 4.18,-1.28 4.40,-0.59 4.38,0.11 4.36,0.83 4.11,1.51 3.86,2.18 3.41,2.74 2.96,3.30 2.36,3.69 1.75,4.08 1.05,4.25 0.36,4.42 -0.35,4.36 -1.07,4.31 -1.73,4.02 -2.39,3.74 -2.92,3.26 -3.46,2.78 -3.81,2.15 -4.16,1.53 -4.30,0.82 -4.43,0.11 -4.34,-0.59 -4.24,-1.30 -3.92,-1.94 -3.60,-2.59 -3.09,-3.09 -2.59,-3.60 -1.94,-3.92 -1.30,-4.24 -0.59,-4.34 0.12,-4.43 0.82,-4.30 1.53,-4.16 2.15,-3.81 2.78,-3.46 3.26,-2.92 3.74,-2.39 4.02,-1.73 4.31,-1.07 4.36,-0.35 4.42,0.36 4.25,1.05 4.07,1.75 3.69,2.36 3.30,2.96 2.74,3.41 2.18,3.86 1.51,4.11 0.83,4.36 0.11,4.38 -0.60,4.40 -1.28,4.18 -1.97,3.97 -2.55,3.55 -3.14,3.13 -3.14,3.14 -3.14,3.14 -3.47,2.71 -3.80,2.29 -4.02,1.80 -4.24,1.32 -4.33,0.79 -4.43,0.26 -4.40,-0.26 -4.36,-0.80 -4.20,-1.31 -4.04,-1.82 -3.77,-2.28 -3.49,-2.73 -3.11,-3.11 -2.73,-3.49 -2.28,-3.77 -1.82,-4.05 -1.31,-4.20 -0.80,-4.36 -0.26,-4.40 0.26,-4.43 0.79,-4.33 1.32,-4.24 1.80,-4.02 2.29,-3.80 2.71,-3.47 3.14,-3.14 3.14,-3.14 L 3.14,-3.14 Z"></path></g><g transform="translate(65.1875 130.8515625) rotate(0 0.00004999999998744897 0.00004999999998744897)" stroke="none"><path fill="#f08c00" d="M 3.14,-3.14 Q 3.14,-3.14 3.55,-2.55 3.97,-1.97 4.18,-1.28 4.40,-0.59 4.38,0.11 4.36,0.83 4.11,1.51 3.86,2.18 3.41,2.74 2.96,3.30 2.36,3.69 1.75,4.08 1.05,4.25 0.36,4.42 -0.35,4.36 -1.07,4.31 -1.73,4.02 -2.39,3.74 -2.92,3.26 -3.46,2.78 -3.81,2.15 -4.16,1.53 -4.30,0.82 -4.43,0.11 -4.34,-0.59 -4.24,-1.30 -3.92,-1.94 -3.60,-2.59 -3.09,-3.09 -2.59,-3.60 -1.94,-3.92 -1.30,-4.24 -0.59,-4.34 0.12,-4.43 0.82,-4.30 1.53,-4.16 2.15,-3.81 2.78,-3.46 3.26,-2.92 3.74,-2.39 4.02,-1.73 4.31,-1.07 4.36,-0.35 4.42,0.36 4.25,1.05 4.07,1.75 3.69,2.36 3.30,2.96 2.74,3.41 2.18,3.86 1.51,4.11 0.83,4.36 0.11,4.38 -0.60,4.40 -1.28,4.18 -1.97,3.97 -2.55,3.55 -3.14,3.13 -3.14,3.14 -3.14,3.14 -3.47,2.71 -3.80,2.29 -4.02,1.80 -4.24,1.32 -4.33,0.79 -4.43,0.26 -4.40,-0.26 -4.36,-0.80 -4.20,-1.31 -4.04,-1.82 -3.77,-2.28 -3.49,-2.73 -3.11,-3.11 -2.73,-3.49 -2.28,-3.77 -1.82,-4.05 -1.31,-4.20 -0.80,-4.36 -0.26,-4.40 0.26,-4.43 0.79,-4.33 1.32,-4.24 1.80,-4.02 2.29,-3.80 2.71,-3.47 3.14,-3.14 3.14,-3.14 L 3.14,-3.14 Z"></path></g><g transform="translate(106.5234375 148.546875) rotate(0 0.00004999999998744897 0.00004999999998744897)" stroke="none"><path fill="#f08c00" d="M 3.14,-3.14 Q 3.14,-3.14 3.55,-2.55 3.97,-1.97 4.18,-1.28 4.40,-0.59 4.38,0.11 4.36,0.83 4.11,1.51 3.86,2.18 3.41,2.74 2.96,3.30 2.36,3.69 1.75,4.08 1.05,4.25 0.36,4.42 -0.35,4.36 -1.07,4.31 -1.73,4.02 -2.39,3.74 -2.92,3.26 -3.46,2.78 -3.81,2.15 -4.16,1.53 -4.30,0.82 -4.43,0.11 -4.34,-0.59 -4.24,-1.30 -3.92,-1.94 -3.60,-2.59 -3.09,-3.09 -2.59,-3.60 -1.94,-3.92 -1.30,-4.24 -0.59,-4.34 0.12,-4.43 0.82,-4.30 1.53,-4.16 2.15,-3.81 2.78,-3.46 3.26,-2.92 3.74,-2.39 4.02,-1.73 4.31,-1.07 4.36,-0.35 4.42,0.36 4.25,1.05 4.07,1.75 3.69,2.36 3.30,2.96 2.74,3.41 2.18,3.86 1.51,4.11 0.83,4.36 0.11,4.38 -0.60,4.40 -1.28,4.18 -1.97,3.97 -2.55,3.55 -3.14,3.13 -3.14,3.14 -3.14,3.14 -3.47,2.71 -3.80,2.29 -4.02,1.80 -4.24,1.32 -4.33,0.79 -4.43,0.26 -4.40,-0.26 -4.36,-0.80 -4.20,-1.31 -4.04,-1.82 -3.77,-2.28 -3.49,-2.73 -3.11,-3.11 -2.73,-3.49 -2.28,-3.77 -1.82,-4.05 -1.31,-4.20 -0.80,-4.36 -0.26,-4.40 0.26,-4.43 0.79,-4.33 1.32,-4.24 1.80,-4.02 2.29,-3.80 2.71,-3.47 3.14,-3.14 3.14,-3.14 L 3.14,-3.14 Z"></path></g><g transform="translate(104.11328125 120.5546875) rotate(0 0.00004999999998744897 0.00004999999998744897)" stroke="none"><path fill="#f08c00" d="M 3.14,-3.14 Q 3.14,-3.14 3.55,-2.55 3.97,-1.97 4.18,-1.28 4.40,-0.59 4.38,0.11 4.36,0.83 4.11,1.51 3.86,2.18 3.41,2.74 2.96,3.30 2.36,3.69 1.75,4.08 1.05,4.25 0.36,4.42 -0.35,4.36 -1.07,4.31 -1.73,4.02 -2.39,3.74 -2.92,3.26 -3.46,2.78 -3.81,2.15 -4.16,1.53 -4.30,0.82 -4.43,0.11 -4.34,-0.59 -4.24,-1.30 -3.92,-1.94 -3.60,-2.59 -3.09,-3.09 -2.59,-3.60 -1.94,-3.92 -1.30,-4.24 -0.59,-4.34 0.12,-4.43 0.82,-4.30 1.53,-4.16 2.15,-3.81 2.78,-3.46 3.26,-2.92 3.74,-2.39 4.02,-1.73 4.31,-1.07 4.36,-0.35 4.42,0.36 4.25,1.05 4.07,1.75 3.69,2.36 3.30,2.96 2.74,3.41 2.18,3.86 1.51,4.11 0.83,4.36 0.11,4.38 -0.60,4.40 -1.28,4.18 -1.97,3.97 -2.55,3.55 -3.14,3.13 -3.14,3.14 -3.14,3.14 -3.47,2.71 -3.80,2.29 -4.02,1.80 -4.24,1.32 -4.33,0.79 -4.43,0.26 -4.40,-0.26 -4.36,-0.80 -4.20,-1.31 -4.04,-1.82 -3.77,-2.28 -3.49,-2.73 -3.11,-3.11 -2.73,-3.49 -2.28,-3.77 -1.82,-4.05 -1.31,-4.20 -0.80,-4.36 -0.26,-4.40 0.26,-4.43 0.79,-4.33 1.32,-4.24 1.80,-4.02 2.29,-3.80 2.71,-3.47 3.14,-3.14 3.14,-3.14 L 3.14,-3.14 Z"></path></g><g transform="translate(92.65234375 136.98046875) rotate(0 0.00004999999998744897 0.00004999999998744897)" stroke="none"><path fill="#f08c00" d="M 3.14,-3.14 Q 3.14,-3.14 3.55,-2.55 3.97,-1.97 4.18,-1.28 4.40,-0.59 4.38,0.11 4.36,0.83 4.11,1.51 3.86,2.18 3.41,2.74 2.96,3.30 2.36,3.69 1.75,4.08 1.05,4.25 0.36,4.42 -0.35,4.36 -1.07,4.31 -1.73,4.02 -2.39,3.74 -2.92,3.26 -3.46,2.78 -3.81,2.15 -4.16,1.53 -4.30,0.82 -4.43,0.11 -4.34,-0.59 -4.24,-1.30 -3.92,-1.94 -3.60,-2.59 -3.09,-3.09 -2.59,-3.60 -1.94,-3.92 -1.30,-4.24 -0.59,-4.34 0.12,-4.43 0.82,-4.30 1.53,-4.16 2.15,-3.81 2.78,-3.46 3.26,-2.92 3.74,-2.39 4.02,-1.73 4.31,-1.07 4.36,-0.35 4.42,0.36 4.25,1.05 4.07,1.75 3.69,2.36 3.30,2.96 2.74,3.41 2.18,3.86 1.51,4.11 0.83,4.36 0.11,4.38 -0.60,4.40 -1.28,4.18 -1.97,3.97 -2.55,3.55 -3.14,3.13 -3.14,3.14 -3.14,3.14 -3.47,2.71 -3.80,2.29 -4.02,1.80 -4.24,1.32 -4.33,0.79 -4.43,0.26 -4.40,-0.26 -4.36,-0.80 -4.20,-1.31 -4.04,-1.82 -3.77,-2.28 -3.49,-2.73 -3.11,-3.11 -2.73,-3.49 -2.28,-3.77 -1.82,-4.05 -1.31,-4.20 -0.80,-4.36 -0.26,-4.40 0.26,-4.43 0.79,-4.33 1.32,-4.24 1.80,-4.02 2.29,-3.80 2.71,-3.47 3.14,-3.14 3.14,-3.14 L 3.14,-3.14 Z"></path></g><g transform="translate(71.6015625 150.80859375) rotate(0 0.00004999999998744897 0.00004999999998744897)" stroke="none"><path fill="#f08c00" d="M 3.14,-3.14 Q 3.14,-3.14 3.55,-2.55 3.97,-1.97 4.18,-1.28 4.40,-0.59 4.38,0.11 4.36,0.83 4.11,1.51 3.86,2.18 3.41,2.74 2.96,3.30 2.36,3.69 1.75,4.08 1.05,4.25 0.36,4.42 -0.35,4.36 -1.07,4.31 -1.73,4.02 -2.39,3.74 -2.92,3.26 -3.46,2.78 -3.81,2.15 -4.16,1.53 -4.30,0.82 -4.43,0.11 -4.34,-0.59 -4.24,-1.30 -3.92,-1.94 -3.60,-2.59 -3.09,-3.09 -2.59,-3.60 -1.94,-3.92 -1.30,-4.24 -0.59,-4.34 0.12,-4.43 0.82,-4.30 1.53,-4.16 2.15,-3.81 2.78,-3.46 3.26,-2.92 3.74,-2.39 4.02,-1.73 4.31,-1.07 4.36,-0.35 4.42,0.36 4.25,1.05 4.07,1.75 3.69,2.36 3.30,2.96 2.74,3.41 2.18,3.86 1.51,4.11 0.83,4.36 0.11,4.38 -0.60,4.40 -1.28,4.18 -1.97,3.97 -2.55,3.55 -3.14,3.13 -3.14,3.14 -3.14,3.14 -3.47,2.71 -3.80,2.29 -4.02,1.80 -4.24,1.32 -4.33,0.79 -4.43,0.26 -4.40,-0.26 -4.36,-0.80 -4.20,-1.31 -4.04,-1.82 -3.77,-2.28 -3.49,-2.73 -3.11,-3.11 -2.73,-3.49 -2.28,-3.77 -1.82,-4.05 -1.31,-4.20 -0.80,-4.36 -0.26,-4.40 0.26,-4.43 0.79,-4.33 1.32,-4.24 1.80,-4.02 2.29,-3.80 2.71,-3.47 3.14,-3.14 3.14,-3.14 L 3.14,-3.14 Z"></path></g><g transform="translate(104.73046875 174.37109375) rotate(0 0.00004999999998744897 0.00004999999998744897)" stroke="none"><path fill="#f08c00" d="M 3.14,-3.14 Q 3.14,-3.14 3.55,-2.55 3.97,-1.97 4.18,-1.28 4.40,-0.59 4.38,0.11 4.36,0.83 4.11,1.51 3.86,2.18 3.41,2.74 2.96,3.30 2.36,3.69 1.75,4.08 1.05,4.25 0.36,4.42 -0.35,4.36 -1.07,4.31 -1.73,4.02 -2.39,3.74 -2.92,3.26 -3.46,2.78 -3.81,2.15 -4.16,1.53 -4.30,0.82 -4.43,0.11 -4.34,-0.59 -4.24,-1.30 -3.92,-1.94 -3.60,-2.59 -3.09,-3.09 -2.59,-3.60 -1.94,-3.92 -1.30,-4.24 -0.59,-4.34 0.12,-4.43 0.82,-4.30 1.53,-4.16 2.15,-3.81 2.78,-3.46 3.26,-2.92 3.74,-2.39 4.02,-1.73 4.31,-1.07 4.36,-0.35 4.42,0.36 4.25,1.05 4.07,1.75 3.69,2.36 3.30,2.96 2.74,3.41 2.18,3.86 1.51,4.11 0.83,4.36 0.11,4.38 -0.60,4.40 -1.28,4.18 -1.97,3.97 -2.55,3.55 -3.14,3.13 -3.14,3.14 -3.14,3.14 -3.47,2.71 -3.80,2.29 -4.02,1.80 -4.24,1.32 -4.33,0.79 -4.43,0.26 -4.40,-0.26 -4.36,-0.80 -4.20,-1.31 -4.04,-1.82 -3.77,-2.28 -3.49,-2.73 -3.11,-3.11 -2.73,-3.49 -2.28,-3.77 -1.82,-4.05 -1.31,-4.20 -0.80,-4.36 -0.26,-4.40 0.26,-4.43 0.79,-4.33 1.32,-4.24 1.80,-4.02 2.29,-3.80 2.71,-3.47 3.14,-3.14 3.14,-3.14 L 3.14,-3.14 Z"></path></g><g transform="translate(59.7421875 180.4453125) rotate(0 0.00004999999998744897 0.00004999999998744897)" stroke="none"><path fill="#f08c00" d="M 3.14,-3.14 Q 3.14,-3.14 3.55,-2.55 3.97,-1.97 4.18,-1.28 4.40,-0.59 4.38,0.11 4.36,0.83 4.11,1.51 3.86,2.18 3.41,2.74 2.96,3.30 2.36,3.69 1.75,4.08 1.05,4.25 0.36,4.42 -0.35,4.36 -1.07,4.31 -1.73,4.02 -2.39,3.74 -2.92,3.26 -3.46,2.78 -3.81,2.15 -4.16,1.53 -4.30,0.82 -4.43,0.11 -4.34,-0.59 -4.24,-1.30 -3.92,-1.94 -3.60,-2.59 -3.09,-3.09 -2.59,-3.60 -1.94,-3.92 -1.30,-4.24 -0.59,-4.34 0.12,-4.43 0.82,-4.30 1.53,-4.16 2.15,-3.81 2.78,-3.46 3.26,-2.92 3.74,-2.39 4.02,-1.73 4.31,-1.07 4.36,-0.35 4.42,0.36 4.25,1.05 4.07,1.75 3.69,2.36 3.30,2.96 2.74,3.41 2.18,3.86 1.51,4.11 0.83,4.36 0.11,4.38 -0.60,4.40 -1.28,4.18 -1.97,3.97 -2.55,3.55 -3.14,3.13 -3.14,3.14 -3.14,3.14 -3.47,2.71 -3.80,2.29 -4.02,1.80 -4.24,1.32 -4.33,0.79 -4.43,0.26 -4.40,-0.26 -4.36,-0.80 -4.20,-1.31 -4.04,-1.82 -3.77,-2.28 -3.49,-2.73 -3.11,-3.11 -2.73,-3.49 -2.28,-3.77 -1.82,-4.05 -1.31,-4.20 -0.80,-4.36 -0.26,-4.40 0.26,-4.43 0.79,-4.33 1.32,-4.24 1.80,-4.02 2.29,-3.80 2.71,-3.47 3.14,-3.14 3.14,-3.14 L 3.14,-3.14 Z"></path></g><g transform="translate(81.69921875 164.73828125) rotate(0 0.00004999999998744897 0.00004999999998744897)" stroke="none"><path fill="#f08c00" d="M 3.14,-3.14 Q 3.14,-3.14 3.55,-2.55 3.97,-1.97 4.18,-1.28 4.40,-0.59 4.38,0.11 4.36,0.83 4.11,1.51 3.86,2.18 3.41,2.74 2.96,3.30 2.36,3.69 1.75,4.08 1.05,4.25 0.36,4.42 -0.35,4.36 -1.07,4.31 -1.73,4.02 -2.39,3.74 -2.92,3.26 -3.46,2.78 -3.81,2.15 -4.16,1.53 -4.30,0.82 -4.43,0.11 -4.34,-0.59 -4.24,-1.30 -3.92,-1.94 -3.60,-2.59 -3.09,-3.09 -2.59,-3.60 -1.94,-3.92 -1.30,-4.24 -0.59,-4.34 0.12,-4.43 0.82,-4.30 1.53,-4.16 2.15,-3.81 2.78,-3.46 3.26,-2.92 3.74,-2.39 4.02,-1.73 4.31,-1.07 4.36,-0.35 4.42,0.36 4.25,1.05 4.07,1.75 3.69,2.36 3.30,2.96 2.74,3.41 2.18,3.86 1.51,4.11 0.83,4.36 0.11,4.38 -0.60,4.40 -1.28,4.18 -1.97,3.97 -2.55,3.55 -3.14,3.13 -3.14,3.14 -3.14,3.14 -3.47,2.71 -3.80,2.29 -4.02,1.80 -4.24,1.32 -4.33,0.79 -4.43,0.26 -4.40,-0.26 -4.36,-0.80 -4.20,-1.31 -4.04,-1.82 -3.77,-2.28 -3.49,-2.73 -3.11,-3.11 -2.73,-3.49 -2.28,-3.77 -1.82,-4.05 -1.31,-4.20 -0.80,-4.36 -0.26,-4.40 0.26,-4.43 0.79,-4.33 1.32,-4.24 1.80,-4.02 2.29,-3.80 2.71,-3.47 3.14,-3.14 3.14,-3.14 L 3.14,-3.14 Z"></path></g><g transform="translate(45.62890625 142.77734375) rotate(0 0.00004999999998744897 0.00004999999998744897)" stroke="none"><path fill="#f08c00" d="M 3.14,-3.14 Q 3.14,-3.14 3.55,-2.55 3.97,-1.97 4.18,-1.28 4.40,-0.59 4.38,0.11 4.36,0.83 4.11,1.51 3.86,2.18 3.41,2.74 2.96,3.30 2.36,3.69 1.75,4.08 1.05,4.25 0.36,4.42 -0.35,4.36 -1.07,4.31 -1.73,4.02 -2.39,3.74 -2.92,3.26 -3.46,2.78 -3.81,2.15 -4.16,1.53 -4.30,0.82 -4.43,0.11 -4.34,-0.59 -4.24,-1.30 -3.92,-1.94 -3.60,-2.59 -3.09,-3.09 -2.59,-3.60 -1.94,-3.92 -1.30,-4.24 -0.59,-4.34 0.12,-4.43 0.82,-4.30 1.53,-4.16 2.15,-3.81 2.78,-3.46 3.26,-2.92 3.74,-2.39 4.02,-1.73 4.31,-1.07 4.36,-0.35 4.42,0.36 4.25,1.05 4.07,1.75 3.69,2.36 3.30,2.96 2.74,3.41 2.18,3.86 1.51,4.11 0.83,4.36 0.11,4.38 -0.60,4.40 -1.28,4.18 -1.97,3.97 -2.55,3.55 -3.14,3.13 -3.14,3.14 -3.14,3.14 -3.47,2.71 -3.80,2.29 -4.02,1.80 -4.24,1.32 -4.33,0.79 -4.43,0.26 -4.40,-0.26 -4.36,-0.80 -4.20,-1.31 -4.04,-1.82 -3.77,-2.28 -3.49,-2.73 -3.11,-3.11 -2.73,-3.49 -2.28,-3.77 -1.82,-4.05 -1.31,-4.20 -0.80,-4.36 -0.26,-4.40 0.26,-4.43 0.79,-4.33 1.32,-4.24 1.80,-4.02 2.29,-3.80 2.71,-3.47 3.14,-3.14 3.14,-3.14 L 3.14,-3.14 Z"></path></g><g transform="translate(76.45703125 116.06640625) rotate(0 0.00004999999998744897 0.00004999999998744897)" stroke="none"><path fill="#f08c00" d="M 3.14,-3.14 Q 3.14,-3.14 3.55,-2.55 3.97,-1.97 4.18,-1.28 4.40,-0.59 4.38,0.11 4.36,0.83 4.11,1.51 3.86,2.18 3.41,2.74 2.96,3.30 2.36,3.69 1.75,4.08 1.05,4.25 0.36,4.42 -0.35,4.36 -1.07,4.31 -1.73,4.02 -2.39,3.74 -2.92,3.26 -3.46,2.78 -3.81,2.15 -4.16,1.53 -4.30,0.82 -4.43,0.11 -4.34,-0.59 -4.24,-1.30 -3.92,-1.94 -3.60,-2.59 -3.09,-3.09 -2.59,-3.60 -1.94,-3.92 -1.30,-4.24 -0.59,-4.34 0.12,-4.43 0.82,-4.30 1.53,-4.16 2.15,-3.81 2.78,-3.46 3.26,-2.92 3.74,-2.39 4.02,-1.73 4.31,-1.07 4.36,-0.35 4.42,0.36 4.25,1.05 4.07,1.75 3.69,2.36 3.30,2.96 2.74,3.41 2.18,3.86 1.51,4.11 0.83,4.36 0.11,4.38 -0.60,4.40 -1.28,4.18 -1.97,3.97 -2.55,3.55 -3.14,3.13 -3.14,3.14 -3.14,3.14 -3.47,2.71 -3.80,2.29 -4.02,1.80 -4.24,1.32 -4.33,0.79 -4.43,0.26 -4.40,-0.26 -4.36,-0.80 -4.20,-1.31 -4.04,-1.82 -3.77,-2.28 -3.49,-2.73 -3.11,-3.11 -2.73,-3.49 -2.28,-3.77 -1.82,-4.05 -1.31,-4.20 -0.80,-4.36 -0.26,-4.40 0.26,-4.43 0.79,-4.33 1.32,-4.24 1.80,-4.02 2.29,-3.80 2.71,-3.47 3.14,-3.14 3.14,-3.14 L 3.14,-3.14 Z"></path></g><g transform="translate(103.734375 84.40234375) rotate(0 0.00004999999998744897 0.00004999999998744897)" stroke="none"><path fill="#f08c00" d="M 3.14,-3.14 Q 3.14,-3.14 3.55,-2.55 3.97,-1.97 4.18,-1.28 4.40,-0.59 4.38,0.11 4.36,0.83 4.11,1.51 3.86,2.18 3.41,2.74 2.96,3.30 2.36,3.69 1.75,4.08 1.05,4.25 0.36,4.42 -0.35,4.36 -1.07,4.31 -1.73,4.02 -2.39,3.74 -2.92,3.26 -3.46,2.78 -3.81,2.15 -4.16,1.53 -4.30,0.82 -4.43,0.11 -4.34,-0.59 -4.24,-1.30 -3.92,-1.94 -3.60,-2.59 -3.09,-3.09 -2.59,-3.60 -1.94,-3.92 -1.30,-4.24 -0.59,-4.34 0.12,-4.43 0.82,-4.30 1.53,-4.16 2.15,-3.81 2.78,-3.46 3.26,-2.92 3.74,-2.39 4.02,-1.73 4.31,-1.07 4.36,-0.35 4.42,0.36 4.25,1.05 4.07,1.75 3.69,2.36 3.30,2.96 2.74,3.41 2.18,3.86 1.51,4.11 0.83,4.36 0.11,4.38 -0.60,4.40 -1.28,4.18 -1.97,3.97 -2.55,3.55 -3.14,3.13 -3.14,3.14 -3.14,3.14 -3.47,2.71 -3.80,2.29 -4.02,1.80 -4.24,1.32 -4.33,0.79 -4.43,0.26 -4.40,-0.26 -4.36,-0.80 -4.20,-1.31 -4.04,-1.82 -3.77,-2.28 -3.49,-2.73 -3.11,-3.11 -2.73,-3.49 -2.28,-3.77 -1.82,-4.05 -1.31,-4.20 -0.80,-4.36 -0.26,-4.40 0.26,-4.43 0.79,-4.33 1.32,-4.24 1.80,-4.02 2.29,-3.80 2.71,-3.47 3.14,-3.14 3.14,-3.14 L 3.14,-3.14 Z"></path></g><g transform="translate(122.37890625 145.61328125) rotate(0 0.00004999999998744897 0.00004999999998744897)" stroke="none"><path fill="#f08c00" d="M 3.14,-3.14 Q 3.14,-3.14 3.55,-2.55 3.97,-1.97 4.18,-1.28 4.40,-0.59 4.38,0.11 4.36,0.83 4.11,1.51 3.86,2.18 3.41,2.74 2.96,3.30 2.36,3.69 1.75,4.08 1.05,4.25 0.36,4.42 -0.35,4.36 -1.07,4.31 -1.73,4.02 -2.39,3.74 -2.92,3.26 -3.46,2.78 -3.81,2.15 -4.16,1.53 -4.30,0.82 -4.43,0.11 -4.34,-0.59 -4.24,-1.30 -3.92,-1.94 -3.60,-2.59 -3.09,-3.09 -2.59,-3.60 -1.94,-3.92 -1.30,-4.24 -0.59,-4.34 0.12,-4.43 0.82,-4.30 1.53,-4.16 2.15,-3.81 2.78,-3.46 3.26,-2.92 3.74,-2.39 4.02,-1.73 4.31,-1.07 4.36,-0.35 4.42,0.36 4.25,1.05 4.07,1.75 3.69,2.36 3.30,2.96 2.74,3.41 2.18,3.86 1.51,4.11 0.83,4.36 0.11,4.38 -0.60,4.40 -1.28,4.18 -1.97,3.97 -2.55,3.55 -3.14,3.13 -3.14,3.14 -3.14,3.14 -3.47,2.71 -3.80,2.29 -4.02,1.80 -4.24,1.32 -4.33,0.79 -4.43,0.26 -4.40,-0.26 -4.36,-0.80 -4.20,-1.31 -4.04,-1.82 -3.77,-2.28 -3.49,-2.73 -3.11,-3.11 -2.73,-3.49 -2.28,-3.77 -1.82,-4.05 -1.31,-4.20 -0.80,-4.36 -0.26,-4.40 0.26,-4.43 0.79,-4.33 1.32,-4.24 1.80,-4.02 2.29,-3.80 2.71,-3.47 3.14,-3.14 3.14,-3.14 L 3.14,-3.14 Z"></path></g><g stroke-linecap="round" transform="translate(453.3010400571924 45.61328125) rotate(0 7.529224411523842 9.152053072947353)"><path d="M9.49 -0.23 C11 0.22, 12.14 2.46, 13.05 4.07 C13.96 5.68, 14.9 7.51, 14.95 9.42 C15.01 11.33, 14.37 14.02, 13.38 15.54 C12.39 17.05, 10.7 18.36, 9.01 18.53 C7.31 18.71, 4.6 17.69, 3.21 16.59 C1.83 15.5, 1.07 13.72, 0.7 11.97 C0.33 10.21, 0.37 7.94, 0.99 6.06 C1.62 4.18, 3.09 1.68, 4.44 0.71 C5.78 -0.26, 8.14 0.28, 9.04 0.24 C9.93 0.21, 9.72 0.29, 9.8 0.5 M7.99 0.31 C9.39 0.17, 10.9 0.59, 12.13 1.91 C13.36 3.24, 15.11 6.1, 15.39 8.26 C15.68 10.41, 14.74 13.23, 13.84 14.83 C12.93 16.43, 11.61 17.32, 9.97 17.84 C8.34 18.36, 5.51 18.76, 4.05 17.97 C2.58 17.18, 1.8 14.99, 1.17 13.12 C0.54 11.25, 0 8.63, 0.28 6.74 C0.56 4.85, 1.67 2.85, 2.87 1.78 C4.08 0.71, 6.69 0.47, 7.49 0.31 C8.29 0.16, 7.47 0.79, 7.68 0.87" stroke="#1e1e1e" stroke-width="2" fill="none"></path></g><g stroke-linecap="round"><g transform="translate(447.4019246197273 77.71785316931943) rotate(0 15.40751296599933 -0.38460600392318156)"><path d="M0.24 -0.51 C5.32 -0.59, 25.32 -0.51, 30.41 -0.51 M-0.3 0.42 C4.95 0.18, 26.32 -1.03, 31.43 -1.34" stroke="#1e1e1e" stroke-width="2" fill="none"></path></g></g><mask></mask><g stroke-linecap="round"><g transform="translate(460.43731013883155 65.58314129043725) rotate(0 0.30585974018941897 15.763613426102864)"><path d="M-0.31 -0.19 C-0.27 5.11, 0.16 26.09, 0.35 31.37 M0.54 -0.77 C0.74 4.66, 1.44 26.51, 1.44 31.98" stroke="#1e1e1e" stroke-width="2" fill="none"></path></g></g><mask></mask><g stroke-linecap="round"><g transform="translate(461.0490296192104 97.11036814264304) rotate(0 -6.03215756660569 6.507777780668306)"><path d="M0.21 0.22 C-1.79 2.33, -9.79 10.93, -11.88 12.99 M-0.35 -0.14 C-2.41 2.04, -10.13 11.49, -12.22 13.68" stroke="#1e1e1e" stroke-width="2" fill="none"></path></g></g><mask></mask><g stroke-linecap="round"><g transform="translate(462.29578524177623 97.32316602236466) rotate(0 5.198929799049324 10.486400433497153)"><path d="M-0.45 0.17 C1.29 3.68, 8.67 17.49, 10.41 21.05 M0.32 -0.22 C2 3.4, 8.18 18.3, 9.98 21.79" stroke="#1e1e1e" stroke-width="2" fill="none"></path></g></g><mask></mask><g stroke-linecap="round" transform="translate(453.2515096885404 170.92545041587368) rotate(0 7.529224411523842 9.152053072947353)"><path d="M5.85 0.3 C7.35 -0.21, 9.45 0.02, 10.82 0.96 C12.2 1.9, 13.49 4.14, 14.11 5.95 C14.74 7.76, 15.08 10.01, 14.57 11.82 C14.05 13.62, 12.33 15.8, 11.03 16.79 C9.72 17.78, 8.24 18.06, 6.73 17.75 C5.21 17.43, 3.02 16.24, 1.93 14.9 C0.85 13.55, 0.23 11.55, 0.22 9.67 C0.21 7.79, 0.83 5.28, 1.85 3.63 C2.87 1.97, 5.41 0.32, 6.34 -0.27 C7.28 -0.85, 7.33 -0.11, 7.46 0.14 M7.76 0.18 C9.25 0.06, 11.2 1.21, 12.49 2.43 C13.78 3.65, 15.18 5.54, 15.49 7.51 C15.8 9.47, 15.17 12.53, 14.35 14.22 C13.52 15.91, 12.25 17.17, 10.53 17.64 C8.82 18.1, 5.64 17.59, 4.06 17.02 C2.48 16.45, 1.72 15.93, 1.05 14.21 C0.39 12.48, -0.2 8.68, 0.08 6.65 C0.35 4.63, 1.33 3.24, 2.69 2.07 C4.06 0.9, 7.44 -0.15, 8.28 -0.37 C9.11 -0.59, 7.74 0.52, 7.72 0.74" stroke="#1e1e1e" stroke-width="2" fill="none"></path></g><g stroke-linecap="round"><g transform="translate(447.35239425107534 203.03002233519305) rotate(0 15.40751296599933 -0.38460600392318156)"><path d="M-0.39 -0.54 C4.71 -0.83, 25.7 -1.03, 30.93 -1.15 M0.41 0.37 C5.42 0.38, 25.5 -0.43, 30.56 -0.64" stroke="#1e1e1e" stroke-width="2" fill="none"></path></g></g><mask></mask><g stroke-linecap="round"><g transform="translate(460.3877797701796 190.89531045631088) rotate(0 0.30585974018941897 15.763613426102864)"><path d="M0.11 -0.38 C0.31 4.88, 0.74 25.81, 0.78 31.04 M-0.49 0.61 C-0.32 5.98, 0.38 26.36, 0.43 31.48" stroke="#1e1e1e" stroke-width="2" fill="none"></path></g></g><mask></mask><g stroke-linecap="round"><g transform="translate(460.99949925055853 222.42253730851667) rotate(0 -6.03215756660569 6.507777780668306)"><path d="M0.17 -0.49 C-1.91 1.65, -10.29 10.24, -12.34 12.49 M-0.41 0.45 C-2.31 2.67, -9.24 10.73, -11.25 12.91" stroke="#1e1e1e" stroke-width="2" fill="none"></path></g></g><mask></mask><g stroke-linecap="round"><g transform="translate(462.24625487312414 222.6353351882383) rotate(0 5.198929799049324 10.486400433497153)"><path d="M-0.28 -0.53 C1.42 3.04, 8.65 17.39, 10.35 20.92 M0.58 0.39 C2.19 4.09, 8.16 18.14, 9.89 21.59" stroke="#1e1e1e" stroke-width="2" fill="none"></path></g></g><mask></mask><g stroke-linecap="round"><g transform="translate(505.5390625 22.6015625) rotate(0 1.31640625 136.765625)"><path d="M-1.08 -0.14 C-0.66 45.3, 1.06 227.5, 1.68 273.17 M0.55 -1.25 C1.41 44.3, 3.67 229.03, 3.89 274.52" stroke="#1e1e1e" stroke-width="2" fill="none"></path></g></g><mask></mask><g stroke-linecap="round"><g transform="translate(713.421875 28.44140625) rotate(0 1.0625 128.6171875)"><path d="M0.47 -0.22 C0.55 42.74, 1.15 214.67, 1.44 257.51 M-0.74 -1.38 C-0.35 41.22, 3.43 212.32, 3.79 255.54" stroke="#1e1e1e" stroke-width="2" fill="none"></path></g></g><mask></mask><g stroke-linecap="round"><g transform="translate(507.66796875 83.62890625) rotate(0 42.701171875 -0.701171875)"><path d="M-1.09 0.68 C13.21 0.13, 71.93 -1.96, 86.24 -2.29 M0.54 -0.01 C14.71 0.08, 71.88 -1.23, 85.72 -1.22" stroke="#1e1e1e" stroke-width="2" fill="none"></path></g><g transform="translate(507.66796875 83.62890625) rotate(0 42.701171875 -0.701171875)"><path d="M62.34 7.62 C71.33 6.22, 76.67 0.7, 85.72 -1.22 M62.34 7.62 C70.13 4.23, 75.82 0.99, 85.72 -1.22" stroke="#1e1e1e" stroke-width="2" fill="none"></path></g><g transform="translate(507.66796875 83.62890625) rotate(0 42.701171875 -0.701171875)"><path d="M62.13 -9.48 C71.34 -5.07, 76.74 -4.79, 85.72 -1.22 M62.13 -9.48 C70.06 -7.58, 75.82 -5.54, 85.72 -1.22" stroke="#1e1e1e" stroke-width="2" fill="none"></path></g></g><mask></mask><g stroke-linecap="round"><g transform="translate(510.72265625 201.8046875) rotate(0 67.001953125 -0.326171875)"><path d="M1.09 -0.19 C23.12 -0.38, 110.85 -1.47, 132.89 -1.68 M0.21 -1.34 C22.52 -1.36, 113.01 -0.81, 135.02 -0.68" stroke="#1e1e1e" stroke-width="2" fill="none"></path></g><g transform="translate(510.72265625 201.8046875) rotate(0 67.001953125 -0.326171875)"><path d="M111.48 7.73 C119.75 2.61, 126.91 0.35, 135.02 -0.68 M111.48 7.73 C117.97 5.13, 122.08 4.31, 135.02 -0.68" stroke="#1e1e1e" stroke-width="2" fill="none"></path></g><g transform="translate(510.72265625 201.8046875) rotate(0 67.001953125 -0.326171875)"><path d="M111.58 -9.37 C119.73 -8.28, 126.85 -4.33, 135.02 -0.68 M111.58 -9.37 C117.98 -7.99, 122.07 -4.83, 135.02 -0.68" stroke="#1e1e1e" stroke-width="2" fill="none"></path></g></g><mask></mask><g transform="translate(10 332.937255859375) rotate(0 120 12.5)"><text x="0" y="17.52" font-family="Virgil, Segoe UI Emoji" font-size="20px" fill="#1e1e1e" text-anchor="start" style="white-space: pre;" direction="ltr" dominant-baseline="alphabetic">互斥：如千军万马过独木桥</text></g><g transform="translate(404.296875 124.034912109375) rotate(0 47.529991149902344 12.5)"><text x="0" y="17.52" font-family="Virgil, Segoe UI Emoji" font-size="20px" fill="#1e1e1e" text-anchor="start" style="white-space: pre;" direction="ltr" dominant-baseline="alphabetic">张三(步行)</text></g><g transform="translate(386.640625 259.683349609375) rotate(0 57.529991149902344 12.5)"><text x="0" y="17.52" font-family="Virgil, Segoe UI Emoji" font-size="20px" fill="#1e1e1e" text-anchor="start" style="white-space: pre;" direction="ltr" dominant-baseline="alphabetic">李四(自行车)</text></g><g transform="translate(382.62109375 330.093505859375) rotate(0 180 12.5)"><text x="0" y="17.52" font-family="Virgil, Segoe UI Emoji" font-size="20px" fill="#1e1e1e" text-anchor="start" style="white-space: pre;" direction="ltr" dominant-baseline="alphabetic">同步：速度有差异，在一定情况停下等待</text></g><g transform="translate(519.4140625 40.557861328125) rotate(0 26.55999755859375 12.5)"><text x="0" y="17.52" font-family="Virgil, Segoe UI Emoji" font-size="20px" fill="#1e1e1e" text-anchor="start" style="white-space: pre;" direction="ltr" dominant-baseline="alphabetic">起点A</text></g><g transform="translate(651.26171875 35.464111328125) rotate(0 27.269996643066406 12.5)"><text x="0" y="17.52" font-family="Virgil, Segoe UI Emoji" font-size="20px" fill="#1e1e1e" text-anchor="start" style="white-space: pre;" direction="ltr" dominant-baseline="alphabetic">终点B</text></g></svg>