<svg version="1.1" xmlns="http://www.w3.org/2000/svg" viewBox="0 0 1103.3772567906667 455.911611596929" width="2206.7545135813334" height="911.823223193858">
  <!-- svg-source:excalidraw -->
  
  <defs>
    <style class="style-fonts">
      @font-face {
        font-family: "Virgil";
        src: url("https://excalidraw.com/Virgil.woff2");
      }
      @font-face {
        font-family: "Cascadia";
        src: url("https://excalidraw.com/Cascadia.woff2");
      }
      @font-face {
        font-family: "Assistant";
        src: url("https://excalidraw.com/Assistant-Regular.woff2");
      }
    </style>
    
  </defs>
  <rect x="0" y="0" width="1103.3772567906667" height="455.911611596929" fill="#ffffff"></rect><g stroke-linecap="round" transform="translate(10 162.4609375) rotate(0 74.044921875 33.5390625)"><path d="M16.77 0 C59.91 -2.54, 98.77 -0.46, 131.32 0 M16.77 0 C52.49 -1.24, 88.66 -0.84, 131.32 0 M131.32 0 C140.73 0.54, 148.56 4.39, 148.09 16.77 M131.32 0 C142.5 0.19, 148.7 6.02, 148.09 16.77 M148.09 16.77 C147.87 28.84, 148.83 38.96, 148.09 50.31 M148.09 16.77 C148.1 23.6, 147.27 31.86, 148.09 50.31 M148.09 50.31 C149.07 60.78, 141.46 65.67, 131.32 67.08 M148.09 50.31 C149.74 59.28, 140.24 67.5, 131.32 67.08 M131.32 67.08 C99.74 67.03, 65.17 66.97, 16.77 67.08 M131.32 67.08 C97.65 66.59, 65.95 67.34, 16.77 67.08 M16.77 67.08 C7.19 66.57, 0.26 61.52, 0 50.31 M16.77 67.08 C4.64 65.77, 0.24 61.7, 0 50.31 M0 50.31 C1.51 41.68, -1.68 31.62, 0 16.77 M0 50.31 C0.65 38.05, 0.47 24.43, 0 16.77 M0 16.77 C-1.54 5.52, 3.61 -0.85, 16.77 0 M0 16.77 C1.82 4.89, 5.07 -1.04, 16.77 0" stroke="#1e1e1e" stroke-width="2" fill="none"></path></g><g transform="translate(17.574928283691406 183.5) rotate(0 66.4699935913086 12.5)"><text x="66.4699935913086" y="17.52" font-family="Virgil, Segoe UI Emoji" font-size="20px" fill="#1e1e1e" text-anchor="middle" style="white-space: pre;" direction="ltr" dominant-baseline="alphabetic">定义100个函数</text></g><g stroke-linecap="round" transform="translate(242.02734375 10) rotate(0 65.1015625 89.458984375)"><path d="M32 0 C58.26 2.03, 82.18 0.84, 98.2 0 M32 0 C50.15 0.99, 70.27 0.36, 98.2 0 M98.2 0 C121.41 1.93, 130.13 12.55, 130.2 32 M98.2 0 C117.4 -1.27, 130.95 12.52, 130.2 32 M130.2 32 C129.56 68.46, 131.15 108.19, 130.2 146.92 M130.2 32 C130.57 59.78, 129.97 85.6, 130.2 146.92 M130.2 146.92 C128.6 170.11, 118.58 178.27, 98.2 178.92 M130.2 146.92 C128.32 168.39, 120.16 178.4, 98.2 178.92 M98.2 178.92 C73.14 180.72, 48.41 178.16, 32 178.92 M98.2 178.92 C77.73 179.42, 57.35 179.14, 32 178.92 M32 178.92 C11.47 177.17, -1.74 167.28, 0 146.92 M32 178.92 C11.63 180.01, -1.08 169.21, 0 146.92 M0 146.92 C-2.53 110.04, -0.63 75.29, 0 32 M0 146.92 C-0.73 116.4, -1.71 86.35, 0 32 M0 32 C-0.92 9.89, 10.62 -0.84, 32 0 M0 32 C-0.27 12.2, 10.31 0.8, 32 0" stroke="#1e1e1e" stroke-width="2" fill="none"></path></g><g stroke-linecap="round" transform="translate(245.18359375 242.28125) rotate(0 66.0078125 85.154296875)"><path d="M32 0 C50.25 1.83, 67.63 -0.47, 100.02 0 M32 0 C55.57 -0.04, 79.17 -0.34, 100.02 0 M100.02 0 C120.24 -1.76, 130.74 12.17, 132.02 32 M100.02 0 C119.07 -1.83, 131.61 10.44, 132.02 32 M132.02 32 C131.88 57.67, 131.78 85.3, 132.02 138.31 M132.02 32 C132.37 73.69, 130.83 116.14, 132.02 138.31 M132.02 138.31 C133.34 161.13, 121.15 169.74, 100.02 170.31 M132.02 138.31 C132.61 159.27, 119.89 170.8, 100.02 170.31 M100.02 170.31 C85.7 170.95, 70.46 168.97, 32 170.31 M100.02 170.31 C73.02 170.87, 46.26 169.32, 32 170.31 M32 170.31 C10.68 170.5, -1.44 158.46, 0 138.31 M32 170.31 C10.29 168.92, 1.91 161.89, 0 138.31 M0 138.31 C0.95 99.82, -0.52 62.11, 0 32 M0 138.31 C0.23 97.57, 1.06 55.78, 0 32 M0 32 C-1.18 8.83, 12.29 0.7, 32 0 M0 32 C0.49 10, 12.13 -2.14, 32 0" stroke="#1e1e1e" stroke-width="2" fill="none"></path></g><g stroke-linecap="round"><g transform="translate(168.10546875 193.953125) rotate(0 34.4140625 -65.0234375)"><path d="M0.59 -0.47 C11.85 -22.09, 57.3 -108.7, 68.56 -130.46 M-0.57 -1.76 C10.43 -23.15, 56.2 -107.72, 67.47 -129.15" stroke="#1e1e1e" stroke-width="2" fill="none"></path></g><g transform="translate(168.10546875 193.953125) rotate(0 34.4140625 -65.0234375)"><path d="M63.94 -104.4 C64.66 -114.32, 66.09 -124.45, 67.47 -129.15 M63.94 -104.4 C63.91 -110.55, 65.76 -114.67, 67.47 -129.15" stroke="#1e1e1e" stroke-width="2" fill="none"></path></g><g transform="translate(168.10546875 193.953125) rotate(0 34.4140625 -65.0234375)"><path d="M48.86 -112.45 C55.29 -119.38, 62.49 -126.42, 67.47 -129.15 M48.86 -112.45 C52.06 -116.98, 57.14 -119.37, 67.47 -129.15" stroke="#1e1e1e" stroke-width="2" fill="none"></path></g></g><mask></mask><g stroke-linecap="round"><g transform="translate(169.15625 214.85383746931734) rotate(0 34.794921875 27.750845432582196)"><path d="M-0.24 -0.68 C11.37 8.66, 57.26 45.72, 68.72 55.26 M-1.82 1.57 C10.24 11.18, 58.86 47.81, 70.97 56.68" stroke="#1e1e1e" stroke-width="2" fill="none"></path></g><g transform="translate(169.15625 214.85383746931734) rotate(0 34.794921875 27.750845432582196)"><path d="M47.02 49.5 C51.17 49.69, 57.25 50.96, 70.97 56.68 M47.02 49.5 C55.44 53.31, 66.54 55.2, 70.97 56.68" stroke="#1e1e1e" stroke-width="2" fill="none"></path></g><g transform="translate(169.15625 214.85383746931734) rotate(0 34.794921875 27.750845432582196)"><path d="M57.24 35.78 C59.02 39.01, 62.82 43.34, 70.97 56.68 M57.24 35.78 C61.67 44.87, 68.81 52.08, 70.97 56.68" stroke="#1e1e1e" stroke-width="2" fill="none"></path></g></g><mask></mask><g transform="translate(268.05078125 39.109130859375) rotate(0 46.469993591308594 25)"><text x="0" y="17.52" font-family="Virgil, Segoe UI Emoji" font-size="20px" fill="#1e1e1e" text-anchor="start" style="white-space: pre;" direction="ltr" dominant-baseline="alphabetic">100个函数</text><text x="0" y="42.519999999999996" font-family="Virgil, Segoe UI Emoji" font-size="20px" fill="#1e1e1e" text-anchor="start" style="white-space: pre;" direction="ltr" dominant-baseline="alphabetic">原型</text></g><g transform="translate(266.0495376586914 266.269287109375) rotate(0 46.469993591308594 25)"><text x="0" y="17.52" font-family="Virgil, Segoe UI Emoji" font-size="20px" fill="#1e1e1e" text-anchor="start" style="white-space: pre;" direction="ltr" dominant-baseline="alphabetic">100个函数</text><text x="0" y="42.519999999999996" font-family="Virgil, Segoe UI Emoji" font-size="20px" fill="#1e1e1e" text-anchor="start" style="white-space: pre;" direction="ltr" dominant-baseline="alphabetic">原型</text></g><g transform="translate(52.28125 234.136474609375) rotate(0 26.72797393798828 10)"><text x="0" y="14.016" font-family="Virgil, Segoe UI Emoji" font-size="16px" fill="#1e1e1e" text-anchor="start" style="white-space: pre;" direction="ltr" dominant-baseline="alphabetic">net.cpp</text></g><g transform="translate(276.60546875 193.890380859375) rotate(0 29.983970642089844 10)"><text x="0" y="14.016" font-family="Virgil, Segoe UI Emoji" font-size="16px" fill="#1e1e1e" text-anchor="start" style="white-space: pre;" direction="ltr" dominant-baseline="alphabetic">main.cpp</text></g><g transform="translate(286.8984375 417.995849609375) rotate(0 19.431976318359375 10)"><text x="0" y="14.016" font-family="Virgil, Segoe UI Emoji" font-size="16px" fill="#1e1e1e" text-anchor="start" style="white-space: pre;" direction="ltr" dominant-baseline="alphabetic">a.cpp</text></g><g stroke-linecap="round" transform="translate(453.658203125 151.8582763671875) rotate(0 74.044921875 33.5390625)"><path d="M16.77 0 C54.35 0.06, 91.65 0.73, 131.32 0 M16.77 0 C57.34 0.19, 99.98 -0.71, 131.32 0 M131.32 0 C141.87 -0.62, 149.68 6.79, 148.09 16.77 M131.32 0 C143.24 2.04, 149.34 4.81, 148.09 16.77 M148.09 16.77 C149.35 27.8, 149.42 35.48, 148.09 50.31 M148.09 16.77 C149.13 26.69, 148.32 37.54, 148.09 50.31 M148.09 50.31 C147.29 61.34, 143.26 68.97, 131.32 67.08 M148.09 50.31 C147.95 60.72, 140.59 65.88, 131.32 67.08 M131.32 67.08 C100.3 65.53, 70 66.17, 16.77 67.08 M131.32 67.08 C86.11 66.51, 43.16 66.54, 16.77 67.08 M16.77 67.08 C4.37 66.68, 1.55 61.64, 0 50.31 M16.77 67.08 C7.43 65.19, -2.01 59.48, 0 50.31 M0 50.31 C0.89 41.71, 1.56 33.12, 0 16.77 M0 50.31 C1.02 42.94, 0.85 36.24, 0 16.77 M0 16.77 C-1.28 7.11, 6.24 0.34, 16.77 0 M0 16.77 C0.03 3.55, 5.57 -0.97, 16.77 0" stroke="#1e1e1e" stroke-width="2" fill="none"></path></g><g transform="translate(461.2331314086914 172.8973388671875) rotate(0 66.4699935913086 12.5)"><text x="66.4699935913086" y="17.52" font-family="Virgil, Segoe UI Emoji" font-size="20px" fill="#1e1e1e" text-anchor="middle" style="white-space: pre;" direction="ltr" dominant-baseline="alphabetic">定义100个函数</text></g><g stroke-linecap="round" transform="translate(961.0764755406667 21.001699487553992) rotate(0 65.1015625 89.458984375)"><path d="M32 0 C53.76 -0.89, 73.3 -1.84, 98.2 0 M32 0 C53.63 0.08, 76.68 0.99, 98.2 0 M98.2 0 C120.18 1.78, 131.29 9.99, 130.2 32 M98.2 0 C119.38 1.15, 131.54 11.92, 130.2 32 M130.2 32 C131.18 74.83, 130.14 116.36, 130.2 146.92 M130.2 32 C129.79 58.87, 130.57 86.83, 130.2 146.92 M130.2 146.92 C130.08 167.58, 117.88 177.87, 98.2 178.92 M130.2 146.92 C129.34 166.58, 119.41 177.84, 98.2 178.92 M98.2 178.92 C85.03 177.09, 67.79 177.11, 32 178.92 M98.2 178.92 C79.43 178.57, 62.64 178.84, 32 178.92 M32 178.92 C12.27 177.28, -1.75 166.51, 0 146.92 M32 178.92 C9.6 177.69, -1.42 169.07, 0 146.92 M0 146.92 C-2.49 112.38, -0.1 80.86, 0 32 M0 146.92 C-1.5 114.85, -0.53 81.42, 0 32 M0 32 C0.02 8.89, 10.65 -0.84, 32 0 M0 32 C1.02 10.93, 12 -0.21, 32 0" stroke="#1e1e1e" stroke-width="2" fill="none"></path></g><g stroke-linecap="round" transform="translate(961.3616317906667 250.197011987554) rotate(0 66.0078125 85.154296875)"><path d="M32 0 C55.61 -1.35, 79.41 1.25, 100.02 0 M32 0 C49.23 0.81, 65.19 1.1, 100.02 0 M100.02 0 C122.43 -0.68, 131.88 11.67, 132.02 32 M100.02 0 C122.68 1.25, 133.4 12, 132.02 32 M132.02 32 C131.45 60.46, 130.87 85.72, 132.02 138.31 M132.02 32 C131.97 60.8, 131.53 87.38, 132.02 138.31 M132.02 138.31 C130.36 158.6, 120.6 168.86, 100.02 170.31 M132.02 138.31 C131.89 158.57, 119.64 168.98, 100.02 170.31 M100.02 170.31 C81.95 168.25, 64.45 171.26, 32 170.31 M100.02 170.31 C81.95 170.25, 63.13 169.35, 32 170.31 M32 170.31 C8.92 168.56, -0.92 158.57, 0 138.31 M32 170.31 C9.24 171.13, -0.11 161.23, 0 138.31 M0 138.31 C1.59 109.11, 0.61 77.73, 0 32 M0 138.31 C1.01 102.62, 0.69 65.7, 0 32 M0 32 C-0.02 9.83, 11.55 0.23, 32 0 M0 32 C1.33 10.46, 10.72 -0.2, 32 0" stroke="#1e1e1e" stroke-width="2" fill="none"></path></g><g stroke-linecap="round"><g transform="translate(884.2835067906667 203.09455791451262) rotate(0 35.849609375 -64.8455882846238)"><path d="M-0.93 0.38 C11.19 -21.38, 60.29 -108.65, 72.33 -130.39 M0.78 -0.47 C12.83 -22.09, 60.11 -107.81, 71.71 -129.22" stroke="#1e1e1e" stroke-width="2" fill="none"></path></g><g transform="translate(884.2835067906667 203.09455791451262) rotate(0 35.849609375 -64.8455882846238)"><path d="M67.93 -104.51 C69.55 -110.11, 68.78 -118.46, 71.71 -129.22 M67.93 -104.51 C69.07 -110.3, 70.31 -118.17, 71.71 -129.22" stroke="#1e1e1e" stroke-width="2" fill="none"></path></g><g transform="translate(884.2835067906667 203.09455791451262) rotate(0 35.849609375 -64.8455882846238)"><path d="M52.93 -112.72 C58.61 -115.99, 61.89 -122.12, 71.71 -129.22 M52.93 -112.72 C58.18 -116.39, 63.45 -122.06, 71.71 -129.22" stroke="#1e1e1e" stroke-width="2" fill="none"></path></g></g><mask></mask><g stroke-linecap="round"><g transform="translate(885.3342880406667 222.76959945687133) rotate(0 34.794921875 27.750845432582196)"><path d="M0.63 -0.7 C12.32 8.43, 57.56 45.64, 69.21 55.13 M-0.5 1.55 C11.08 10.81, 56.27 47.69, 68.07 56.47" stroke="#1e1e1e" stroke-width="2" fill="none"></path></g><g transform="translate(885.3342880406667 222.76959945687133) rotate(0 34.794921875 27.750845432582196)"><path d="M44.31 48.7 C48.45 49.68, 54.29 53.63, 68.07 56.47 M44.31 48.7 C53.44 50.95, 61.38 54.59, 68.07 56.47" stroke="#1e1e1e" stroke-width="2" fill="none"></path></g><g transform="translate(885.3342880406667 222.76959945687133) rotate(0 34.794921875 27.750845432582196)"><path d="M54.87 35.25 C56.7 39.28, 60.19 46.22, 68.07 56.47 M54.87 35.25 C60.23 42.44, 64.38 50.92, 68.07 56.47" stroke="#1e1e1e" stroke-width="2" fill="none"></path></g></g><mask></mask><g transform="translate(495.939453125 223.5338134765625) rotate(0 26.72797393798828 10)"><text x="0" y="14.016" font-family="Virgil, Segoe UI Emoji" font-size="16px" fill="#1e1e1e" text-anchor="start" style="white-space: pre;" direction="ltr" dominant-baseline="alphabetic">net.cpp</text></g><g transform="translate(992.7835067906667 201.806142846929) rotate(0 29.983970642089844 10)"><text x="0" y="14.016" font-family="Virgil, Segoe UI Emoji" font-size="16px" fill="#1e1e1e" text-anchor="start" style="white-space: pre;" direction="ltr" dominant-baseline="alphabetic">main.cpp</text></g><g transform="translate(1003.0764755406667 425.911611596929) rotate(0 19.431976318359375 10)"><text x="0" y="14.016" font-family="Virgil, Segoe UI Emoji" font-size="16px" fill="#1e1e1e" text-anchor="start" style="white-space: pre;" direction="ltr" dominant-baseline="alphabetic">a.cpp</text></g><g stroke-linecap="round" transform="translate(734.1253036656667 98.51524929224149) rotate(0 64.81640625 91.70703125)"><path d="M32 0 C56.2 -0.96, 79.44 -2.14, 97.63 0 M32 0 C48.84 1.22, 65.98 0.64, 97.63 0 M97.63 0 C117.73 1.9, 130.06 9.14, 129.63 32 M97.63 0 C118.02 -0.74, 128.78 12.31, 129.63 32 M129.63 32 C131.72 61.38, 128.48 88.28, 129.63 151.41 M129.63 32 C127.78 69.66, 129.09 107.27, 129.63 151.41 M129.63 151.41 C128.36 174.11, 119.73 182.97, 97.63 183.41 M129.63 151.41 C127.54 171.9, 116.91 183.63, 97.63 183.41 M97.63 183.41 C83.67 183.77, 67.47 182.68, 32 183.41 M97.63 183.41 C74.7 184.62, 52.56 184.18, 32 183.41 M32 183.41 C11.55 184.73, -1.32 174.02, 0 151.41 M32 183.41 C11.13 181.47, 0.65 172.31, 0 151.41 M0 151.41 C0.12 119.02, 0.42 87.87, 0 32 M0 151.41 C1.33 123.37, 0.82 95.66, 0 32 M0 32 C1.35 8.93, 8.81 1.85, 32 0 M0 32 C-1.07 12.94, 10.96 0.04, 32 0" stroke="#1e1e1e" stroke-width="2" fill="none"></path></g><g transform="translate(761.7657150426198 170.2222805422415) rotate(0 37.175994873046875 20)"><text x="37.175994873046875" y="14.016" font-family="Virgil, Segoe UI Emoji" font-size="16px" fill="#1e1e1e" text-anchor="middle" style="white-space: pre;" direction="ltr" dominant-baseline="alphabetic">100个函数</text><text x="37.175994873046875" y="34.016" font-family="Virgil, Segoe UI Emoji" font-size="16px" fill="#1e1e1e" text-anchor="middle" style="white-space: pre;" direction="ltr" dominant-baseline="alphabetic">原型</text></g><g stroke-linecap="round"><g transform="translate(616.6607472989922 193.31136740259996) rotate(0 49.19126255833726 -0.8013087030093118)"><path d="M0.72 0.76 C17.09 0.5, 82.1 -1.68, 98.42 -2 M-0.36 0.12 C15.84 0.06, 81.1 -0.11, 97.5 -0.68" stroke="#1e1e1e" stroke-width="2" fill="none"></path></g><g transform="translate(616.6607472989922 193.31136740259996) rotate(0 49.19126255833726 -0.8013087030093118)"><path d="M74.15 8.25 C82.84 5.35, 88.3 2.92, 97.5 -0.68 M74.15 8.25 C82.52 5.66, 89.59 1.13, 97.5 -0.68" stroke="#1e1e1e" stroke-width="2" fill="none"></path></g><g transform="translate(616.6607472989922 193.31136740259996) rotate(0 49.19126255833726 -0.8013087030093118)"><path d="M73.87 -8.85 C82.6 -6.33, 88.14 -3.34, 97.5 -0.68 M73.87 -8.85 C82.2 -5.71, 89.36 -4.49, 97.5 -0.68" stroke="#1e1e1e" stroke-width="2" fill="none"></path></g></g><mask></mask><g transform="translate(775.8948349156667 287.8235989016165) rotate(0 18.775985717773438 10)"><text x="0" y="14.016" font-family="Virgil, Segoe UI Emoji" font-size="16px" fill="#f08c00" text-anchor="start" style="white-space: pre;" direction="ltr" dominant-baseline="alphabetic">net.h</text></g><g transform="translate(1004.2012510893001 46.98983689149236) rotate(0 18.775985717773438 10)"><text x="0" y="14.016" font-family="Virgil, Segoe UI Emoji" font-size="16px" fill="#f08c00" text-anchor="start" style="white-space: pre;" direction="ltr" dominant-baseline="alphabetic">net.h</text></g><g transform="translate(1006.6593449946804 279.837069451709) rotate(0 18.775985717773438 10)"><text x="0" y="14.016" font-family="Virgil, Segoe UI Emoji" font-size="16px" fill="#f08c00" text-anchor="start" style="white-space: pre;" direction="ltr" dominant-baseline="alphabetic">net.h</text></g></svg>