<svg version="1.1" xmlns="http://www.w3.org/2000/svg" viewBox="0 0 690.40234375 275.9296875" width="1380.8046875" height="551.859375">
  <!-- svg-source:excalidraw -->
  
  <defs>
    <style class="style-fonts">
      @font-face {
        font-family: "Virgil";
        src: url("https://excalidraw.com/Virgil.woff2");
      }
      @font-face {
        font-family: "Cascadia";
        src: url("https://excalidraw.com/Cascadia.woff2");
      }
      @font-face {
        font-family: "Assistant";
        src: url("https://excalidraw.com/Assistant-Regular.woff2");
      }
    </style>
    
  </defs>
  <rect x="0" y="0" width="690.40234375" height="275.9296875" fill="#ffffff"></rect><g stroke-linecap="round"><g transform="translate(70.5078125 143.767578125) rotate(0 93.80078125 0.03461190416686577)"><path d="M-0.19 0.08 C31.12 -0.17, 156.25 -0.19, 187.65 -0.31 M-1.75 -0.92 C29.42 -0.49, 155.14 0.82, 186.72 1.03" stroke="#1e1e1e" stroke-width="2" fill="none"></path></g><g transform="translate(70.5078125 143.767578125) rotate(0 93.80078125 0.03461190416686577)"><path d="M163.16 9.37 C169.87 7.13, 175.76 5.68, 186.72 1.03 M163.16 9.37 C168.4 6.68, 175.21 5.95, 186.72 1.03" stroke="#1e1e1e" stroke-width="2" fill="none"></path></g><g transform="translate(70.5078125 143.767578125) rotate(0 93.80078125 0.03461190416686577)"><path d="M163.31 -7.73 C170.15 -5.14, 176 -1.75, 186.72 1.03 M163.31 -7.73 C168.6 -6.28, 175.37 -2.86, 186.72 1.03" stroke="#1e1e1e" stroke-width="2" fill="none"></path></g></g><mask></mask><g stroke-linecap="round" transform="translate(269.5703125 114.044921875) rotate(0 70.087890625 28.509765625)"><path d="M14.25 0 C38.82 -0.55, 64.53 1.62, 125.92 0 M14.25 0 C57.71 -0.12, 101.7 -1.44, 125.92 0 M125.92 0 C136.18 0.98, 140.71 5.63, 140.18 14.25 M125.92 0 C134.59 0.52, 140.15 6.52, 140.18 14.25 M140.18 14.25 C138.69 24.08, 140.6 32.93, 140.18 42.76 M140.18 14.25 C140.36 22.6, 139.31 30.4, 140.18 42.76 M140.18 42.76 C140.17 52.43, 135.49 56.07, 125.92 57.02 M140.18 42.76 C139.42 50.23, 134.8 58.96, 125.92 57.02 M125.92 57.02 C89.2 57.38, 50.94 57.09, 14.25 57.02 M125.92 57.02 C88.8 58.61, 54.14 57.69, 14.25 57.02 M14.25 57.02 C6.4 58.85, -1.04 51.06, 0 42.76 M14.25 57.02 C2.94 58.04, 1.66 51.28, 0 42.76 M0 42.76 C1.27 34.05, 0.1 28.79, 0 14.25 M0 42.76 C-0.25 34.31, 0.78 23.77, 0 14.25 M0 14.25 C-1.01 5.38, 2.95 1.35, 14.25 0 M0 14.25 C1.87 6.91, 4.21 1.34, 14.25 0" stroke="#1e1e1e" stroke-width="2" fill="none"></path></g><g transform="translate(325.7582092285156 130.0546875) rotate(0 13.899993896484375 12.5)"><text x="13.899993896484375" y="17.52" font-family="Virgil, Segoe UI Emoji" font-size="20px" fill="#1e1e1e" text-anchor="middle" style="white-space: pre;" direction="ltr" dominant-baseline="alphabetic">R2</text></g><g stroke-linecap="round" transform="translate(272.833984375 10) rotate(0 70.087890625 28.509765625000014)"><path d="M14.25 0 C54.87 1.84, 93.7 2.09, 125.92 0 M14.25 0 C50.93 -0.57, 87.16 -0.76, 125.92 0 M125.92 0 C137 -0.69, 139.24 5.23, 140.18 14.25 M125.92 0 C135.78 -1.66, 138.02 4.56, 140.18 14.25 M140.18 14.25 C142 22.81, 138.35 31.61, 140.18 42.76 M140.18 14.25 C140.69 24.55, 139.76 35.72, 140.18 42.76 M140.18 42.76 C138.9 50.53, 137.31 57.81, 125.92 57.02 M140.18 42.76 C140.26 52.35, 134.31 58.94, 125.92 57.02 M125.92 57.02 C101.17 57.92, 76.22 56.94, 14.25 57.02 M125.92 57.02 C97.25 58.77, 70.64 58.15, 14.25 57.02 M14.25 57.02 C4.89 57.81, 0.61 51.93, 0 42.76 M14.25 57.02 C6.9 57.83, -0.65 54.45, 0 42.76 M0 42.76 C-1.22 32.32, -0.64 20.09, 0 14.25 M0 42.76 C0.23 31.89, 0.7 19.44, 0 14.25 M0 14.25 C-1.68 5.43, 3.84 -1.78, 14.25 0 M0 14.25 C-1.74 6.29, 3.26 1.74, 14.25 0" stroke="#1e1e1e" stroke-width="2" fill="none"></path></g><g transform="translate(333.43187713623047 26.009765625) rotate(0 9.489997863769531 12.5)"><text x="9.489997863769531" y="17.52" font-family="Virgil, Segoe UI Emoji" font-size="20px" fill="#1e1e1e" text-anchor="middle" style="white-space: pre;" direction="ltr" dominant-baseline="alphabetic">R1</text></g><g stroke-linecap="round" transform="translate(273.466796875 208.91015625) rotate(0 70.087890625 28.509765625)"><path d="M14.25 0 C42.82 1.69, 76.75 -1.63, 125.92 0 M14.25 0 C37.5 1.27, 63.41 0.69, 125.92 0 M125.92 0 C135.14 1.53, 139.26 5.03, 140.18 14.25 M125.92 0 C136.82 -0.86, 138.65 3.23, 140.18 14.25 M140.18 14.25 C140.26 20.49, 141.82 27.73, 140.18 42.76 M140.18 14.25 C140.25 21.62, 139.72 27.49, 140.18 42.76 M140.18 42.76 C139.67 50.37, 133.97 57.57, 125.92 57.02 M140.18 42.76 C140.63 50.99, 133.57 55.54, 125.92 57.02 M125.92 57.02 C94.43 57.65, 67.42 58.15, 14.25 57.02 M125.92 57.02 C86.99 58.44, 48.06 58.54, 14.25 57.02 M14.25 57.02 C3.3 57.13, -1.65 52.28, 0 42.76 M14.25 57.02 C2.53 57.49, 0.86 53.92, 0 42.76 M0 42.76 C-0.02 30.03, -1.32 20.82, 0 14.25 M0 42.76 C0.8 33.09, 0.49 24.72, 0 14.25 M0 14.25 C1.35 6.18, 3.92 1.01, 14.25 0 M0 14.25 C0.88 3.65, 4.4 -0.8, 14.25 0" stroke="#1e1e1e" stroke-width="2" fill="none"></path></g><g transform="translate(332.1046905517578 224.919921875) rotate(0 11.449996948242188 12.5)"><text x="11.449996948242188" y="17.52" font-family="Virgil, Segoe UI Emoji" font-size="20px" fill="#1e1e1e" text-anchor="middle" style="white-space: pre;" direction="ltr" dominant-baseline="alphabetic">Rn</text></g><g stroke-linecap="round"><g transform="translate(163.87890625 250.794921875) rotate(0 -2.984375 -104.408203125)"><path d="M-0.69 -0.75 C-2.03 -35.48, -6.17 -174.41, -7.17 -209.24 M1.14 1.47 C0.08 -33.01, -3.59 -172.86, -5.08 -207.93" stroke="#1e1e1e" stroke-width="2" fill="none"></path></g></g><mask></mask><g stroke-linecap="round"><g transform="translate(158.9609375 40.248046875) rotate(0 54.857421875 0.73046875)"><path d="M-0.04 0.8 C18.4 1.09, 91.58 1.76, 109.92 1.81 M-1.52 0.17 C16.85 0.09, 90.6 -0.47, 109.08 -0.13" stroke="#1e1e1e" stroke-width="2" fill="none"></path></g><g transform="translate(158.9609375 40.248046875) rotate(0 54.857421875 0.73046875)"><path d="M85.55 8.34 C92.47 6.67, 97.31 4.75, 109.08 -0.13 M85.55 8.34 C91.8 5.82, 98.66 4.41, 109.08 -0.13" stroke="#1e1e1e" stroke-width="2" fill="none"></path></g><g transform="translate(158.9609375 40.248046875) rotate(0 54.857421875 0.73046875)"><path d="M85.61 -8.76 C92.53 -6.37, 97.35 -4.22, 109.08 -0.13 M85.61 -8.76 C91.9 -6.69, 98.75 -3.52, 109.08 -0.13" stroke="#1e1e1e" stroke-width="2" fill="none"></path></g></g><mask></mask><g stroke-linecap="round"><g transform="translate(163.421875 248.431640625) rotate(0 51.005859375 -1.02734375)"><path d="M0.56 -0.81 C17.37 -0.91, 84.22 -0.97, 100.94 -1.35 M-0.6 1.38 C16.55 1, 85.78 -2.48, 103.09 -3.1" stroke="#1e1e1e" stroke-width="2" fill="none"></path></g><g transform="translate(163.421875 248.431640625) rotate(0 51.005859375 -1.02734375)"><path d="M79.99 6.46 C85.82 1.62, 95.46 -1.39, 103.09 -3.1 M79.99 6.46 C85.77 4.85, 89.46 1.91, 103.09 -3.1" stroke="#1e1e1e" stroke-width="2" fill="none"></path></g><g transform="translate(163.421875 248.431640625) rotate(0 51.005859375 -1.02734375)"><path d="M79.24 -10.62 C85.19 -10.2, 95.07 -7.95, 103.09 -3.1 M79.24 -10.62 C85.24 -8.59, 89.09 -7.9, 103.09 -3.1" stroke="#1e1e1e" stroke-width="2" fill="none"></path></g></g><mask></mask><g stroke-linecap="round"><g transform="translate(422.7890625 145.291015625) rotate(0 99.12109375 -1.7421875)"><path d="M-0.56 -0.53 C32.45 -1.15, 165.63 -2.37, 198.87 -2.95 M1.35 1.8 C34.18 0.77, 165.41 -3.99, 198.25 -4.79" stroke="#1e1e1e" stroke-width="2" fill="none"></path></g><g transform="translate(422.7890625 145.291015625) rotate(0 99.12109375 -1.7421875)"><path d="M175.04 4.49 C182.68 2.21, 193.05 -1.24, 198.25 -4.79 M175.04 4.49 C181.31 2.56, 186.01 0.64, 198.25 -4.79" stroke="#1e1e1e" stroke-width="2" fill="none"></path></g><g transform="translate(422.7890625 145.291015625) rotate(0 99.12109375 -1.7421875)"><path d="M174.51 -12.61 C182.45 -8.56, 193.02 -5.68, 198.25 -4.79 M174.51 -12.61 C180.89 -10.18, 185.72 -7.74, 198.25 -4.79" stroke="#1e1e1e" stroke-width="2" fill="none"></path></g></g><mask></mask><g stroke-linecap="round"><g transform="translate(415.30078125 40.974609375) rotate(0 47.546875 -1.025390625)"><path d="M0.16 -0.83 C15.88 -1.11, 78.86 -2.6, 94.51 -2.68 M-1.21 1.35 C14.89 1.31, 80.64 -0.71, 96.92 -1.48" stroke="#1e1e1e" stroke-width="2" fill="none"></path></g></g><mask></mask><g stroke-linecap="round"><g transform="translate(510.39453125 38.923828125) rotate(0 3.611328125 101.423828125)"><path d="M-0.39 -1.15 C0.87 32.69, 5.82 168.94, 6.95 202.8 M1.6 0.87 C2.74 34.92, 4.65 170.64, 5.86 204.31" stroke="#1e1e1e" stroke-width="2" fill="none"></path></g></g><mask></mask><g stroke-linecap="round"><g transform="translate(415.578125 240.560546875) rotate(0 51.017578125 0.3359375)"><path d="M0.81 1.02 C17.62 1.17, 84.64 1.21, 101.62 1.06 M-0.23 0.51 C16.32 0.27, 83.37 -0.96, 100.45 -0.86" stroke="#1e1e1e" stroke-width="2" fill="none"></path></g></g><mask></mask><g transform="translate(320.87890625 189.888671875) rotate(0 0.00004999999998744897 0.00004999999998744897)" stroke="none"><path fill="#1e1e1e" d="M 3.14,-3.14 Q 3.14,-3.14 3.55,-2.55 3.97,-1.97 4.18,-1.28 4.40,-0.59 4.38,0.11 4.36,0.83 4.11,1.51 3.86,2.18 3.41,2.74 2.96,3.30 2.36,3.69 1.75,4.08 1.05,4.25 0.36,4.42 -0.35,4.36 -1.07,4.31 -1.73,4.02 -2.39,3.74 -2.92,3.26 -3.46,2.78 -3.81,2.15 -4.16,1.53 -4.30,0.82 -4.43,0.11 -4.34,-0.59 -4.24,-1.30 -3.92,-1.94 -3.60,-2.59 -3.09,-3.09 -2.59,-3.60 -1.94,-3.92 -1.30,-4.24 -0.59,-4.34 0.12,-4.43 0.82,-4.30 1.53,-4.16 2.15,-3.81 2.78,-3.46 3.26,-2.92 3.74,-2.39 4.02,-1.73 4.31,-1.07 4.36,-0.35 4.42,0.36 4.25,1.05 4.07,1.75 3.69,2.36 3.30,2.96 2.74,3.41 2.18,3.86 1.51,4.11 0.83,4.36 0.11,4.38 -0.60,4.40 -1.28,4.18 -1.97,3.97 -2.55,3.55 -3.14,3.13 -3.14,3.14 -3.14,3.14 -3.47,2.71 -3.80,2.29 -4.02,1.80 -4.24,1.32 -4.33,0.79 -4.43,0.26 -4.40,-0.26 -4.36,-0.80 -4.20,-1.31 -4.04,-1.82 -3.77,-2.28 -3.49,-2.73 -3.11,-3.11 -2.73,-3.49 -2.28,-3.77 -1.82,-4.05 -1.31,-4.20 -0.80,-4.36 -0.26,-4.40 0.26,-4.43 0.79,-4.33 1.32,-4.24 1.80,-4.02 2.29,-3.80 2.71,-3.47 3.14,-3.14 3.14,-3.14 L 3.14,-3.14 Z"></path></g><g transform="translate(341.0546875 189.412109375) rotate(0 0.00004999999998744897 0.00004999999998744897)" stroke="none"><path fill="#1e1e1e" d="M 3.14,-3.14 Q 3.14,-3.14 3.55,-2.55 3.97,-1.97 4.18,-1.28 4.40,-0.59 4.38,0.11 4.36,0.83 4.11,1.51 3.86,2.18 3.41,2.74 2.96,3.30 2.36,3.69 1.75,4.08 1.05,4.25 0.36,4.42 -0.35,4.36 -1.07,4.31 -1.73,4.02 -2.39,3.74 -2.92,3.26 -3.46,2.78 -3.81,2.15 -4.16,1.53 -4.30,0.82 -4.43,0.11 -4.34,-0.59 -4.24,-1.30 -3.92,-1.94 -3.60,-2.59 -3.09,-3.09 -2.59,-3.60 -1.94,-3.92 -1.30,-4.24 -0.59,-4.34 0.12,-4.43 0.82,-4.30 1.53,-4.16 2.15,-3.81 2.78,-3.46 3.26,-2.92 3.74,-2.39 4.02,-1.73 4.31,-1.07 4.36,-0.35 4.42,0.36 4.25,1.05 4.07,1.75 3.69,2.36 3.30,2.96 2.74,3.41 2.18,3.86 1.51,4.11 0.83,4.36 0.11,4.38 -0.60,4.40 -1.28,4.18 -1.97,3.97 -2.55,3.55 -3.14,3.13 -3.14,3.14 -3.14,3.14 -3.47,2.71 -3.80,2.29 -4.02,1.80 -4.24,1.32 -4.33,0.79 -4.43,0.26 -4.40,-0.26 -4.36,-0.80 -4.20,-1.31 -4.04,-1.82 -3.77,-2.28 -3.49,-2.73 -3.11,-3.11 -2.73,-3.49 -2.28,-3.77 -1.82,-4.05 -1.31,-4.20 -0.80,-4.36 -0.26,-4.40 0.26,-4.43 0.79,-4.33 1.32,-4.24 1.80,-4.02 2.29,-3.80 2.71,-3.47 3.14,-3.14 3.14,-3.14 L 3.14,-3.14 Z"></path></g><g transform="translate(360.234375 187.712890625) rotate(0 0.00004999999998744897 0.00004999999998744897)" stroke="none"><path fill="#1e1e1e" d="M 3.14,-3.14 Q 3.14,-3.14 3.55,-2.55 3.97,-1.97 4.18,-1.28 4.40,-0.59 4.38,0.11 4.36,0.83 4.11,1.51 3.86,2.18 3.41,2.74 2.96,3.30 2.36,3.69 1.75,4.08 1.05,4.25 0.36,4.42 -0.35,4.36 -1.07,4.31 -1.73,4.02 -2.39,3.74 -2.92,3.26 -3.46,2.78 -3.81,2.15 -4.16,1.53 -4.30,0.82 -4.43,0.11 -4.34,-0.59 -4.24,-1.30 -3.92,-1.94 -3.60,-2.59 -3.09,-3.09 -2.59,-3.60 -1.94,-3.92 -1.30,-4.24 -0.59,-4.34 0.12,-4.43 0.82,-4.30 1.53,-4.16 2.15,-3.81 2.78,-3.46 3.26,-2.92 3.74,-2.39 4.02,-1.73 4.31,-1.07 4.36,-0.35 4.42,0.36 4.25,1.05 4.07,1.75 3.69,2.36 3.30,2.96 2.74,3.41 2.18,3.86 1.51,4.11 0.83,4.36 0.11,4.38 -0.60,4.40 -1.28,4.18 -1.97,3.97 -2.55,3.55 -3.14,3.13 -3.14,3.14 -3.14,3.14 -3.47,2.71 -3.80,2.29 -4.02,1.80 -4.24,1.32 -4.33,0.79 -4.43,0.26 -4.40,-0.26 -4.36,-0.80 -4.20,-1.31 -4.04,-1.82 -3.77,-2.28 -3.49,-2.73 -3.11,-3.11 -2.73,-3.49 -2.28,-3.77 -1.82,-4.05 -1.31,-4.20 -0.80,-4.36 -0.26,-4.40 0.26,-4.43 0.79,-4.33 1.32,-4.24 1.80,-4.02 2.29,-3.80 2.71,-3.47 3.14,-3.14 3.14,-3.14 L 3.14,-3.14 Z"></path></g><g transform="translate(10 127.076171875) rotate(0 20 12.5)"><text x="0" y="17.52" font-family="Virgil, Segoe UI Emoji" font-size="20px" fill="#1e1e1e" text-anchor="start" style="white-space: pre;" direction="ltr" dominant-baseline="alphabetic">输入</text></g><g transform="translate(640.40234375 127.748046875) rotate(0 20 12.5)"><text x="0" y="17.52" font-family="Virgil, Segoe UI Emoji" font-size="20px" fill="#1e1e1e" text-anchor="start" style="white-space: pre;" direction="ltr" dominant-baseline="alphabetic">输出</text></g></svg>