<svg version="1.1" xmlns="http://www.w3.org/2000/svg" viewBox="0 0 656.6953125 223.375" width="1313.390625" height="446.75">
  <!-- svg-source:excalidraw -->
  
  <defs>
    <style class="style-fonts">
      @font-face {
        font-family: "Virgil";
        src: url("https://excalidraw.com/Virgil.woff2");
      }
      @font-face {
        font-family: "Cascadia";
        src: url("https://excalidraw.com/Cascadia.woff2");
      }
      @font-face {
        font-family: "Assistant";
        src: url("https://excalidraw.com/Assistant-Regular.woff2");
      }
    </style>
    
  </defs>
  <rect x="0" y="0" width="656.6953125" height="223.375" fill="#ffffff"></rect><g stroke-linecap="round"><g transform="translate(65.7265625 112.7578125) rotate(0 87.228515625 0.46875)"><path d="M0.12 -1.18 C29.07 -1.11, 145.82 0.83, 174.8 1.22 M-1.28 0.82 C27.46 0.44, 144.99 -1.05, 174.03 -0.76" stroke="#1e1e1e" stroke-width="2" fill="none"></path></g><g transform="translate(65.7265625 112.7578125) rotate(0 87.228515625 0.46875)"><path d="M150.56 7.87 C157.68 5.05, 169.26 0.33, 174.03 -0.76 M150.56 7.87 C157.62 4.68, 164.7 2.5, 174.03 -0.76" stroke="#1e1e1e" stroke-width="2" fill="none"></path></g><g transform="translate(65.7265625 112.7578125) rotate(0 87.228515625 0.46875)"><path d="M150.51 -9.23 C157.76 -5.39, 169.36 -3.45, 174.03 -0.76 M150.51 -9.23 C157.7 -6.98, 164.8 -3.72, 174.03 -0.76" stroke="#1e1e1e" stroke-width="2" fill="none"></path></g></g><mask></mask><g stroke-linecap="round"><g transform="translate(138.421875 28.82421875) rotate(0 0.66796875 83.251953125)"><path d="M0.24 0.81 C0.57 28.53, 1.33 139.21, 1.43 167.03 M-1.09 0.19 C-0.87 27.48, 0.39 137.55, 0.54 165.18" stroke="#1e1e1e" stroke-width="2" fill="none"></path></g></g><mask></mask><g stroke-linecap="round"><g transform="translate(140.25390625 29.515625) rotate(0 52.560546875 2.35546875)"><path d="M-0.71 -0.68 C16.77 0.08, 86.3 2.87, 104.01 3.68 M1.11 1.58 C19.03 2.53, 88.82 4.07, 106.14 4.67" stroke="#1e1e1e" stroke-width="2" fill="none"></path></g><g transform="translate(140.25390625 29.515625) rotate(0 52.560546875 2.35546875)"><path d="M82.42 12.56 C86.68 9.08, 91.43 9.88, 106.14 4.67 M82.42 12.56 C87.63 10.11, 95.43 7.83, 106.14 4.67" stroke="#1e1e1e" stroke-width="2" fill="none"></path></g><g transform="translate(140.25390625 29.515625) rotate(0 52.560546875 2.35546875)"><path d="M82.89 -4.53 C86.93 -4.17, 91.56 0.47, 106.14 4.67 M82.89 -4.53 C87.87 -2.63, 95.55 -0.56, 106.14 4.67" stroke="#1e1e1e" stroke-width="2" fill="none"></path></g></g><mask></mask><g stroke-linecap="round"><g transform="translate(141.31640625 195.26953125) rotate(0 51.376953125 -0.6171875)"><path d="M-0.62 -0.77 C16.78 -0.99, 86.17 -2.1, 103.59 -2.18 M1.25 1.44 C18.64 1.42, 85.99 -0.91, 103.09 -1.15" stroke="#1e1e1e" stroke-width="2" fill="none"></path></g><g transform="translate(141.31640625 195.26953125) rotate(0 51.376953125 -0.6171875)"><path d="M79.81 7.99 C83.98 7.4, 89.07 5.86, 103.09 -1.15 M79.81 7.99 C86.02 5.8, 94.43 2.85, 103.09 -1.15" stroke="#1e1e1e" stroke-width="2" fill="none"></path></g><g transform="translate(141.31640625 195.26953125) rotate(0 51.376953125 -0.6171875)"><path d="M79.39 -9.1 C83.53 -5.74, 88.71 -3.32, 103.09 -1.15 M79.39 -9.1 C85.56 -6.22, 94.09 -4.1, 103.09 -1.15" stroke="#1e1e1e" stroke-width="2" fill="none"></path></g></g><mask></mask><g stroke-linecap="round" transform="translate(250.30859375 10) rotate(0 49.912109375 22.94921875)"><path d="M11.47 0 C36.84 0.63, 64.27 0.07, 88.35 0 M11.47 0 C33.53 1.1, 56.06 0.22, 88.35 0 M88.35 0 C97.91 -0.55, 100.64 3.58, 99.82 11.47 M88.35 0 C96.3 0.72, 97.93 5.74, 99.82 11.47 M99.82 11.47 C100.12 20.76, 98.01 27.79, 99.82 34.42 M99.82 11.47 C99.46 18.53, 99.67 27.15, 99.82 34.42 M99.82 34.42 C98.79 42.04, 96.17 46.46, 88.35 45.9 M99.82 34.42 C97.76 42, 96.63 47.14, 88.35 45.9 M88.35 45.9 C57.98 45.49, 29.76 45.03, 11.47 45.9 M88.35 45.9 C62.55 45.28, 35.34 46.04, 11.47 45.9 M11.47 45.9 C4.31 44.75, 0.62 43.11, 0 34.42 M11.47 45.9 C2.47 43.78, 1.26 43.83, 0 34.42 M0 34.42 C0.2 29.38, 1.42 21.84, 0 11.47 M0 34.42 C-0.53 27.6, -0.91 19.83, 0 11.47 M0 11.47 C-0.03 2.98, 3.96 -1.96, 11.47 0 M0 11.47 C1.1 3.4, 3.91 0.47, 11.47 0" stroke="#1e1e1e" stroke-width="2" fill="none"></path></g><g transform="translate(290.73070526123047 20.44921875) rotate(0 9.489997863769531 12.5)"><text x="9.489997863769531" y="17.52" font-family="Virgil, Segoe UI Emoji" font-size="20px" fill="#1e1e1e" text-anchor="middle" style="white-space: pre;" direction="ltr" dominant-baseline="alphabetic">R1</text></g><g stroke-linecap="round" transform="translate(248.708984375 88.66796875) rotate(0 49.912109375 22.708984375)"><path d="M11.35 0 C40.43 0.29, 71.48 -1.83, 88.47 0 M11.35 0 C34.2 1.15, 58.85 0.35, 88.47 0 M88.47 0 C96.67 0.27, 100.21 3.35, 99.82 11.35 M88.47 0 C98.04 1.15, 99.48 6.01, 99.82 11.35 M99.82 11.35 C100.61 17.92, 100.8 22.29, 99.82 34.06 M99.82 11.35 C99.82 19.66, 98.94 27.42, 99.82 34.06 M99.82 34.06 C98.15 40.56, 96.67 46.81, 88.47 45.42 M99.82 34.06 C98.15 42.63, 96.62 47.1, 88.47 45.42 M88.47 45.42 C72.38 45.92, 54.87 46.07, 11.35 45.42 M88.47 45.42 C59.66 44.96, 32.41 44.35, 11.35 45.42 M11.35 45.42 C2.66 45.87, 0.97 40.37, 0 34.06 M11.35 45.42 C4.53 46.54, 0.74 40.7, 0 34.06 M0 34.06 C-1.54 24.43, 0.82 18.44, 0 11.35 M0 34.06 C0.55 28.64, 0.11 24.51, 0 11.35 M0 11.35 C-1.33 2.3, 5.38 0.13, 11.35 0 M0 11.35 C1.94 5.06, 4.75 -1.73, 11.35 0" stroke="#1e1e1e" stroke-width="2" fill="none"></path></g><g transform="translate(284.7210998535156 98.876953125) rotate(0 13.899993896484375 12.5)"><text x="13.899993896484375" y="17.52" font-family="Virgil, Segoe UI Emoji" font-size="20px" fill="#1e1e1e" text-anchor="middle" style="white-space: pre;" direction="ltr" dominant-baseline="alphabetic">R2</text></g><g stroke-linecap="round" transform="translate(251.033203125 167.4765625) rotate(0 49.912109375 22.94921875)"><path d="M11.47 0 C29.27 -0.58, 44.39 0.67, 88.35 0 M11.47 0 C28.59 -1.73, 44.37 -0.24, 88.35 0 M88.35 0 C96.22 -1.21, 100.4 2.51, 99.82 11.47 M88.35 0 C94.47 2.12, 98.12 5.15, 99.82 11.47 M99.82 11.47 C99.4 20.62, 98.54 26.1, 99.82 34.42 M99.82 11.47 C99.44 15.4, 100.29 22.18, 99.82 34.42 M99.82 34.42 C100.11 43.19, 95.25 44.53, 88.35 45.9 M99.82 34.42 C97.67 40.1, 97.12 44.88, 88.35 45.9 M88.35 45.9 C69.91 47.49, 48.66 46.04, 11.47 45.9 M88.35 45.9 C58.91 45.17, 30.89 45.17, 11.47 45.9 M11.47 45.9 C1.96 45.05, -0.85 42.85, 0 34.42 M11.47 45.9 C2.79 46.62, -1.19 43.24, 0 34.42 M0 34.42 C-1.89 24.98, -0.53 17.28, 0 11.47 M0 34.42 C0.13 27.99, 0.53 23.53, 0 11.47 M0 11.47 C-1.31 4.51, 2.49 0.13, 11.47 0 M0 11.47 C-1.07 3.24, 2.3 1.7, 11.47 0" stroke="#1e1e1e" stroke-width="2" fill="none"></path></g><g transform="translate(289.4953155517578 177.92578125) rotate(0 11.449996948242188 12.5)"><text x="11.449996948242188" y="17.52" font-family="Virgil, Segoe UI Emoji" font-size="20px" fill="#1e1e1e" text-anchor="middle" style="white-space: pre;" direction="ltr" dominant-baseline="alphabetic">Rn</text></g><g transform="translate(277.36328125 151.1484375) rotate(0 0.00004999999998744897 0.00004999999998744897)" stroke="none"><path fill="#1e1e1e" d="M 3.14,-3.14 Q 3.14,-3.14 3.55,-2.55 3.97,-1.97 4.18,-1.28 4.40,-0.59 4.38,0.11 4.36,0.83 4.11,1.51 3.86,2.18 3.41,2.74 2.96,3.30 2.36,3.69 1.75,4.08 1.05,4.25 0.36,4.42 -0.35,4.36 -1.07,4.31 -1.73,4.02 -2.39,3.74 -2.92,3.26 -3.46,2.78 -3.81,2.15 -4.16,1.53 -4.30,0.82 -4.43,0.11 -4.34,-0.59 -4.24,-1.30 -3.92,-1.94 -3.60,-2.59 -3.09,-3.09 -2.59,-3.60 -1.94,-3.92 -1.30,-4.24 -0.59,-4.34 0.12,-4.43 0.82,-4.30 1.53,-4.16 2.15,-3.81 2.78,-3.46 3.26,-2.92 3.74,-2.39 4.02,-1.73 4.31,-1.07 4.36,-0.35 4.42,0.36 4.25,1.05 4.07,1.75 3.69,2.36 3.30,2.96 2.74,3.41 2.18,3.86 1.51,4.11 0.83,4.36 0.11,4.38 -0.60,4.40 -1.28,4.18 -1.97,3.97 -2.55,3.55 -3.14,3.13 -3.14,3.14 -3.14,3.14 -3.47,2.71 -3.80,2.29 -4.02,1.80 -4.24,1.32 -4.33,0.79 -4.43,0.26 -4.40,-0.26 -4.36,-0.80 -4.20,-1.31 -4.04,-1.82 -3.77,-2.28 -3.49,-2.73 -3.11,-3.11 -2.73,-3.49 -2.28,-3.77 -1.82,-4.05 -1.31,-4.20 -0.80,-4.36 -0.26,-4.40 0.26,-4.43 0.79,-4.33 1.32,-4.24 1.80,-4.02 2.29,-3.80 2.71,-3.47 3.14,-3.14 3.14,-3.14 L 3.14,-3.14 Z"></path></g><g transform="translate(297.9453125 149.84765625) rotate(0 0.00004999999998744897 0.00004999999998744897)" stroke="none"><path fill="#1e1e1e" d="M 3.14,-3.14 Q 3.14,-3.14 3.55,-2.55 3.97,-1.97 4.18,-1.28 4.40,-0.59 4.38,0.11 4.36,0.83 4.11,1.51 3.86,2.18 3.41,2.74 2.96,3.30 2.36,3.69 1.75,4.08 1.05,4.25 0.36,4.42 -0.35,4.36 -1.07,4.31 -1.73,4.02 -2.39,3.74 -2.92,3.26 -3.46,2.78 -3.81,2.15 -4.16,1.53 -4.30,0.82 -4.43,0.11 -4.34,-0.59 -4.24,-1.30 -3.92,-1.94 -3.60,-2.59 -3.09,-3.09 -2.59,-3.60 -1.94,-3.92 -1.30,-4.24 -0.59,-4.34 0.12,-4.43 0.82,-4.30 1.53,-4.16 2.15,-3.81 2.78,-3.46 3.26,-2.92 3.74,-2.39 4.02,-1.73 4.31,-1.07 4.36,-0.35 4.42,0.36 4.25,1.05 4.07,1.75 3.69,2.36 3.30,2.96 2.74,3.41 2.18,3.86 1.51,4.11 0.83,4.36 0.11,4.38 -0.60,4.40 -1.28,4.18 -1.97,3.97 -2.55,3.55 -3.14,3.13 -3.14,3.14 -3.14,3.14 -3.47,2.71 -3.80,2.29 -4.02,1.80 -4.24,1.32 -4.33,0.79 -4.43,0.26 -4.40,-0.26 -4.36,-0.80 -4.20,-1.31 -4.04,-1.82 -3.77,-2.28 -3.49,-2.73 -3.11,-3.11 -2.73,-3.49 -2.28,-3.77 -1.82,-4.05 -1.31,-4.20 -0.80,-4.36 -0.26,-4.40 0.26,-4.43 0.79,-4.33 1.32,-4.24 1.80,-4.02 2.29,-3.80 2.71,-3.47 3.14,-3.14 3.14,-3.14 L 3.14,-3.14 Z"></path></g><g transform="translate(318.984375 148.21875) rotate(0 0.00004999999998744897 0.00004999999998744897)" stroke="none"><path fill="#1e1e1e" d="M 3.14,-3.14 Q 3.14,-3.14 3.55,-2.55 3.97,-1.97 4.18,-1.28 4.40,-0.59 4.38,0.11 4.36,0.83 4.11,1.51 3.86,2.18 3.41,2.74 2.96,3.30 2.36,3.69 1.75,4.08 1.05,4.25 0.36,4.42 -0.35,4.36 -1.07,4.31 -1.73,4.02 -2.39,3.74 -2.92,3.26 -3.46,2.78 -3.81,2.15 -4.16,1.53 -4.30,0.82 -4.43,0.11 -4.34,-0.59 -4.24,-1.30 -3.92,-1.94 -3.60,-2.59 -3.09,-3.09 -2.59,-3.60 -1.94,-3.92 -1.30,-4.24 -0.59,-4.34 0.12,-4.43 0.82,-4.30 1.53,-4.16 2.15,-3.81 2.78,-3.46 3.26,-2.92 3.74,-2.39 4.02,-1.73 4.31,-1.07 4.36,-0.35 4.42,0.36 4.25,1.05 4.07,1.75 3.69,2.36 3.30,2.96 2.74,3.41 2.18,3.86 1.51,4.11 0.83,4.36 0.11,4.38 -0.60,4.40 -1.28,4.18 -1.97,3.97 -2.55,3.55 -3.14,3.13 -3.14,3.14 -3.14,3.14 -3.47,2.71 -3.80,2.29 -4.02,1.80 -4.24,1.32 -4.33,0.79 -4.43,0.26 -4.40,-0.26 -4.36,-0.80 -4.20,-1.31 -4.04,-1.82 -3.77,-2.28 -3.49,-2.73 -3.11,-3.11 -2.73,-3.49 -2.28,-3.77 -1.82,-4.05 -1.31,-4.20 -0.80,-4.36 -0.26,-4.40 0.26,-4.43 0.79,-4.33 1.32,-4.24 1.80,-4.02 2.29,-3.80 2.71,-3.47 3.14,-3.14 3.14,-3.14 L 3.14,-3.14 Z"></path></g><g stroke-linecap="round"><g transform="translate(364.484375 33.58984375) rotate(0 36.2890625 19.8125)"><path d="M0.25 -0.57 C12.27 6.29, 59.67 33.48, 71.87 40.17 M-1.08 1.74 C11.35 8.33, 61.83 31.82, 74.21 38.33" stroke="#1e1e1e" stroke-width="2" fill="none"></path></g><g transform="translate(364.484375 33.58984375) rotate(0 36.2890625 19.8125)"><path d="M49.35 35.63 C55.28 35.15, 64.05 38.54, 74.21 38.33 M49.35 35.63 C56.81 35.88, 63.19 37.41, 74.21 38.33" stroke="#1e1e1e" stroke-width="2" fill="none"></path></g><g transform="translate(364.484375 33.58984375) rotate(0 36.2890625 19.8125)"><path d="M56.9 20.29 C60.61 24.08, 67.28 31.73, 74.21 38.33 M56.9 20.29 C62.14 25.02, 66.3 31.04, 74.21 38.33" stroke="#1e1e1e" stroke-width="2" fill="none"></path></g></g><mask></mask><g stroke-linecap="round" transform="translate(431.2734375 62.80078125) rotate(0 53.71875 52.6484375)"><path d="M48.44 -0.31 C56.84 -2.12, 67.53 0.71, 75.48 4.23 C83.42 7.75, 90.78 13.66, 96.1 20.8 C101.43 27.95, 106.44 38.16, 107.42 47.1 C108.41 56.04, 105.49 66.52, 102.03 74.46 C98.56 82.41, 93.68 89.61, 86.64 94.77 C79.61 99.94, 68.83 104.57, 59.8 105.45 C50.78 106.33, 40.75 103.61, 32.51 100.04 C24.27 96.46, 15.86 90.76, 10.34 83.99 C4.82 77.23, 0.34 68.27, -0.6 59.45 C-1.54 50.63, 1.04 39.1, 4.69 31.08 C8.35 23.06, 13.16 16.65, 21.33 11.33 C29.49 6.02, 46.88 0.97, 53.68 -0.8 C60.48 -2.58, 61.95 -0.38, 62.14 0.69 M79.23 4.67 C87.2 7.74, 94.93 15.77, 99.86 23.25 C104.79 30.73, 108.59 40.45, 108.82 49.57 C109.04 58.68, 105.45 69.78, 101.21 77.92 C96.96 86.07, 90.89 93.95, 83.34 98.45 C75.79 102.95, 64.93 104.82, 55.9 104.92 C46.87 105.03, 37.2 103.39, 29.15 99.1 C21.11 94.82, 12.7 86.66, 7.66 79.21 C2.62 71.76, -1.06 62.88, -1.1 54.42 C-1.14 45.95, 3.27 35.9, 7.43 28.4 C11.59 20.89, 16.61 14.26, 23.86 9.39 C31.1 4.52, 41.65 -0.35, 50.9 -0.83 C60.14 -1.3, 74.55 5.07, 79.32 6.56 C84.1 8.05, 80.18 7.28, 79.55 8.11" stroke="#1e1e1e" stroke-width="2" fill="none"></path></g><g transform="translate(455.00729509813516 102.72115157487389) rotate(0 30 12.5)"><text x="30" y="17.52" font-family="Virgil, Segoe UI Emoji" font-size="20px" fill="#1e1e1e" text-anchor="middle" style="white-space: pre;" direction="ltr" dominant-baseline="alphabetic">表决器</text></g><g stroke-linecap="round"><g transform="translate(359.859375 113.98046875) rotate(0 30.462890625 0.296875)"><path d="M-0.19 -0.78 C9.76 -0.97, 49.64 -0.41, 59.77 -0.34 M-1.76 1.43 C8.55 1.29, 51.64 0.86, 61.88 0.71" stroke="#1e1e1e" stroke-width="2" fill="none"></path></g><g transform="translate(359.859375 113.98046875) rotate(0 30.462890625 0.296875)"><path d="M38.49 9.54 C44.21 4.99, 51.02 3.76, 61.88 0.71 M38.49 9.54 C42.95 8.29, 48.13 6.18, 61.88 0.71" stroke="#1e1e1e" stroke-width="2" fill="none"></path></g><g transform="translate(359.859375 113.98046875) rotate(0 30.462890625 0.296875)"><path d="M38.29 -7.56 C44.18 -6.94, 51.05 -3.01, 61.88 0.71 M38.29 -7.56 C42.92 -4.99, 48.15 -3.29, 61.88 0.71" stroke="#1e1e1e" stroke-width="2" fill="none"></path></g></g><mask></mask><g stroke-linecap="round"><g transform="translate(361.35546875 193.6484375) rotate(0 41.33984375 -15.283203125)"><path d="M0.25 0.52 C14.02 -4.76, 69.76 -26.49, 83.39 -31.62 M-1.07 -0.25 C12.53 -5.43, 69.15 -25.88, 82.82 -30.63" stroke="#1e1e1e" stroke-width="2" fill="none"></path></g><g transform="translate(361.35546875 193.6484375) rotate(0 41.33984375 -15.283203125)"><path d="M63.55 -14.7 C71.48 -19.4, 75.93 -27.53, 82.82 -30.63 M63.55 -14.7 C69 -20.29, 76.39 -25.97, 82.82 -30.63" stroke="#1e1e1e" stroke-width="2" fill="none"></path></g><g transform="translate(361.35546875 193.6484375) rotate(0 41.33984375 -15.283203125)"><path d="M57.82 -30.81 C67.86 -29.61, 74.41 -31.83, 82.82 -30.63 M57.82 -30.81 C65.04 -31.16, 74.31 -31.56, 82.82 -30.63" stroke="#1e1e1e" stroke-width="2" fill="none"></path></g></g><mask></mask><g stroke-linecap="round"><g transform="translate(549.23828125 115.46875) rotate(0 21.552734375 0)"><path d="M0.05 -0.5 C7.32 -0.46, 35.95 -0.11, 43.11 0 M-0.58 0.44 C6.66 0.58, 35.49 0.91, 42.67 0.7" stroke="#1e1e1e" stroke-width="2" fill="none"></path></g><g transform="translate(549.23828125 115.46875) rotate(0 21.552734375 0)"><path d="M22.46 8.18 C25.7 6.64, 30.74 4.86, 42.67 0.7 M22.46 8.18 C29.1 5.33, 36.1 3.02, 42.67 0.7" stroke="#1e1e1e" stroke-width="2" fill="none"></path></g><g transform="translate(549.23828125 115.46875) rotate(0 21.552734375 0)"><path d="M22.38 -6.56 C25.61 -5.09, 30.67 -3.85, 42.67 0.7 M22.38 -6.56 C29.05 -4.49, 36.06 -1.87, 42.67 0.7" stroke="#1e1e1e" stroke-width="2" fill="none"></path></g></g><mask></mask><g transform="translate(606.6953125 102.53125) rotate(0 20 12.5)"><text x="0" y="17.52" font-family="Virgil, Segoe UI Emoji" font-size="20px" fill="#1e1e1e" text-anchor="start" style="white-space: pre;" direction="ltr" dominant-baseline="alphabetic">输出</text></g><g transform="translate(10 102.04296875) rotate(0 20 12.5)"><text x="0" y="17.52" font-family="Virgil, Segoe UI Emoji" font-size="20px" fill="#1e1e1e" text-anchor="start" style="white-space: pre;" direction="ltr" dominant-baseline="alphabetic">输入</text></g></svg>