<svg version="1.1" xmlns="http://www.w3.org/2000/svg" viewBox="0 0 871.4830220818519 227.1796875" width="1742.9660441637038" height="454.359375">
  <!-- svg-source:excalidraw -->
  
  <defs>
    <style class="style-fonts">
      @font-face {
        font-family: "Virgil";
        src: url("https://excalidraw.com/Virgil.woff2");
      }
      @font-face {
        font-family: "Cascadia";
        src: url("https://excalidraw.com/Cascadia.woff2");
      }
      @font-face {
        font-family: "Assistant";
        src: url("https://excalidraw.com/Assistant-Regular.woff2");
      }
    </style>
    
  </defs>
  <rect x="0" y="0" width="871.4830220818519" height="227.1796875" fill="#ffffff"></rect><g stroke-linecap="round" transform="translate(99.47014969103037 87.50390625) rotate(0 61.818359375 20.56640625)"><path d="M10.28 0 C45.1 1.92, 74.99 -0.17, 113.35 0 M10.28 0 C37.16 -0.77, 64.95 -0.4, 113.35 0 M113.35 0 C119.04 -1.66, 121.79 3.86, 123.64 10.28 M113.35 0 C121.15 0.21, 122.25 3.28, 123.64 10.28 M123.64 10.28 C122.29 18.3, 122.32 26.01, 123.64 30.85 M123.64 10.28 C123.83 14.53, 124.41 19.73, 123.64 30.85 M123.64 30.85 C121.73 37.45, 118.33 40.21, 113.35 41.13 M123.64 30.85 C123.95 37.32, 121.3 43.13, 113.35 41.13 M113.35 41.13 C84.34 41.41, 58.91 41.61, 10.28 41.13 M113.35 41.13 C80.46 40.49, 47.9 40.37, 10.28 41.13 M10.28 41.13 C3.7 41.82, -1.46 38.78, 0 30.85 M10.28 41.13 C5.07 38.88, -1.89 35.65, 0 30.85 M0 30.85 C0.46 24.19, -0.82 17.17, 0 10.28 M0 30.85 C1.05 24.39, 0.82 17.48, 0 10.28 M0 10.28 C0.21 4.18, 3.65 1.16, 10.28 0 M0 10.28 C-0.82 3.45, 1.56 0.93, 10.28 0" stroke="#1e1e1e" stroke-width="2" fill="none"></path></g><g transform="translate(154.52851455919443 95.5703125) rotate(0 6.7599945068359375 12.5)"><text x="6.7599945068359375" y="17.52" font-family="Virgil, Segoe UI Emoji" font-size="20px" fill="#1e1e1e" text-anchor="middle" style="white-space: pre;" direction="ltr" dominant-baseline="alphabetic">R</text></g><g stroke-linecap="round" transform="translate(323.5951496910304 10) rotate(0 82.060546875 22.68359375)"><path d="M11.34 0 C66.37 0.49, 118.51 0.86, 152.78 0 M11.34 0 C55.75 -0.09, 99.93 0.73, 152.78 0 M152.78 0 C160.11 -1.2, 162.89 2.84, 164.12 11.34 M152.78 0 C160.96 -1.42, 165.74 4.68, 164.12 11.34 M164.12 11.34 C165.84 16.99, 164.28 20.64, 164.12 34.03 M164.12 11.34 C164.47 17.73, 164.11 24.56, 164.12 34.03 M164.12 34.03 C165.74 39.75, 158.65 45.75, 152.78 45.37 M164.12 34.03 C163.78 43.36, 161.32 47.53, 152.78 45.37 M152.78 45.37 C121.34 46, 88.38 47.26, 11.34 45.37 M152.78 45.37 C97.06 43.88, 39.96 44.38, 11.34 45.37 M11.34 45.37 C4.74 45.86, -1.74 41.27, 0 34.03 M11.34 45.37 C1.71 46.92, -1.2 43.52, 0 34.03 M0 34.03 C0.78 28.11, 0.35 22.53, 0 11.34 M0 34.03 C0.26 27.27, 0.12 18.66, 0 11.34 M0 11.34 C1.41 3.98, 3.93 -1.19, 11.34 0 M0 11.34 C-1.99 5.68, 3.23 1.66, 11.34 0" stroke="#1e1e1e" stroke-width="2" fill="none"></path></g><g transform="translate(398.89570205919443 20.18359375) rotate(0 6.7599945068359375 12.5)"><text x="6.7599945068359375" y="17.52" font-family="Virgil, Segoe UI Emoji" font-size="20px" fill="#1e1e1e" text-anchor="middle" style="white-space: pre;" direction="ltr" dominant-baseline="alphabetic">R</text></g><g stroke-linecap="round" transform="translate(328.8217121910304 96.58984375) rotate(0 81.62109375 20.171875)"><path d="M10.09 0 C41 -0.34, 76.12 3.04, 153.16 0 M10.09 0 C54.53 -0.67, 96.39 -1.4, 153.16 0 M153.16 0 C158.52 -1.06, 162.63 5.31, 163.24 10.09 M153.16 0 C159.93 -0.36, 163.45 4.32, 163.24 10.09 M163.24 10.09 C164.61 17.34, 162.68 22.4, 163.24 30.26 M163.24 10.09 C163.12 16.58, 162.32 21.82, 163.24 30.26 M163.24 30.26 C164.03 38.71, 159.13 41.91, 153.16 40.34 M163.24 30.26 C161.15 38.44, 160.35 42.28, 153.16 40.34 M153.16 40.34 C96.11 42.81, 40.4 42.65, 10.09 40.34 M153.16 40.34 C111.7 41.38, 70.43 39.85, 10.09 40.34 M10.09 40.34 C2.62 42.34, 1.29 38.88, 0 30.26 M10.09 40.34 C4.55 41.05, -1.01 38.79, 0 30.26 M0 30.26 C0.22 26.89, 1.21 19.63, 0 10.09 M0 30.26 C0.05 23.08, -0.83 15.64, 0 10.09 M0 10.09 C-1.78 3.91, 3.37 -0.39, 10.09 0 M0 10.09 C-0.47 2.27, 3.35 1.5, 10.09 0" stroke="#1e1e1e" stroke-width="2" fill="none"></path></g><g transform="translate(403.68281143419443 104.26171875) rotate(0 6.7599945068359375 12.5)"><text x="6.7599945068359375" y="17.52" font-family="Virgil, Segoe UI Emoji" font-size="20px" fill="#1e1e1e" text-anchor="middle" style="white-space: pre;" direction="ltr" dominant-baseline="alphabetic">R</text></g><g stroke-linecap="round" transform="translate(341.5365559410304 178.98046875) rotate(0 79.310546875 19.099609375)"><path d="M9.55 0 C45.67 0.39, 78.97 -0.84, 149.07 0 M9.55 0 C38.4 -0.43, 68.13 1.05, 149.07 0 M149.07 0 C155.82 -0.99, 159.5 3.17, 158.62 9.55 M149.07 0 C155.72 -2.27, 156.68 5.04, 158.62 9.55 M158.62 9.55 C157.76 12.89, 159.61 18.38, 158.62 28.65 M158.62 9.55 C159.5 15.66, 158.97 21.3, 158.62 28.65 M158.62 28.65 C158.81 35.78, 154.52 37.93, 149.07 38.2 M158.62 28.65 C158.19 33.64, 157.27 36.56, 149.07 38.2 M149.07 38.2 C118.55 38.08, 88.36 37.5, 9.55 38.2 M149.07 38.2 C109.45 39.64, 68.84 38.85, 9.55 38.2 M9.55 38.2 C4.69 36.43, -0.34 35.39, 0 28.65 M9.55 38.2 C3.16 38.14, -1.56 35.31, 0 28.65 M0 28.65 C-0.77 21.82, 2.05 15.5, 0 9.55 M0 28.65 C0.59 24.68, 0.35 20.28, 0 9.55 M0 9.55 C1.59 4.71, 4.23 0.22, 9.55 0 M0 9.55 C-0.31 1.06, 3.94 2.17, 9.55 0" stroke="#1e1e1e" stroke-width="2" fill="none"></path></g><g transform="translate(414.08710830919443 185.580078125) rotate(0 6.7599945068359375 12.5)"><text x="6.7599945068359375" y="17.52" font-family="Virgil, Segoe UI Emoji" font-size="20px" fill="#1e1e1e" text-anchor="middle" style="white-space: pre;" direction="ltr" dominant-baseline="alphabetic">R</text></g><g stroke-linecap="round" transform="translate(621.8920246910304 52.26953125) rotate(0 65.3515625 20.69140625)"><path d="M10.35 0 C41.03 1.2, 70.74 1.63, 120.36 0 M10.35 0 C37.84 -1.69, 63.28 -0.39, 120.36 0 M120.36 0 C127.21 -0.61, 131.42 4.8, 130.7 10.35 M120.36 0 C129.05 -1.98, 130.45 4.07, 130.7 10.35 M130.7 10.35 C132.17 15.74, 130.04 20, 130.7 31.04 M130.7 10.35 C131.41 14.78, 130 20.79, 130.7 31.04 M130.7 31.04 C131.02 39.42, 128.44 42.65, 120.36 41.38 M130.7 31.04 C131.57 36.66, 128.39 43.12, 120.36 41.38 M120.36 41.38 C80.69 42.25, 42.32 39.25, 10.35 41.38 M120.36 41.38 C91.49 40.55, 63.67 40.3, 10.35 41.38 M10.35 41.38 C4.02 39.74, 1.92 38.55, 0 31.04 M10.35 41.38 C3.93 41.7, 1.38 37.57, 0 31.04 M0 31.04 C1.02 22.81, 1.4 15.96, 0 10.35 M0 31.04 C0.66 24.99, 1.12 18.35, 0 10.35 M0 10.35 C0.56 3.9, 2.92 1.33, 10.35 0 M0 10.35 C-0.05 4.17, 2.18 0.42, 10.35 0" stroke="#1e1e1e" stroke-width="2" fill="none"></path></g><g transform="translate(680.4835926841945 60.4609375) rotate(0 6.7599945068359375 12.5)"><text x="6.7599945068359375" y="17.52" font-family="Virgil, Segoe UI Emoji" font-size="20px" fill="#1e1e1e" text-anchor="middle" style="white-space: pre;" direction="ltr" dominant-baseline="alphabetic">R</text></g><g stroke-linecap="round" transform="translate(628.5717121910304 132.95703125) rotate(0 62.970703125 18.71484375)"><path d="M9.36 0 C32.37 0.72, 54.12 -0.61, 116.58 0 M9.36 0 C42.27 0.07, 74.07 0.34, 116.58 0 M116.58 0 C123.87 1.33, 125.58 1.92, 125.94 9.36 M116.58 0 C124.4 -1.31, 126.09 1.59, 125.94 9.36 M125.94 9.36 C127.54 13.76, 127.55 20.87, 125.94 28.07 M125.94 9.36 C125.03 14.61, 126.52 19.5, 125.94 28.07 M125.94 28.07 C127.87 32.91, 121.89 38.27, 116.58 37.43 M125.94 28.07 C123.81 33.07, 123.39 35.89, 116.58 37.43 M116.58 37.43 C85.8 39.75, 57.19 40.38, 9.36 37.43 M116.58 37.43 C74.45 37.13, 33.88 37.48, 9.36 37.43 M9.36 37.43 C3.51 36.91, 1.61 34.06, 0 28.07 M9.36 37.43 C2.91 38.5, 0.25 34.33, 0 28.07 M0 28.07 C-1.8 24.36, 0.54 17.17, 0 9.36 M0 28.07 C-0.03 21.89, -0.24 16.74, 0 9.36 M0 9.36 C-1.42 4.57, 1.23 1.71, 9.36 0 M0 9.36 C0.78 5.31, 5.27 -1.35, 9.36 0" stroke="#1e1e1e" stroke-width="2" fill="none"></path></g><g transform="translate(684.7824208091945 139.171875) rotate(0 6.7599945068359375 12.5)"><text x="6.7599945068359375" y="17.52" font-family="Virgil, Segoe UI Emoji" font-size="20px" fill="#1e1e1e" text-anchor="middle" style="white-space: pre;" direction="ltr" dominant-baseline="alphabetic">R</text></g><g stroke-linecap="round"><g transform="translate(230.31780594103037 111.94140625) rotate(0 44.44140625 0.4609375)"><path d="M-0.81 0.44 C13.72 0.78, 73.38 1.47, 88.13 1.74 M0.97 -0.38 C15.79 -0.34, 75.61 -0.07, 90.44 0.05" stroke="#1e1e1e" stroke-width="2" fill="none"></path></g><g transform="translate(230.31780594103037 111.94140625) rotate(0 44.44140625 0.4609375)"><path d="M66.9 8.46 C76.61 4.15, 86.23 0.23, 90.44 0.05 M66.9 8.46 C76.12 4.4, 85.99 1.61, 90.44 0.05" stroke="#1e1e1e" stroke-width="2" fill="none"></path></g><g transform="translate(230.31780594103037 111.94140625) rotate(0 44.44140625 0.4609375)"><path d="M67 -8.64 C76.63 -6.43, 86.21 -3.84, 90.44 0.05 M67 -8.64 C76.17 -5.94, 85.99 -1.96, 90.44 0.05" stroke="#1e1e1e" stroke-width="2" fill="none"></path></g></g><mask></mask><g stroke-linecap="round"><g transform="translate(257.4310871910304 40.09765625) rotate(0 4.91796875 82.326171875)"><path d="M-0.33 -0.79 C1.45 26.59, 8.52 137.41, 10.37 164.84 M1.7 1.4 C3.39 28.96, 8.23 139.27, 9.71 166.47" stroke="#1e1e1e" stroke-width="2" fill="none"></path></g></g><mask></mask><g stroke-linecap="round"><g transform="translate(258.5756184410304 40.58984375) rotate(0 28.685546875 -0.20703125)"><path d="M0.02 -1.03 C9.73 -1, 48.71 0.29, 58.24 0.22 M-1.43 1.05 C8.2 0.72, 48.11 -1.29, 57.75 -1.56" stroke="#1e1e1e" stroke-width="2" fill="none"></path></g><g transform="translate(258.5756184410304 40.58984375) rotate(0 28.685546875 -0.20703125)"><path d="M34.63 7.94 C39.79 6.56, 49.45 2.04, 57.75 -1.56 M34.63 7.94 C39.15 6.27, 44.72 4.48, 57.75 -1.56" stroke="#1e1e1e" stroke-width="2" fill="none"></path></g><g transform="translate(258.5756184410304 40.58984375) rotate(0 28.685546875 -0.20703125)"><path d="M33.93 -9.15 C39.31 -5.44, 49.18 -4.88, 57.75 -1.56 M33.93 -9.15 C38.66 -7.08, 44.38 -5.15, 57.75 -1.56" stroke="#1e1e1e" stroke-width="2" fill="none"></path></g></g><mask></mask><g stroke-linecap="round"><g transform="translate(266.8724934410304 206.87109375) rotate(0 34.25390625 -0.853515625)"><path d="M1.16 -0.82 C12.57 -1.31, 57.05 -1.88, 68.1 -2.1 M0.31 1.37 C11.56 0.96, 55.36 -0.36, 66.93 -0.76" stroke="#1e1e1e" stroke-width="2" fill="none"></path></g><g transform="translate(266.8724934410304 206.87109375) rotate(0 34.25390625 -0.853515625)"><path d="M43.73 8.54 C48.57 5.11, 55.56 1.46, 66.93 -0.76 M43.73 8.54 C48.98 7, 56.59 3.18, 66.93 -0.76" stroke="#1e1e1e" stroke-width="2" fill="none"></path></g><g transform="translate(266.8724934410304 206.87109375) rotate(0 34.25390625 -0.853515625)"><path d="M43.18 -8.55 C48.29 -7.36, 55.43 -6.39, 66.93 -0.76 M43.18 -8.55 C48.58 -5.56, 56.33 -4.85, 66.93 -0.76" stroke="#1e1e1e" stroke-width="2" fill="none"></path></g></g><mask></mask><g stroke-linecap="round"><g transform="translate(593.5443684410304 153.0390625) rotate(0 14.861328125 -1.078125)"><path d="M0.02 0.52 C5.04 0.25, 25.28 -1.7, 30.24 -2.09 M-0.64 0.31 C4.34 0.18, 25.06 -0.86, 30.07 -1.35" stroke="#1e1e1e" stroke-width="2" fill="none"></path></g><g transform="translate(593.5443684410304 153.0390625) rotate(0 14.861328125 -1.078125)"><path d="M16.46 4.71 C21.55 3.46, 25.3 0.83, 30.07 -1.35 M16.46 4.71 C21.58 2.22, 26.35 0.06, 30.07 -1.35" stroke="#1e1e1e" stroke-width="2" fill="none"></path></g><g transform="translate(593.5443684410304 153.0390625) rotate(0 14.861328125 -1.078125)"><path d="M15.75 -5.46 C21.02 -3.45, 25 -2.82, 30.07 -1.35 M15.75 -5.46 C21.18 -4.2, 26.21 -2.61, 30.07 -1.35" stroke="#1e1e1e" stroke-width="2" fill="none"></path></g></g><mask></mask><g stroke-linecap="round"><g transform="translate(802.0638996910304 111.3828125) rotate(0 29.294921875 -0.982421875)"><path d="M0.33 -1.13 C10.35 -1.35, 49.74 -1.31, 59.42 -1.46 M-0.95 0.9 C9.04 0.32, 49.15 -3.04, 58.91 -3.31" stroke="#1e1e1e" stroke-width="2" fill="none"></path></g><g transform="translate(802.0638996910304 111.3828125) rotate(0 29.294921875 -0.982421875)"><path d="M35.97 6.63 C39.64 5.55, 47.9 1.47, 58.91 -3.31 M35.97 6.63 C43.57 4.1, 48.82 -0.21, 58.91 -3.31" stroke="#1e1e1e" stroke-width="2" fill="none"></path></g><g transform="translate(802.0638996910304 111.3828125) rotate(0 29.294921875 -0.982421875)"><path d="M34.94 -10.44 C38.85 -7.4, 47.36 -7.36, 58.91 -3.31 M34.94 -10.44 C42.92 -7.91, 48.47 -7.16, 58.91 -3.31" stroke="#1e1e1e" stroke-width="2" fill="none"></path></g></g><mask></mask><g stroke-linecap="round"><g transform="translate(10.970149691030372 112.88671875) rotate(0 40.708984375 -1.03125)"><path d="M-0.97 1.1 C12.44 0.9, 67.51 -1.3, 81.36 -1.72 M0.72 0.64 C13.88 0.11, 66.88 -2.98, 80.38 -3.67" stroke="#1e1e1e" stroke-width="2" fill="none"></path></g><g transform="translate(10.970149691030372 112.88671875) rotate(0 40.708984375 -1.03125)"><path d="M57.39 6.15 C67.93 2.54, 75.32 0.1, 80.38 -3.67 M57.39 6.15 C66.09 2.1, 74.12 -1.34, 80.38 -3.67" stroke="#1e1e1e" stroke-width="2" fill="none"></path></g><g transform="translate(10.970149691030372 112.88671875) rotate(0 40.708984375 -1.03125)"><path d="M56.45 -10.92 C67.28 -8.09, 75.02 -4.1, 80.38 -3.67 M56.45 -10.92 C65.33 -8.99, 73.68 -6.45, 80.38 -3.67" stroke="#1e1e1e" stroke-width="2" fill="none"></path></g></g><mask></mask><g stroke-linecap="round"><g transform="translate(489.5795246910304 31.890625) rotate(0 17.93359375 0.921875)"><path d="M-0.4 0.4 C5.45 0.64, 29.44 1.53, 35.48 1.78 M0.4 0.13 C6.38 0.42, 30.67 2.05, 36.51 2.45" stroke="#1e1e1e" stroke-width="2" fill="none"></path></g></g><mask></mask><g stroke-linecap="round"><g transform="translate(525.4467121910304 33.734375) rotate(0 3.41796875 81.453125)"><path d="M0.19 0.97 C1.2 28.29, 4.98 135.71, 5.9 162.74 M-1.17 0.43 C0.22 28.05, 6.6 136.84, 8.12 164.19" stroke="#1e1e1e" stroke-width="2" fill="none"></path></g></g><mask></mask><g stroke-linecap="round"><g transform="translate(503.1615559410304 199.08984375) rotate(0 13.990234375 0.328125)"><path d="M0.24 0.24 C4.87 0.45, 23.71 1.01, 28.3 1.06 M-0.3 -0.11 C4.24 -0.04, 23.43 0.11, 28.03 0.3" stroke="#1e1e1e" stroke-width="2" fill="none"></path></g></g><mask></mask><g stroke-linecap="round"><g transform="translate(491.6185871910304 116.3046875) rotate(0 47.484375 0.90625)"><path d="M0.77 0.69 C16.61 0.61, 79.44 0.47, 95.2 0.68 M-0.29 0 C15.4 0.54, 78.53 1.07, 94.38 1.62" stroke="#1e1e1e" stroke-width="2" fill="none"></path></g></g><mask></mask><g stroke-linecap="round"><g transform="translate(590.9662434410304 79.44140625) rotate(0 0.884765625 37)"><path d="M-0.17 -1.06 C0.18 11.26, 1.33 61.07, 1.57 73.73 M-1.73 1 C-1.5 13.52, 0.18 63.12, 0.51 75.13" stroke="#1e1e1e" stroke-width="2" fill="none"></path></g></g><mask></mask><g stroke-linecap="round"><g transform="translate(754.8138996910304 73.83984375) rotate(0 22.5390625 0.419921875)"><path d="M-0.49 -0.05 C7.08 0.16, 37.42 0.79, 45.09 0.95 M0.26 -0.55 C7.78 -0.49, 37.14 -0.31, 44.67 0.04" stroke="#1e1e1e" stroke-width="2" fill="none"></path></g></g><mask></mask><g stroke-linecap="round"><g transform="translate(798.4115559410304 75.33984375) rotate(0 -1.337890625 43.357421875)"><path d="M0.09 0.97 C-0.4 15.56, -2.12 73.27, -2.51 87.54 M-1.32 0.43 C-2 14.7, -3.13 71.29, -3.37 85.85" stroke="#1e1e1e" stroke-width="2" fill="none"></path></g></g><mask></mask><g stroke-linecap="round"><g transform="translate(759.2357746910304 160.984375) rotate(0 16.916015625 -1.0546875)"><path d="M0.2 0.32 C5.8 0.08, 28.33 -1.4, 33.89 -1.87 M-0.36 0 C5.15 -0.36, 27.91 -2.36, 33.49 -2.71" stroke="#1e1e1e" stroke-width="2" fill="none"></path></g></g><mask></mask><g stroke-linecap="round"><g transform="translate(590.2826496910304 77.04296875) rotate(0 14.701171875 -0.642578125)"><path d="M0.24 -0.36 C5.22 -0.49, 24.41 -1.15, 29.34 -1.24 M-0.3 0.65 C4.64 0.64, 23.88 -0.12, 28.88 -0.52" stroke="#1e1e1e" stroke-width="2" fill="none"></path></g><g transform="translate(590.2826496910304 77.04296875) rotate(0 14.701171875 -0.642578125)"><path d="M15.36 5.29 C17.7 3.98, 21.02 3.43, 28.88 -0.52 M15.36 5.29 C20.11 3.53, 25.19 1.33, 28.88 -0.52" stroke="#1e1e1e" stroke-width="2" fill="none"></path></g><g transform="translate(590.2826496910304 77.04296875) rotate(0 14.701171875 -0.642578125)"><path d="M14.79 -4.76 C17.21 -4, 20.65 -2.47, 28.88 -0.52 M14.79 -4.76 C19.7 -2.8, 25 -1.29, 28.88 -0.52" stroke="#1e1e1e" stroke-width="2" fill="none"></path></g></g><mask></mask></svg>